<?xml version="1.0" encoding="utf-8" standalone="no"?>
<!DOCTYPE svg PUBLIC "-//W3C//DTD SVG 1.1//EN"
  "http://www.w3.org/Graphics/SVG/1.1/DTD/svg11.dtd">
<!-- Created with matplotlib (https://matplotlib.org/) -->
<svg height="432pt" version="1.1" viewBox="0 0 720 432" width="720pt" xmlns="http://www.w3.org/2000/svg" xmlns:xlink="http://www.w3.org/1999/xlink">
 <metadata>
  <rdf:RDF xmlns:cc="http://creativecommons.org/ns#" xmlns:dc="http://purl.org/dc/elements/1.1/" xmlns:rdf="http://www.w3.org/1999/02/22-rdf-syntax-ns#">
   <cc:Work>
    <dc:type rdf:resource="http://purl.org/dc/dcmitype/StillImage"/>
    <dc:date>2021-11-04T08:07:18.849591</dc:date>
    <dc:format>image/svg+xml</dc:format>
    <dc:creator>
     <cc:Agent>
      <dc:title>Matplotlib v3.3.2, https://matplotlib.org/</dc:title>
     </cc:Agent>
    </dc:creator>
   </cc:Work>
  </rdf:RDF>
 </metadata>
 <defs>
  <style type="text/css">*{stroke-linecap:butt;stroke-linejoin:round;}</style>
 </defs>
 <g id="figure_1">
  <g id="patch_1">
   <path d="M 0 432 
L 720 432 
L 720 0 
L 0 0 
z
" style="fill:none;"/>
  </g>
  <g id="axes_1">
   <g id="patch_2">
    <path d="M 44.55 390.2 
L 709.2 390.2 
L 709.2 10.8 
L 44.55 10.8 
z
" style="fill:#ffffff;"/>
   </g>
   <g id="matplotlib.axis_1">
    <g id="xtick_1">
     <g id="line2d_1">
      <defs>
       <path d="M 0 0 
L 0 3.5 
" id="ma9f26c75c8" style="stroke:#000000;stroke-width:0.8;"/>
      </defs>
      <g>
       <use style="stroke:#000000;stroke-width:0.8;" x="53.78125" xlink:href="#ma9f26c75c8" y="390.2"/>
      </g>
     </g>
     <g id="text_1">
      <!-- 0 -->
      <g transform="translate(50.6 404.798437)scale(0.1 -0.1)">
       <defs>
        <path d="M 31.78125 66.40625 
Q 24.171875 66.40625 20.328125 58.90625 
Q 16.5 51.421875 16.5 36.375 
Q 16.5 21.390625 20.328125 13.890625 
Q 24.171875 6.390625 31.78125 6.390625 
Q 39.453125 6.390625 43.28125 13.890625 
Q 47.125 21.390625 47.125 36.375 
Q 47.125 51.421875 43.28125 58.90625 
Q 39.453125 66.40625 31.78125 66.40625 
z
M 31.78125 74.21875 
Q 44.046875 74.21875 50.515625 64.515625 
Q 56.984375 54.828125 56.984375 36.375 
Q 56.984375 17.96875 50.515625 8.265625 
Q 44.046875 -1.421875 31.78125 -1.421875 
Q 19.53125 -1.421875 13.0625 8.265625 
Q 6.59375 17.96875 6.59375 36.375 
Q 6.59375 54.828125 13.0625 64.515625 
Q 19.53125 74.21875 31.78125 74.21875 
z
" id="DejaVuSans-48"/>
       </defs>
       <use xlink:href="#DejaVuSans-48"/>
      </g>
     </g>
    </g>
    <g id="xtick_2">
     <g id="line2d_2">
      <g>
       <use style="stroke:#000000;stroke-width:0.8;" x="146.09375" xlink:href="#ma9f26c75c8" y="390.2"/>
      </g>
     </g>
     <g id="text_2">
      <!-- 5 -->
      <g transform="translate(142.9125 404.798437)scale(0.1 -0.1)">
       <defs>
        <path d="M 10.796875 72.90625 
L 49.515625 72.90625 
L 49.515625 64.59375 
L 19.828125 64.59375 
L 19.828125 46.734375 
Q 21.96875 47.46875 24.109375 47.828125 
Q 26.265625 48.1875 28.421875 48.1875 
Q 40.625 48.1875 47.75 41.5 
Q 54.890625 34.8125 54.890625 23.390625 
Q 54.890625 11.625 47.5625 5.09375 
Q 40.234375 -1.421875 26.90625 -1.421875 
Q 22.3125 -1.421875 17.546875 -0.640625 
Q 12.796875 0.140625 7.71875 1.703125 
L 7.71875 11.625 
Q 12.109375 9.234375 16.796875 8.0625 
Q 21.484375 6.890625 26.703125 6.890625 
Q 35.15625 6.890625 40.078125 11.328125 
Q 45.015625 15.765625 45.015625 23.390625 
Q 45.015625 31 40.078125 35.4375 
Q 35.15625 39.890625 26.703125 39.890625 
Q 22.75 39.890625 18.8125 39.015625 
Q 14.890625 38.140625 10.796875 36.28125 
z
" id="DejaVuSans-53"/>
       </defs>
       <use xlink:href="#DejaVuSans-53"/>
      </g>
     </g>
    </g>
    <g id="xtick_3">
     <g id="line2d_3">
      <g>
       <use style="stroke:#000000;stroke-width:0.8;" x="238.40625" xlink:href="#ma9f26c75c8" y="390.2"/>
      </g>
     </g>
     <g id="text_3">
      <!-- 10 -->
      <g transform="translate(232.04375 404.798437)scale(0.1 -0.1)">
       <defs>
        <path d="M 12.40625 8.296875 
L 28.515625 8.296875 
L 28.515625 63.921875 
L 10.984375 60.40625 
L 10.984375 69.390625 
L 28.421875 72.90625 
L 38.28125 72.90625 
L 38.28125 8.296875 
L 54.390625 8.296875 
L 54.390625 0 
L 12.40625 0 
z
" id="DejaVuSans-49"/>
       </defs>
       <use xlink:href="#DejaVuSans-49"/>
       <use x="63.623047" xlink:href="#DejaVuSans-48"/>
      </g>
     </g>
    </g>
    <g id="xtick_4">
     <g id="line2d_4">
      <g>
       <use style="stroke:#000000;stroke-width:0.8;" x="330.71875" xlink:href="#ma9f26c75c8" y="390.2"/>
      </g>
     </g>
     <g id="text_4">
      <!-- 15 -->
      <g transform="translate(324.35625 404.798437)scale(0.1 -0.1)">
       <use xlink:href="#DejaVuSans-49"/>
       <use x="63.623047" xlink:href="#DejaVuSans-53"/>
      </g>
     </g>
    </g>
    <g id="xtick_5">
     <g id="line2d_5">
      <g>
       <use style="stroke:#000000;stroke-width:0.8;" x="423.03125" xlink:href="#ma9f26c75c8" y="390.2"/>
      </g>
     </g>
     <g id="text_5">
      <!-- 20 -->
      <g transform="translate(416.66875 404.798437)scale(0.1 -0.1)">
       <defs>
        <path d="M 19.1875 8.296875 
L 53.609375 8.296875 
L 53.609375 0 
L 7.328125 0 
L 7.328125 8.296875 
Q 12.9375 14.109375 22.625 23.890625 
Q 32.328125 33.6875 34.8125 36.53125 
Q 39.546875 41.84375 41.421875 45.53125 
Q 43.3125 49.21875 43.3125 52.78125 
Q 43.3125 58.59375 39.234375 62.25 
Q 35.15625 65.921875 28.609375 65.921875 
Q 23.96875 65.921875 18.8125 64.3125 
Q 13.671875 62.703125 7.8125 59.421875 
L 7.8125 69.390625 
Q 13.765625 71.78125 18.9375 73 
Q 24.125 74.21875 28.421875 74.21875 
Q 39.75 74.21875 46.484375 68.546875 
Q 53.21875 62.890625 53.21875 53.421875 
Q 53.21875 48.921875 51.53125 44.890625 
Q 49.859375 40.875 45.40625 35.40625 
Q 44.1875 33.984375 37.640625 27.21875 
Q 31.109375 20.453125 19.1875 8.296875 
z
" id="DejaVuSans-50"/>
       </defs>
       <use xlink:href="#DejaVuSans-50"/>
       <use x="63.623047" xlink:href="#DejaVuSans-48"/>
      </g>
     </g>
    </g>
    <g id="xtick_6">
     <g id="line2d_6">
      <g>
       <use style="stroke:#000000;stroke-width:0.8;" x="515.34375" xlink:href="#ma9f26c75c8" y="390.2"/>
      </g>
     </g>
     <g id="text_6">
      <!-- 25 -->
      <g transform="translate(508.98125 404.798437)scale(0.1 -0.1)">
       <use xlink:href="#DejaVuSans-50"/>
       <use x="63.623047" xlink:href="#DejaVuSans-53"/>
      </g>
     </g>
    </g>
    <g id="xtick_7">
     <g id="line2d_7">
      <g>
       <use style="stroke:#000000;stroke-width:0.8;" x="607.65625" xlink:href="#ma9f26c75c8" y="390.2"/>
      </g>
     </g>
     <g id="text_7">
      <!-- 30 -->
      <g transform="translate(601.29375 404.798437)scale(0.1 -0.1)">
       <defs>
        <path d="M 40.578125 39.3125 
Q 47.65625 37.796875 51.625 33 
Q 55.609375 28.21875 55.609375 21.1875 
Q 55.609375 10.40625 48.1875 4.484375 
Q 40.765625 -1.421875 27.09375 -1.421875 
Q 22.515625 -1.421875 17.65625 -0.515625 
Q 12.796875 0.390625 7.625 2.203125 
L 7.625 11.71875 
Q 11.71875 9.328125 16.59375 8.109375 
Q 21.484375 6.890625 26.8125 6.890625 
Q 36.078125 6.890625 40.9375 10.546875 
Q 45.796875 14.203125 45.796875 21.1875 
Q 45.796875 27.640625 41.28125 31.265625 
Q 36.765625 34.90625 28.71875 34.90625 
L 20.21875 34.90625 
L 20.21875 43.015625 
L 29.109375 43.015625 
Q 36.375 43.015625 40.234375 45.921875 
Q 44.09375 48.828125 44.09375 54.296875 
Q 44.09375 59.90625 40.109375 62.90625 
Q 36.140625 65.921875 28.71875 65.921875 
Q 24.65625 65.921875 20.015625 65.03125 
Q 15.375 64.15625 9.8125 62.3125 
L 9.8125 71.09375 
Q 15.4375 72.65625 20.34375 73.4375 
Q 25.25 74.21875 29.59375 74.21875 
Q 40.828125 74.21875 47.359375 69.109375 
Q 53.90625 64.015625 53.90625 55.328125 
Q 53.90625 49.265625 50.4375 45.09375 
Q 46.96875 40.921875 40.578125 39.3125 
z
" id="DejaVuSans-51"/>
       </defs>
       <use xlink:href="#DejaVuSans-51"/>
       <use x="63.623047" xlink:href="#DejaVuSans-48"/>
      </g>
     </g>
    </g>
    <g id="xtick_8">
     <g id="line2d_8">
      <g>
       <use style="stroke:#000000;stroke-width:0.8;" x="699.96875" xlink:href="#ma9f26c75c8" y="390.2"/>
      </g>
     </g>
     <g id="text_8">
      <!-- 35 -->
      <g transform="translate(693.60625 404.798437)scale(0.1 -0.1)">
       <use xlink:href="#DejaVuSans-51"/>
       <use x="63.623047" xlink:href="#DejaVuSans-53"/>
      </g>
     </g>
    </g>
    <g id="text_9">
     <!-- genome rank (ordered by gather results) -->
     <g transform="translate(274.567188 418.476562)scale(0.1 -0.1)">
      <defs>
       <path d="M 45.40625 27.984375 
Q 45.40625 37.75 41.375 43.109375 
Q 37.359375 48.484375 30.078125 48.484375 
Q 22.859375 48.484375 18.828125 43.109375 
Q 14.796875 37.75 14.796875 27.984375 
Q 14.796875 18.265625 18.828125 12.890625 
Q 22.859375 7.515625 30.078125 7.515625 
Q 37.359375 7.515625 41.375 12.890625 
Q 45.40625 18.265625 45.40625 27.984375 
z
M 54.390625 6.78125 
Q 54.390625 -7.171875 48.1875 -13.984375 
Q 42 -20.796875 29.203125 -20.796875 
Q 24.46875 -20.796875 20.265625 -20.09375 
Q 16.0625 -19.390625 12.109375 -17.921875 
L 12.109375 -9.1875 
Q 16.0625 -11.328125 19.921875 -12.34375 
Q 23.78125 -13.375 27.78125 -13.375 
Q 36.625 -13.375 41.015625 -8.765625 
Q 45.40625 -4.15625 45.40625 5.171875 
L 45.40625 9.625 
Q 42.625 4.78125 38.28125 2.390625 
Q 33.9375 0 27.875 0 
Q 17.828125 0 11.671875 7.65625 
Q 5.515625 15.328125 5.515625 27.984375 
Q 5.515625 40.671875 11.671875 48.328125 
Q 17.828125 56 27.875 56 
Q 33.9375 56 38.28125 53.609375 
Q 42.625 51.21875 45.40625 46.390625 
L 45.40625 54.6875 
L 54.390625 54.6875 
z
" id="DejaVuSans-103"/>
       <path d="M 56.203125 29.59375 
L 56.203125 25.203125 
L 14.890625 25.203125 
Q 15.484375 15.921875 20.484375 11.0625 
Q 25.484375 6.203125 34.421875 6.203125 
Q 39.59375 6.203125 44.453125 7.46875 
Q 49.3125 8.734375 54.109375 11.28125 
L 54.109375 2.78125 
Q 49.265625 0.734375 44.1875 -0.34375 
Q 39.109375 -1.421875 33.890625 -1.421875 
Q 20.796875 -1.421875 13.15625 6.1875 
Q 5.515625 13.8125 5.515625 26.8125 
Q 5.515625 40.234375 12.765625 48.109375 
Q 20.015625 56 32.328125 56 
Q 43.359375 56 49.78125 48.890625 
Q 56.203125 41.796875 56.203125 29.59375 
z
M 47.21875 32.234375 
Q 47.125 39.59375 43.09375 43.984375 
Q 39.0625 48.390625 32.421875 48.390625 
Q 24.90625 48.390625 20.390625 44.140625 
Q 15.875 39.890625 15.1875 32.171875 
z
" id="DejaVuSans-101"/>
       <path d="M 54.890625 33.015625 
L 54.890625 0 
L 45.90625 0 
L 45.90625 32.71875 
Q 45.90625 40.484375 42.875 44.328125 
Q 39.84375 48.1875 33.796875 48.1875 
Q 26.515625 48.1875 22.3125 43.546875 
Q 18.109375 38.921875 18.109375 30.90625 
L 18.109375 0 
L 9.078125 0 
L 9.078125 54.6875 
L 18.109375 54.6875 
L 18.109375 46.1875 
Q 21.34375 51.125 25.703125 53.5625 
Q 30.078125 56 35.796875 56 
Q 45.21875 56 50.046875 50.171875 
Q 54.890625 44.34375 54.890625 33.015625 
z
" id="DejaVuSans-110"/>
       <path d="M 30.609375 48.390625 
Q 23.390625 48.390625 19.1875 42.75 
Q 14.984375 37.109375 14.984375 27.296875 
Q 14.984375 17.484375 19.15625 11.84375 
Q 23.34375 6.203125 30.609375 6.203125 
Q 37.796875 6.203125 41.984375 11.859375 
Q 46.1875 17.53125 46.1875 27.296875 
Q 46.1875 37.015625 41.984375 42.703125 
Q 37.796875 48.390625 30.609375 48.390625 
z
M 30.609375 56 
Q 42.328125 56 49.015625 48.375 
Q 55.71875 40.765625 55.71875 27.296875 
Q 55.71875 13.875 49.015625 6.21875 
Q 42.328125 -1.421875 30.609375 -1.421875 
Q 18.84375 -1.421875 12.171875 6.21875 
Q 5.515625 13.875 5.515625 27.296875 
Q 5.515625 40.765625 12.171875 48.375 
Q 18.84375 56 30.609375 56 
z
" id="DejaVuSans-111"/>
       <path d="M 52 44.1875 
Q 55.375 50.25 60.0625 53.125 
Q 64.75 56 71.09375 56 
Q 79.640625 56 84.28125 50.015625 
Q 88.921875 44.046875 88.921875 33.015625 
L 88.921875 0 
L 79.890625 0 
L 79.890625 32.71875 
Q 79.890625 40.578125 77.09375 44.375 
Q 74.3125 48.1875 68.609375 48.1875 
Q 61.625 48.1875 57.5625 43.546875 
Q 53.515625 38.921875 53.515625 30.90625 
L 53.515625 0 
L 44.484375 0 
L 44.484375 32.71875 
Q 44.484375 40.625 41.703125 44.40625 
Q 38.921875 48.1875 33.109375 48.1875 
Q 26.21875 48.1875 22.15625 43.53125 
Q 18.109375 38.875 18.109375 30.90625 
L 18.109375 0 
L 9.078125 0 
L 9.078125 54.6875 
L 18.109375 54.6875 
L 18.109375 46.1875 
Q 21.1875 51.21875 25.484375 53.609375 
Q 29.78125 56 35.6875 56 
Q 41.65625 56 45.828125 52.96875 
Q 50 49.953125 52 44.1875 
z
" id="DejaVuSans-109"/>
       <path id="DejaVuSans-32"/>
       <path d="M 41.109375 46.296875 
Q 39.59375 47.171875 37.8125 47.578125 
Q 36.03125 48 33.890625 48 
Q 26.265625 48 22.1875 43.046875 
Q 18.109375 38.09375 18.109375 28.8125 
L 18.109375 0 
L 9.078125 0 
L 9.078125 54.6875 
L 18.109375 54.6875 
L 18.109375 46.1875 
Q 20.953125 51.171875 25.484375 53.578125 
Q 30.03125 56 36.53125 56 
Q 37.453125 56 38.578125 55.875 
Q 39.703125 55.765625 41.0625 55.515625 
z
" id="DejaVuSans-114"/>
       <path d="M 34.28125 27.484375 
Q 23.390625 27.484375 19.1875 25 
Q 14.984375 22.515625 14.984375 16.5 
Q 14.984375 11.71875 18.140625 8.90625 
Q 21.296875 6.109375 26.703125 6.109375 
Q 34.1875 6.109375 38.703125 11.40625 
Q 43.21875 16.703125 43.21875 25.484375 
L 43.21875 27.484375 
z
M 52.203125 31.203125 
L 52.203125 0 
L 43.21875 0 
L 43.21875 8.296875 
Q 40.140625 3.328125 35.546875 0.953125 
Q 30.953125 -1.421875 24.3125 -1.421875 
Q 15.921875 -1.421875 10.953125 3.296875 
Q 6 8.015625 6 15.921875 
Q 6 25.140625 12.171875 29.828125 
Q 18.359375 34.515625 30.609375 34.515625 
L 43.21875 34.515625 
L 43.21875 35.40625 
Q 43.21875 41.609375 39.140625 45 
Q 35.0625 48.390625 27.6875 48.390625 
Q 23 48.390625 18.546875 47.265625 
Q 14.109375 46.140625 10.015625 43.890625 
L 10.015625 52.203125 
Q 14.9375 54.109375 19.578125 55.046875 
Q 24.21875 56 28.609375 56 
Q 40.484375 56 46.34375 49.84375 
Q 52.203125 43.703125 52.203125 31.203125 
z
" id="DejaVuSans-97"/>
       <path d="M 9.078125 75.984375 
L 18.109375 75.984375 
L 18.109375 31.109375 
L 44.921875 54.6875 
L 56.390625 54.6875 
L 27.390625 29.109375 
L 57.625 0 
L 45.90625 0 
L 18.109375 26.703125 
L 18.109375 0 
L 9.078125 0 
z
" id="DejaVuSans-107"/>
       <path d="M 31 75.875 
Q 24.46875 64.65625 21.28125 53.65625 
Q 18.109375 42.671875 18.109375 31.390625 
Q 18.109375 20.125 21.3125 9.0625 
Q 24.515625 -2 31 -13.1875 
L 23.1875 -13.1875 
Q 15.875 -1.703125 12.234375 9.375 
Q 8.59375 20.453125 8.59375 31.390625 
Q 8.59375 42.28125 12.203125 53.3125 
Q 15.828125 64.359375 23.1875 75.875 
z
" id="DejaVuSans-40"/>
       <path d="M 45.40625 46.390625 
L 45.40625 75.984375 
L 54.390625 75.984375 
L 54.390625 0 
L 45.40625 0 
L 45.40625 8.203125 
Q 42.578125 3.328125 38.25 0.953125 
Q 33.9375 -1.421875 27.875 -1.421875 
Q 17.96875 -1.421875 11.734375 6.484375 
Q 5.515625 14.40625 5.515625 27.296875 
Q 5.515625 40.1875 11.734375 48.09375 
Q 17.96875 56 27.875 56 
Q 33.9375 56 38.25 53.625 
Q 42.578125 51.265625 45.40625 46.390625 
z
M 14.796875 27.296875 
Q 14.796875 17.390625 18.875 11.75 
Q 22.953125 6.109375 30.078125 6.109375 
Q 37.203125 6.109375 41.296875 11.75 
Q 45.40625 17.390625 45.40625 27.296875 
Q 45.40625 37.203125 41.296875 42.84375 
Q 37.203125 48.484375 30.078125 48.484375 
Q 22.953125 48.484375 18.875 42.84375 
Q 14.796875 37.203125 14.796875 27.296875 
z
" id="DejaVuSans-100"/>
       <path d="M 48.6875 27.296875 
Q 48.6875 37.203125 44.609375 42.84375 
Q 40.53125 48.484375 33.40625 48.484375 
Q 26.265625 48.484375 22.1875 42.84375 
Q 18.109375 37.203125 18.109375 27.296875 
Q 18.109375 17.390625 22.1875 11.75 
Q 26.265625 6.109375 33.40625 6.109375 
Q 40.53125 6.109375 44.609375 11.75 
Q 48.6875 17.390625 48.6875 27.296875 
z
M 18.109375 46.390625 
Q 20.953125 51.265625 25.265625 53.625 
Q 29.59375 56 35.59375 56 
Q 45.5625 56 51.78125 48.09375 
Q 58.015625 40.1875 58.015625 27.296875 
Q 58.015625 14.40625 51.78125 6.484375 
Q 45.5625 -1.421875 35.59375 -1.421875 
Q 29.59375 -1.421875 25.265625 0.953125 
Q 20.953125 3.328125 18.109375 8.203125 
L 18.109375 0 
L 9.078125 0 
L 9.078125 75.984375 
L 18.109375 75.984375 
z
" id="DejaVuSans-98"/>
       <path d="M 32.171875 -5.078125 
Q 28.375 -14.84375 24.75 -17.8125 
Q 21.140625 -20.796875 15.09375 -20.796875 
L 7.90625 -20.796875 
L 7.90625 -13.28125 
L 13.1875 -13.28125 
Q 16.890625 -13.28125 18.9375 -11.515625 
Q 21 -9.765625 23.484375 -3.21875 
L 25.09375 0.875 
L 2.984375 54.6875 
L 12.5 54.6875 
L 29.59375 11.921875 
L 46.6875 54.6875 
L 56.203125 54.6875 
z
" id="DejaVuSans-121"/>
       <path d="M 18.3125 70.21875 
L 18.3125 54.6875 
L 36.8125 54.6875 
L 36.8125 47.703125 
L 18.3125 47.703125 
L 18.3125 18.015625 
Q 18.3125 11.328125 20.140625 9.421875 
Q 21.96875 7.515625 27.59375 7.515625 
L 36.8125 7.515625 
L 36.8125 0 
L 27.59375 0 
Q 17.1875 0 13.234375 3.875 
Q 9.28125 7.765625 9.28125 18.015625 
L 9.28125 47.703125 
L 2.6875 47.703125 
L 2.6875 54.6875 
L 9.28125 54.6875 
L 9.28125 70.21875 
z
" id="DejaVuSans-116"/>
       <path d="M 54.890625 33.015625 
L 54.890625 0 
L 45.90625 0 
L 45.90625 32.71875 
Q 45.90625 40.484375 42.875 44.328125 
Q 39.84375 48.1875 33.796875 48.1875 
Q 26.515625 48.1875 22.3125 43.546875 
Q 18.109375 38.921875 18.109375 30.90625 
L 18.109375 0 
L 9.078125 0 
L 9.078125 75.984375 
L 18.109375 75.984375 
L 18.109375 46.1875 
Q 21.34375 51.125 25.703125 53.5625 
Q 30.078125 56 35.796875 56 
Q 45.21875 56 50.046875 50.171875 
Q 54.890625 44.34375 54.890625 33.015625 
z
" id="DejaVuSans-104"/>
       <path d="M 44.28125 53.078125 
L 44.28125 44.578125 
Q 40.484375 46.53125 36.375 47.5 
Q 32.28125 48.484375 27.875 48.484375 
Q 21.1875 48.484375 17.84375 46.4375 
Q 14.5 44.390625 14.5 40.28125 
Q 14.5 37.15625 16.890625 35.375 
Q 19.28125 33.59375 26.515625 31.984375 
L 29.59375 31.296875 
Q 39.15625 29.25 43.1875 25.515625 
Q 47.21875 21.78125 47.21875 15.09375 
Q 47.21875 7.46875 41.1875 3.015625 
Q 35.15625 -1.421875 24.609375 -1.421875 
Q 20.21875 -1.421875 15.453125 -0.5625 
Q 10.6875 0.296875 5.421875 2 
L 5.421875 11.28125 
Q 10.40625 8.6875 15.234375 7.390625 
Q 20.0625 6.109375 24.8125 6.109375 
Q 31.15625 6.109375 34.5625 8.28125 
Q 37.984375 10.453125 37.984375 14.40625 
Q 37.984375 18.0625 35.515625 20.015625 
Q 33.0625 21.96875 24.703125 23.78125 
L 21.578125 24.515625 
Q 13.234375 26.265625 9.515625 29.90625 
Q 5.8125 33.546875 5.8125 39.890625 
Q 5.8125 47.609375 11.28125 51.796875 
Q 16.75 56 26.8125 56 
Q 31.78125 56 36.171875 55.265625 
Q 40.578125 54.546875 44.28125 53.078125 
z
" id="DejaVuSans-115"/>
       <path d="M 8.5 21.578125 
L 8.5 54.6875 
L 17.484375 54.6875 
L 17.484375 21.921875 
Q 17.484375 14.15625 20.5 10.265625 
Q 23.53125 6.390625 29.59375 6.390625 
Q 36.859375 6.390625 41.078125 11.03125 
Q 45.3125 15.671875 45.3125 23.6875 
L 45.3125 54.6875 
L 54.296875 54.6875 
L 54.296875 0 
L 45.3125 0 
L 45.3125 8.40625 
Q 42.046875 3.421875 37.71875 1 
Q 33.40625 -1.421875 27.6875 -1.421875 
Q 18.265625 -1.421875 13.375 4.4375 
Q 8.5 10.296875 8.5 21.578125 
z
M 31.109375 56 
z
" id="DejaVuSans-117"/>
       <path d="M 9.421875 75.984375 
L 18.40625 75.984375 
L 18.40625 0 
L 9.421875 0 
z
" id="DejaVuSans-108"/>
       <path d="M 8.015625 75.875 
L 15.828125 75.875 
Q 23.140625 64.359375 26.78125 53.3125 
Q 30.421875 42.28125 30.421875 31.390625 
Q 30.421875 20.453125 26.78125 9.375 
Q 23.140625 -1.703125 15.828125 -13.1875 
L 8.015625 -13.1875 
Q 14.5 -2 17.703125 9.0625 
Q 20.90625 20.125 20.90625 31.390625 
Q 20.90625 42.671875 17.703125 53.65625 
Q 14.5 64.65625 8.015625 75.875 
z
" id="DejaVuSans-41"/>
      </defs>
      <use xlink:href="#DejaVuSans-103"/>
      <use x="63.476562" xlink:href="#DejaVuSans-101"/>
      <use x="125" xlink:href="#DejaVuSans-110"/>
      <use x="188.378906" xlink:href="#DejaVuSans-111"/>
      <use x="249.560547" xlink:href="#DejaVuSans-109"/>
      <use x="346.972656" xlink:href="#DejaVuSans-101"/>
      <use x="408.496094" xlink:href="#DejaVuSans-32"/>
      <use x="440.283203" xlink:href="#DejaVuSans-114"/>
      <use x="481.396484" xlink:href="#DejaVuSans-97"/>
      <use x="542.675781" xlink:href="#DejaVuSans-110"/>
      <use x="606.054688" xlink:href="#DejaVuSans-107"/>
      <use x="663.964844" xlink:href="#DejaVuSans-32"/>
      <use x="695.751953" xlink:href="#DejaVuSans-40"/>
      <use x="734.765625" xlink:href="#DejaVuSans-111"/>
      <use x="795.947266" xlink:href="#DejaVuSans-114"/>
      <use x="835.310547" xlink:href="#DejaVuSans-100"/>
      <use x="898.787109" xlink:href="#DejaVuSans-101"/>
      <use x="960.310547" xlink:href="#DejaVuSans-114"/>
      <use x="999.173828" xlink:href="#DejaVuSans-101"/>
      <use x="1060.697266" xlink:href="#DejaVuSans-100"/>
      <use x="1124.173828" xlink:href="#DejaVuSans-32"/>
      <use x="1155.960938" xlink:href="#DejaVuSans-98"/>
      <use x="1219.4375" xlink:href="#DejaVuSans-121"/>
      <use x="1278.617188" xlink:href="#DejaVuSans-32"/>
      <use x="1310.404297" xlink:href="#DejaVuSans-103"/>
      <use x="1373.880859" xlink:href="#DejaVuSans-97"/>
      <use x="1435.160156" xlink:href="#DejaVuSans-116"/>
      <use x="1474.369141" xlink:href="#DejaVuSans-104"/>
      <use x="1537.748047" xlink:href="#DejaVuSans-101"/>
      <use x="1599.271484" xlink:href="#DejaVuSans-114"/>
      <use x="1640.384766" xlink:href="#DejaVuSans-32"/>
      <use x="1672.171875" xlink:href="#DejaVuSans-114"/>
      <use x="1711.035156" xlink:href="#DejaVuSans-101"/>
      <use x="1772.558594" xlink:href="#DejaVuSans-115"/>
      <use x="1824.658203" xlink:href="#DejaVuSans-117"/>
      <use x="1888.037109" xlink:href="#DejaVuSans-108"/>
      <use x="1915.820312" xlink:href="#DejaVuSans-116"/>
      <use x="1955.029297" xlink:href="#DejaVuSans-115"/>
      <use x="2007.128906" xlink:href="#DejaVuSans-41"/>
     </g>
    </g>
   </g>
   <g id="matplotlib.axis_2">
    <g id="ytick_1">
     <g id="line2d_9">
      <defs>
       <path d="M 0 0 
L -3.5 0 
" id="mc05c2ad313" style="stroke:#000000;stroke-width:0.8;"/>
      </defs>
      <g>
       <use style="stroke:#000000;stroke-width:0.8;" x="44.55" xlink:href="#mc05c2ad313" y="361.301628"/>
      </g>
     </g>
     <g id="text_10">
      <!-- 0 -->
      <g transform="translate(31.1875 365.100846)scale(0.1 -0.1)">
       <use xlink:href="#DejaVuSans-48"/>
      </g>
     </g>
    </g>
    <g id="ytick_2">
     <g id="line2d_10">
      <g>
       <use style="stroke:#000000;stroke-width:0.8;" x="44.55" xlink:href="#mc05c2ad313" y="292.310261"/>
      </g>
     </g>
     <g id="text_11">
      <!-- 2 -->
      <g transform="translate(31.1875 296.10948)scale(0.1 -0.1)">
       <use xlink:href="#DejaVuSans-50"/>
      </g>
     </g>
    </g>
    <g id="ytick_3">
     <g id="line2d_11">
      <g>
       <use style="stroke:#000000;stroke-width:0.8;" x="44.55" xlink:href="#mc05c2ad313" y="223.318894"/>
      </g>
     </g>
     <g id="text_12">
      <!-- 4 -->
      <g transform="translate(31.1875 227.118113)scale(0.1 -0.1)">
       <defs>
        <path d="M 37.796875 64.3125 
L 12.890625 25.390625 
L 37.796875 25.390625 
z
M 35.203125 72.90625 
L 47.609375 72.90625 
L 47.609375 25.390625 
L 58.015625 25.390625 
L 58.015625 17.1875 
L 47.609375 17.1875 
L 47.609375 0 
L 37.796875 0 
L 37.796875 17.1875 
L 4.890625 17.1875 
L 4.890625 26.703125 
z
" id="DejaVuSans-52"/>
       </defs>
       <use xlink:href="#DejaVuSans-52"/>
      </g>
     </g>
    </g>
    <g id="ytick_4">
     <g id="line2d_12">
      <g>
       <use style="stroke:#000000;stroke-width:0.8;" x="44.55" xlink:href="#mc05c2ad313" y="154.327528"/>
      </g>
     </g>
     <g id="text_13">
      <!-- 6 -->
      <g transform="translate(31.1875 158.126747)scale(0.1 -0.1)">
       <defs>
        <path d="M 33.015625 40.375 
Q 26.375 40.375 22.484375 35.828125 
Q 18.609375 31.296875 18.609375 23.390625 
Q 18.609375 15.53125 22.484375 10.953125 
Q 26.375 6.390625 33.015625 6.390625 
Q 39.65625 6.390625 43.53125 10.953125 
Q 47.40625 15.53125 47.40625 23.390625 
Q 47.40625 31.296875 43.53125 35.828125 
Q 39.65625 40.375 33.015625 40.375 
z
M 52.59375 71.296875 
L 52.59375 62.3125 
Q 48.875 64.0625 45.09375 64.984375 
Q 41.3125 65.921875 37.59375 65.921875 
Q 27.828125 65.921875 22.671875 59.328125 
Q 17.53125 52.734375 16.796875 39.40625 
Q 19.671875 43.65625 24.015625 45.921875 
Q 28.375 48.1875 33.59375 48.1875 
Q 44.578125 48.1875 50.953125 41.515625 
Q 57.328125 34.859375 57.328125 23.390625 
Q 57.328125 12.15625 50.6875 5.359375 
Q 44.046875 -1.421875 33.015625 -1.421875 
Q 20.359375 -1.421875 13.671875 8.265625 
Q 6.984375 17.96875 6.984375 36.375 
Q 6.984375 53.65625 15.1875 63.9375 
Q 23.390625 74.21875 37.203125 74.21875 
Q 40.921875 74.21875 44.703125 73.484375 
Q 48.484375 72.75 52.59375 71.296875 
z
" id="DejaVuSans-54"/>
       </defs>
       <use xlink:href="#DejaVuSans-54"/>
      </g>
     </g>
    </g>
    <g id="ytick_5">
     <g id="line2d_13">
      <g>
       <use style="stroke:#000000;stroke-width:0.8;" x="44.55" xlink:href="#mc05c2ad313" y="85.336161"/>
      </g>
     </g>
     <g id="text_14">
      <!-- 8 -->
      <g transform="translate(31.1875 89.13538)scale(0.1 -0.1)">
       <defs>
        <path d="M 31.78125 34.625 
Q 24.75 34.625 20.71875 30.859375 
Q 16.703125 27.09375 16.703125 20.515625 
Q 16.703125 13.921875 20.71875 10.15625 
Q 24.75 6.390625 31.78125 6.390625 
Q 38.8125 6.390625 42.859375 10.171875 
Q 46.921875 13.96875 46.921875 20.515625 
Q 46.921875 27.09375 42.890625 30.859375 
Q 38.875 34.625 31.78125 34.625 
z
M 21.921875 38.8125 
Q 15.578125 40.375 12.03125 44.71875 
Q 8.5 49.078125 8.5 55.328125 
Q 8.5 64.0625 14.71875 69.140625 
Q 20.953125 74.21875 31.78125 74.21875 
Q 42.671875 74.21875 48.875 69.140625 
Q 55.078125 64.0625 55.078125 55.328125 
Q 55.078125 49.078125 51.53125 44.71875 
Q 48 40.375 41.703125 38.8125 
Q 48.828125 37.15625 52.796875 32.3125 
Q 56.78125 27.484375 56.78125 20.515625 
Q 56.78125 9.90625 50.3125 4.234375 
Q 43.84375 -1.421875 31.78125 -1.421875 
Q 19.734375 -1.421875 13.25 4.234375 
Q 6.78125 9.90625 6.78125 20.515625 
Q 6.78125 27.484375 10.78125 32.3125 
Q 14.796875 37.15625 21.921875 38.8125 
z
M 18.3125 54.390625 
Q 18.3125 48.734375 21.84375 45.5625 
Q 25.390625 42.390625 31.78125 42.390625 
Q 38.140625 42.390625 41.71875 45.5625 
Q 45.3125 48.734375 45.3125 54.390625 
Q 45.3125 60.0625 41.71875 63.234375 
Q 38.140625 66.40625 31.78125 66.40625 
Q 25.390625 66.40625 21.84375 63.234375 
Q 18.3125 60.0625 18.3125 54.390625 
z
" id="DejaVuSans-56"/>
       </defs>
       <use xlink:href="#DejaVuSans-56"/>
      </g>
     </g>
    </g>
    <g id="ytick_6">
     <g id="line2d_14">
      <g>
       <use style="stroke:#000000;stroke-width:0.8;" x="44.55" xlink:href="#mc05c2ad313" y="16.344795"/>
      </g>
     </g>
     <g id="text_15">
      <!-- 10 -->
      <g transform="translate(24.825 20.144013)scale(0.1 -0.1)">
       <use xlink:href="#DejaVuSans-49"/>
       <use x="63.623047" xlink:href="#DejaVuSans-48"/>
      </g>
     </g>
    </g>
    <g id="text_16">
     <!-- number per genome (million) -->
     <g transform="translate(18.745312 274.069531)rotate(-90)scale(0.1 -0.1)">
      <defs>
       <path d="M 18.109375 8.203125 
L 18.109375 -20.796875 
L 9.078125 -20.796875 
L 9.078125 54.6875 
L 18.109375 54.6875 
L 18.109375 46.390625 
Q 20.953125 51.265625 25.265625 53.625 
Q 29.59375 56 35.59375 56 
Q 45.5625 56 51.78125 48.09375 
Q 58.015625 40.1875 58.015625 27.296875 
Q 58.015625 14.40625 51.78125 6.484375 
Q 45.5625 -1.421875 35.59375 -1.421875 
Q 29.59375 -1.421875 25.265625 0.953125 
Q 20.953125 3.328125 18.109375 8.203125 
z
M 48.6875 27.296875 
Q 48.6875 37.203125 44.609375 42.84375 
Q 40.53125 48.484375 33.40625 48.484375 
Q 26.265625 48.484375 22.1875 42.84375 
Q 18.109375 37.203125 18.109375 27.296875 
Q 18.109375 17.390625 22.1875 11.75 
Q 26.265625 6.109375 33.40625 6.109375 
Q 40.53125 6.109375 44.609375 11.75 
Q 48.6875 17.390625 48.6875 27.296875 
z
" id="DejaVuSans-112"/>
       <path d="M 9.421875 54.6875 
L 18.40625 54.6875 
L 18.40625 0 
L 9.421875 0 
z
M 9.421875 75.984375 
L 18.40625 75.984375 
L 18.40625 64.59375 
L 9.421875 64.59375 
z
" id="DejaVuSans-105"/>
      </defs>
      <use xlink:href="#DejaVuSans-110"/>
      <use x="63.378906" xlink:href="#DejaVuSans-117"/>
      <use x="126.757812" xlink:href="#DejaVuSans-109"/>
      <use x="224.169922" xlink:href="#DejaVuSans-98"/>
      <use x="287.646484" xlink:href="#DejaVuSans-101"/>
      <use x="349.169922" xlink:href="#DejaVuSans-114"/>
      <use x="390.283203" xlink:href="#DejaVuSans-32"/>
      <use x="422.070312" xlink:href="#DejaVuSans-112"/>
      <use x="485.546875" xlink:href="#DejaVuSans-101"/>
      <use x="547.070312" xlink:href="#DejaVuSans-114"/>
      <use x="588.183594" xlink:href="#DejaVuSans-32"/>
      <use x="619.970703" xlink:href="#DejaVuSans-103"/>
      <use x="683.447266" xlink:href="#DejaVuSans-101"/>
      <use x="744.970703" xlink:href="#DejaVuSans-110"/>
      <use x="808.349609" xlink:href="#DejaVuSans-111"/>
      <use x="869.53125" xlink:href="#DejaVuSans-109"/>
      <use x="966.943359" xlink:href="#DejaVuSans-101"/>
      <use x="1028.466797" xlink:href="#DejaVuSans-32"/>
      <use x="1060.253906" xlink:href="#DejaVuSans-40"/>
      <use x="1099.267578" xlink:href="#DejaVuSans-109"/>
      <use x="1196.679688" xlink:href="#DejaVuSans-105"/>
      <use x="1224.462891" xlink:href="#DejaVuSans-108"/>
      <use x="1252.246094" xlink:href="#DejaVuSans-108"/>
      <use x="1280.029297" xlink:href="#DejaVuSans-105"/>
      <use x="1307.8125" xlink:href="#DejaVuSans-111"/>
      <use x="1368.994141" xlink:href="#DejaVuSans-110"/>
      <use x="1432.373047" xlink:href="#DejaVuSans-41"/>
     </g>
    </g>
   </g>
   <g id="line2d_15">
    <defs>
     <path d="M 0 -3 
L -0.673542 -0.927051 
L -2.85317 -0.927051 
L -1.089814 0.354102 
L -1.763356 2.427051 
L -0 1.145898 
L 1.763356 2.427051 
L 1.089814 0.354102 
L 2.85317 -0.927051 
L 0.673542 -0.927051 
z
" id="m2e3a67ea5d" style="stroke:#0000ff;stroke-linejoin:bevel;"/>
    </defs>
    <g clip-path="url(#p6961972449)">
     <use style="fill:#0000ff;stroke:#0000ff;stroke-linejoin:bevel;" x="53.78125" xlink:href="#m2e3a67ea5d" y="28.045455"/>
     <use style="fill:#0000ff;stroke:#0000ff;stroke-linejoin:bevel;" x="72.24375" xlink:href="#m2e3a67ea5d" y="112.532041"/>
     <use style="fill:#0000ff;stroke:#0000ff;stroke-linejoin:bevel;" x="90.70625" xlink:href="#m2e3a67ea5d" y="114.813689"/>
     <use style="fill:#0000ff;stroke:#0000ff;stroke-linejoin:bevel;" x="109.16875" xlink:href="#m2e3a67ea5d" y="127.25535"/>
     <use style="fill:#0000ff;stroke:#0000ff;stroke-linejoin:bevel;" x="127.63125" xlink:href="#m2e3a67ea5d" y="138.198381"/>
     <use style="fill:#0000ff;stroke:#0000ff;stroke-linejoin:bevel;" x="146.09375" xlink:href="#m2e3a67ea5d" y="162.170639"/>
     <use style="fill:#0000ff;stroke:#0000ff;stroke-linejoin:bevel;" x="164.55625" xlink:href="#m2e3a67ea5d" y="162.904017"/>
     <use style="fill:#0000ff;stroke:#0000ff;stroke-linejoin:bevel;" x="183.01875" xlink:href="#m2e3a67ea5d" y="176.547198"/>
     <use style="fill:#0000ff;stroke:#0000ff;stroke-linejoin:bevel;" x="201.48125" xlink:href="#m2e3a67ea5d" y="179.973689"/>
     <use style="fill:#0000ff;stroke:#0000ff;stroke-linejoin:bevel;" x="219.94375" xlink:href="#m2e3a67ea5d" y="179.764783"/>
     <use style="fill:#0000ff;stroke:#0000ff;stroke-linejoin:bevel;" x="238.40625" xlink:href="#m2e3a67ea5d" y="186.707763"/>
     <use style="fill:#0000ff;stroke:#0000ff;stroke-linejoin:bevel;" x="256.86875" xlink:href="#m2e3a67ea5d" y="198.123834"/>
     <use style="fill:#0000ff;stroke:#0000ff;stroke-linejoin:bevel;" x="275.33125" xlink:href="#m2e3a67ea5d" y="192.768896"/>
     <use style="fill:#0000ff;stroke:#0000ff;stroke-linejoin:bevel;" x="293.79375" xlink:href="#m2e3a67ea5d" y="201.347386"/>
     <use style="fill:#0000ff;stroke:#0000ff;stroke-linejoin:bevel;" x="312.25625" xlink:href="#m2e3a67ea5d" y="202.881478"/>
     <use style="fill:#0000ff;stroke:#0000ff;stroke-linejoin:bevel;" x="330.71875" xlink:href="#m2e3a67ea5d" y="218.926318"/>
     <use style="fill:#0000ff;stroke:#0000ff;stroke-linejoin:bevel;" x="349.18125" xlink:href="#m2e3a67ea5d" y="223.173185"/>
     <use style="fill:#0000ff;stroke:#0000ff;stroke-linejoin:bevel;" x="367.64375" xlink:href="#m2e3a67ea5d" y="223.454635"/>
     <use style="fill:#0000ff;stroke:#0000ff;stroke-linejoin:bevel;" x="386.10625" xlink:href="#m2e3a67ea5d" y="229.744578"/>
     <use style="fill:#0000ff;stroke:#0000ff;stroke-linejoin:bevel;" x="404.56875" xlink:href="#m2e3a67ea5d" y="228.741685"/>
     <use style="fill:#0000ff;stroke:#0000ff;stroke-linejoin:bevel;" x="423.03125" xlink:href="#m2e3a67ea5d" y="249.67063"/>
     <use style="fill:#0000ff;stroke:#0000ff;stroke-linejoin:bevel;" x="441.49375" xlink:href="#m2e3a67ea5d" y="246.612208"/>
     <use style="fill:#0000ff;stroke:#0000ff;stroke-linejoin:bevel;" x="459.95625" xlink:href="#m2e3a67ea5d" y="257.203694"/>
     <use style="fill:#0000ff;stroke:#0000ff;stroke-linejoin:bevel;" x="478.41875" xlink:href="#m2e3a67ea5d" y="254.966166"/>
     <use style="fill:#0000ff;stroke:#0000ff;stroke-linejoin:bevel;" x="496.88125" xlink:href="#m2e3a67ea5d" y="263.887336"/>
     <use style="fill:#0000ff;stroke:#0000ff;stroke-linejoin:bevel;" x="515.34375" xlink:href="#m2e3a67ea5d" y="263.229952"/>
     <use style="fill:#0000ff;stroke:#0000ff;stroke-linejoin:bevel;" x="533.80625" xlink:href="#m2e3a67ea5d" y="260.195918"/>
     <use style="fill:#0000ff;stroke:#0000ff;stroke-linejoin:bevel;" x="552.26875" xlink:href="#m2e3a67ea5d" y="264.794883"/>
     <use style="fill:#0000ff;stroke:#0000ff;stroke-linejoin:bevel;" x="570.73125" xlink:href="#m2e3a67ea5d" y="269.414821"/>
     <use style="fill:#0000ff;stroke:#0000ff;stroke-linejoin:bevel;" x="589.19375" xlink:href="#m2e3a67ea5d" y="266.877801"/>
     <use style="fill:#0000ff;stroke:#0000ff;stroke-linejoin:bevel;" x="607.65625" xlink:href="#m2e3a67ea5d" y="268.344351"/>
     <use style="fill:#0000ff;stroke:#0000ff;stroke-linejoin:bevel;" x="626.11875" xlink:href="#m2e3a67ea5d" y="268.322653"/>
     <use style="fill:#0000ff;stroke:#0000ff;stroke-linejoin:bevel;" x="644.58125" xlink:href="#m2e3a67ea5d" y="319.110337"/>
     <use style="fill:#0000ff;stroke:#0000ff;stroke-linejoin:bevel;" x="663.04375" xlink:href="#m2e3a67ea5d" y="267.845922"/>
     <use style="fill:#0000ff;stroke:#0000ff;stroke-linejoin:bevel;" x="681.50625" xlink:href="#m2e3a67ea5d" y="274.68038"/>
     <use style="fill:#0000ff;stroke:#0000ff;stroke-linejoin:bevel;" x="699.96875" xlink:href="#m2e3a67ea5d" y="276.046995"/>
    </g>
   </g>
   <g id="line2d_16">
    <defs>
     <path d="M 0 3 
C 0.795609 3 1.55874 2.683901 2.12132 2.12132 
C 2.683901 1.55874 3 0.795609 3 0 
C 3 -0.795609 2.683901 -1.55874 2.12132 -2.12132 
C 1.55874 -2.683901 0.795609 -3 0 -3 
C -0.795609 -3 -1.55874 -2.683901 -2.12132 -2.12132 
C -2.683901 -1.55874 -3 -0.795609 -3 0 
C -3 0.795609 -2.683901 1.55874 -2.12132 2.12132 
C -1.55874 2.683901 -0.795609 3 0 3 
z
" id="m11c2a0ec64" style="stroke:#ff0000;"/>
    </defs>
    <g clip-path="url(#p6961972449)">
     <use style="fill:#ff0000;stroke:#ff0000;" x="53.78125" xlink:href="#m11c2a0ec64" y="39.698372"/>
     <use style="fill:#ff0000;stroke:#ff0000;" x="72.24375" xlink:href="#m11c2a0ec64" y="109.897088"/>
     <use style="fill:#ff0000;stroke:#ff0000;" x="90.70625" xlink:href="#m11c2a0ec64" y="118.486513"/>
     <use style="fill:#ff0000;stroke:#ff0000;" x="109.16875" xlink:href="#m11c2a0ec64" y="133.492135"/>
     <use style="fill:#ff0000;stroke:#ff0000;" x="127.63125" xlink:href="#m11c2a0ec64" y="143.185422"/>
     <use style="fill:#ff0000;stroke:#ff0000;" x="146.09375" xlink:href="#m11c2a0ec64" y="166.814965"/>
     <use style="fill:#ff0000;stroke:#ff0000;" x="164.55625" xlink:href="#m11c2a0ec64" y="174.266033"/>
     <use style="fill:#ff0000;stroke:#ff0000;" x="183.01875" xlink:href="#m11c2a0ec64" y="182.338023"/>
     <use style="fill:#ff0000;stroke:#ff0000;" x="201.48125" xlink:href="#m11c2a0ec64" y="183.062432"/>
     <use style="fill:#ff0000;stroke:#ff0000;" x="219.94375" xlink:href="#m11c2a0ec64" y="186.99494"/>
     <use style="fill:#ff0000;stroke:#ff0000;" x="238.40625" xlink:href="#m11c2a0ec64" y="190.685978"/>
     <use style="fill:#ff0000;stroke:#ff0000;" x="256.86875" xlink:href="#m11c2a0ec64" y="195.480878"/>
     <use style="fill:#ff0000;stroke:#ff0000;" x="275.33125" xlink:href="#m11c2a0ec64" y="197.309149"/>
     <use style="fill:#ff0000;stroke:#ff0000;" x="293.79375" xlink:href="#m11c2a0ec64" y="201.62111"/>
     <use style="fill:#ff0000;stroke:#ff0000;" x="312.25625" xlink:href="#m11c2a0ec64" y="204.8982"/>
     <use style="fill:#ff0000;stroke:#ff0000;" x="330.71875" xlink:href="#m11c2a0ec64" y="217.558115"/>
     <use style="fill:#ff0000;stroke:#ff0000;" x="349.18125" xlink:href="#m11c2a0ec64" y="225.59561"/>
     <use style="fill:#ff0000;stroke:#ff0000;" x="367.64375" xlink:href="#m11c2a0ec64" y="228.355264"/>
     <use style="fill:#ff0000;stroke:#ff0000;" x="386.10625" xlink:href="#m11c2a0ec64" y="231.080423"/>
     <use style="fill:#ff0000;stroke:#ff0000;" x="404.56875" xlink:href="#m11c2a0ec64" y="235.219905"/>
     <use style="fill:#ff0000;stroke:#ff0000;" x="423.03125" xlink:href="#m11c2a0ec64" y="249.294144"/>
     <use style="fill:#ff0000;stroke:#ff0000;" x="441.49375" xlink:href="#m11c2a0ec64" y="250.708467"/>
     <use style="fill:#ff0000;stroke:#ff0000;" x="459.95625" xlink:href="#m11c2a0ec64" y="259.090918"/>
     <use style="fill:#ff0000;stroke:#ff0000;" x="478.41875" xlink:href="#m11c2a0ec64" y="262.126538"/>
     <use style="fill:#ff0000;stroke:#ff0000;" x="496.88125" xlink:href="#m11c2a0ec64" y="262.574982"/>
     <use style="fill:#ff0000;stroke:#ff0000;" x="515.34375" xlink:href="#m11c2a0ec64" y="263.057922"/>
     <use style="fill:#ff0000;stroke:#ff0000;" x="533.80625" xlink:href="#m11c2a0ec64" y="265.438124"/>
     <use style="fill:#ff0000;stroke:#ff0000;" x="552.26875" xlink:href="#m11c2a0ec64" y="267.266395"/>
     <use style="fill:#ff0000;stroke:#ff0000;" x="570.73125" xlink:href="#m11c2a0ec64" y="268.128787"/>
     <use style="fill:#ff0000;stroke:#ff0000;" x="589.19375" xlink:href="#m11c2a0ec64" y="268.577231"/>
     <use style="fill:#ff0000;stroke:#ff0000;" x="607.65625" xlink:href="#m11c2a0ec64" y="268.887692"/>
     <use style="fill:#ff0000;stroke:#ff0000;" x="626.11875" xlink:href="#m11c2a0ec64" y="269.129162"/>
     <use style="fill:#ff0000;stroke:#ff0000;" x="644.58125" xlink:href="#m11c2a0ec64" y="270.233024"/>
     <use style="fill:#ff0000;stroke:#ff0000;" x="663.04375" xlink:href="#m11c2a0ec64" y="271.578355"/>
     <use style="fill:#ff0000;stroke:#ff0000;" x="681.50625" xlink:href="#m11c2a0ec64" y="274.510489"/>
     <use style="fill:#ff0000;stroke:#ff0000;" x="699.96875" xlink:href="#m11c2a0ec64" y="276.33876"/>
    </g>
   </g>
   <g id="line2d_17">
    <path clip-path="url(#p6961972449)" d="M 53.78125 372.954545 
L 72.24375 358.666675 
L 90.70625 364.974452 
L 109.16875 367.538413 
L 127.63125 366.288669 
L 146.09375 365.945954 
L 164.55625 372.663643 
L 183.01875 367.092453 
L 201.48125 364.390371 
L 219.94375 368.531785 
L 238.40625 365.279842 
L 256.86875 358.658672 
L 275.33125 365.841881 
L 293.79375 361.575351 
L 312.25625 363.318349 
L 330.71875 359.933425 
L 349.18125 363.724053 
L 367.64375 366.202257 
L 386.10625 362.637473 
L 404.56875 367.779848 
L 423.03125 360.925142 
L 441.49375 365.397887 
L 459.95625 363.188852 
L 478.41875 368.462 
L 496.88125 359.989274 
L 515.34375 361.129598 
L 533.80625 366.543833 
L 552.26875 363.77314 
L 570.73125 360.015594 
L 589.19375 363.001058 
L 607.65625 361.844969 
L 626.11875 362.108137 
L 644.58125 312.424315 
L 663.04375 365.034061 
L 681.50625 361.131736 
L 699.96875 361.593392 
" style="fill:none;stroke:#1f77b4;stroke-linecap:square;stroke-width:1.5;"/>
   </g>
   <g id="line2d_18">
    <path clip-path="url(#p6961972449)" d="M 53.78125 361.301628 
L 72.24375 361.301628 
L 90.70625 361.301628 
L 109.16875 361.301628 
L 127.63125 361.301628 
L 146.09375 361.301628 
L 164.55625 361.301628 
L 183.01875 361.301628 
L 201.48125 361.301628 
L 219.94375 361.301628 
L 238.40625 361.301628 
L 256.86875 361.301628 
L 275.33125 361.301628 
L 293.79375 361.301628 
L 312.25625 361.301628 
L 330.71875 361.301628 
L 349.18125 361.301628 
L 367.64375 361.301628 
L 386.10625 361.301628 
L 404.56875 361.301628 
L 423.03125 361.301628 
L 441.49375 361.301628 
L 459.95625 361.301628 
L 478.41875 361.301628 
L 496.88125 361.301628 
L 515.34375 361.301628 
L 533.80625 361.301628 
L 552.26875 361.301628 
L 570.73125 361.301628 
L 589.19375 361.301628 
L 607.65625 361.301628 
L 626.11875 361.301628 
L 644.58125 361.301628 
L 663.04375 361.301628 
L 681.50625 361.301628 
L 699.96875 361.301628 
" style="fill:none;stroke:#ff7f0e;stroke-dasharray:5.55,2.4;stroke-dashoffset:0;stroke-width:1.5;"/>
   </g>
   <g id="patch_3">
    <path d="M 44.55 390.2 
L 44.55 10.8 
" style="fill:none;stroke:#000000;stroke-linecap:square;stroke-linejoin:miter;stroke-width:0.8;"/>
   </g>
   <g id="patch_4">
    <path d="M 709.2 390.2 
L 709.2 10.8 
" style="fill:none;stroke:#000000;stroke-linecap:square;stroke-linejoin:miter;stroke-width:0.8;"/>
   </g>
   <g id="patch_5">
    <path d="M 44.55 390.2 
L 709.2 390.2 
" style="fill:none;stroke:#000000;stroke-linecap:square;stroke-linejoin:miter;stroke-width:0.8;"/>
   </g>
   <g id="patch_6">
    <path d="M 44.55 10.8 
L 709.2 10.8 
" style="fill:none;stroke:#000000;stroke-linecap:square;stroke-linejoin:miter;stroke-width:0.8;"/>
   </g>
   <g id="legend_1">
    <g id="patch_7">
     <path d="M 454.864063 62.834375 
L 702.2 62.834375 
Q 704.2 62.834375 704.2 60.834375 
L 704.2 17.8 
Q 704.2 15.8 702.2 15.8 
L 454.864063 15.8 
Q 452.864063 15.8 452.864063 17.8 
L 452.864063 60.834375 
Q 452.864063 62.834375 454.864063 62.834375 
z
" style="fill:#ffffff;opacity:0.8;stroke:#cccccc;stroke-linejoin:miter;"/>
    </g>
    <g id="line2d_19"/>
    <g id="line2d_20">
     <g>
      <use style="fill:#0000ff;stroke:#0000ff;stroke-linejoin:bevel;" x="466.864063" xlink:href="#m2e3a67ea5d" y="23.898438"/>
     </g>
    </g>
    <g id="text_17">
     <!-- genome bases covered by mapped reads -->
     <g transform="translate(484.864063 27.398438)scale(0.1 -0.1)">
      <defs>
       <path d="M 48.78125 52.59375 
L 48.78125 44.1875 
Q 44.96875 46.296875 41.140625 47.34375 
Q 37.3125 48.390625 33.40625 48.390625 
Q 24.65625 48.390625 19.8125 42.84375 
Q 14.984375 37.3125 14.984375 27.296875 
Q 14.984375 17.28125 19.8125 11.734375 
Q 24.65625 6.203125 33.40625 6.203125 
Q 37.3125 6.203125 41.140625 7.25 
Q 44.96875 8.296875 48.78125 10.40625 
L 48.78125 2.09375 
Q 45.015625 0.34375 40.984375 -0.53125 
Q 36.96875 -1.421875 32.421875 -1.421875 
Q 20.0625 -1.421875 12.78125 6.34375 
Q 5.515625 14.109375 5.515625 27.296875 
Q 5.515625 40.671875 12.859375 48.328125 
Q 20.21875 56 33.015625 56 
Q 37.15625 56 41.109375 55.140625 
Q 45.0625 54.296875 48.78125 52.59375 
z
" id="DejaVuSans-99"/>
       <path d="M 2.984375 54.6875 
L 12.5 54.6875 
L 29.59375 8.796875 
L 46.6875 54.6875 
L 56.203125 54.6875 
L 35.6875 0 
L 23.484375 0 
z
" id="DejaVuSans-118"/>
      </defs>
      <use xlink:href="#DejaVuSans-103"/>
      <use x="63.476562" xlink:href="#DejaVuSans-101"/>
      <use x="125" xlink:href="#DejaVuSans-110"/>
      <use x="188.378906" xlink:href="#DejaVuSans-111"/>
      <use x="249.560547" xlink:href="#DejaVuSans-109"/>
      <use x="346.972656" xlink:href="#DejaVuSans-101"/>
      <use x="408.496094" xlink:href="#DejaVuSans-32"/>
      <use x="440.283203" xlink:href="#DejaVuSans-98"/>
      <use x="503.759766" xlink:href="#DejaVuSans-97"/>
      <use x="565.039062" xlink:href="#DejaVuSans-115"/>
      <use x="617.138672" xlink:href="#DejaVuSans-101"/>
      <use x="678.662109" xlink:href="#DejaVuSans-115"/>
      <use x="730.761719" xlink:href="#DejaVuSans-32"/>
      <use x="762.548828" xlink:href="#DejaVuSans-99"/>
      <use x="817.529297" xlink:href="#DejaVuSans-111"/>
      <use x="878.710938" xlink:href="#DejaVuSans-118"/>
      <use x="937.890625" xlink:href="#DejaVuSans-101"/>
      <use x="999.414062" xlink:href="#DejaVuSans-114"/>
      <use x="1038.277344" xlink:href="#DejaVuSans-101"/>
      <use x="1099.800781" xlink:href="#DejaVuSans-100"/>
      <use x="1163.277344" xlink:href="#DejaVuSans-32"/>
      <use x="1195.064453" xlink:href="#DejaVuSans-98"/>
      <use x="1258.541016" xlink:href="#DejaVuSans-121"/>
      <use x="1317.720703" xlink:href="#DejaVuSans-32"/>
      <use x="1349.507812" xlink:href="#DejaVuSans-109"/>
      <use x="1446.919922" xlink:href="#DejaVuSans-97"/>
      <use x="1508.199219" xlink:href="#DejaVuSans-112"/>
      <use x="1571.675781" xlink:href="#DejaVuSans-112"/>
      <use x="1635.152344" xlink:href="#DejaVuSans-101"/>
      <use x="1696.675781" xlink:href="#DejaVuSans-100"/>
      <use x="1760.152344" xlink:href="#DejaVuSans-32"/>
      <use x="1791.939453" xlink:href="#DejaVuSans-114"/>
      <use x="1830.802734" xlink:href="#DejaVuSans-101"/>
      <use x="1892.326172" xlink:href="#DejaVuSans-97"/>
      <use x="1953.605469" xlink:href="#DejaVuSans-100"/>
      <use x="2017.082031" xlink:href="#DejaVuSans-115"/>
     </g>
    </g>
    <g id="line2d_21"/>
    <g id="line2d_22">
     <g>
      <use style="fill:#ff0000;stroke:#ff0000;" x="466.864063" xlink:href="#m11c2a0ec64" y="38.576563"/>
     </g>
    </g>
    <g id="text_18">
     <!-- remaining genome hashes in metagenome -->
     <g transform="translate(484.864063 42.076563)scale(0.1 -0.1)">
      <use xlink:href="#DejaVuSans-114"/>
      <use x="38.863281" xlink:href="#DejaVuSans-101"/>
      <use x="100.386719" xlink:href="#DejaVuSans-109"/>
      <use x="197.798828" xlink:href="#DejaVuSans-97"/>
      <use x="259.078125" xlink:href="#DejaVuSans-105"/>
      <use x="286.861328" xlink:href="#DejaVuSans-110"/>
      <use x="350.240234" xlink:href="#DejaVuSans-105"/>
      <use x="378.023438" xlink:href="#DejaVuSans-110"/>
      <use x="441.402344" xlink:href="#DejaVuSans-103"/>
      <use x="504.878906" xlink:href="#DejaVuSans-32"/>
      <use x="536.666016" xlink:href="#DejaVuSans-103"/>
      <use x="600.142578" xlink:href="#DejaVuSans-101"/>
      <use x="661.666016" xlink:href="#DejaVuSans-110"/>
      <use x="725.044922" xlink:href="#DejaVuSans-111"/>
      <use x="786.226562" xlink:href="#DejaVuSans-109"/>
      <use x="883.638672" xlink:href="#DejaVuSans-101"/>
      <use x="945.162109" xlink:href="#DejaVuSans-32"/>
      <use x="976.949219" xlink:href="#DejaVuSans-104"/>
      <use x="1040.328125" xlink:href="#DejaVuSans-97"/>
      <use x="1101.607422" xlink:href="#DejaVuSans-115"/>
      <use x="1153.707031" xlink:href="#DejaVuSans-104"/>
      <use x="1217.085938" xlink:href="#DejaVuSans-101"/>
      <use x="1278.609375" xlink:href="#DejaVuSans-115"/>
      <use x="1330.708984" xlink:href="#DejaVuSans-32"/>
      <use x="1362.496094" xlink:href="#DejaVuSans-105"/>
      <use x="1390.279297" xlink:href="#DejaVuSans-110"/>
      <use x="1453.658203" xlink:href="#DejaVuSans-32"/>
      <use x="1485.445312" xlink:href="#DejaVuSans-109"/>
      <use x="1582.857422" xlink:href="#DejaVuSans-101"/>
      <use x="1644.380859" xlink:href="#DejaVuSans-116"/>
      <use x="1683.589844" xlink:href="#DejaVuSans-97"/>
      <use x="1744.869141" xlink:href="#DejaVuSans-103"/>
      <use x="1808.345703" xlink:href="#DejaVuSans-101"/>
      <use x="1869.869141" xlink:href="#DejaVuSans-110"/>
      <use x="1933.248047" xlink:href="#DejaVuSans-111"/>
      <use x="1994.429688" xlink:href="#DejaVuSans-109"/>
      <use x="2091.841797" xlink:href="#DejaVuSans-101"/>
     </g>
    </g>
    <g id="line2d_23">
     <path d="M 456.864063 53.254687 
L 476.864063 53.254687 
" style="fill:none;stroke:#1f77b4;stroke-linecap:square;stroke-width:1.5;"/>
    </g>
    <g id="line2d_24"/>
    <g id="text_19">
     <!-- difference b/t covered bp and hashes -->
     <g transform="translate(484.864063 56.754687)scale(0.1 -0.1)">
      <defs>
       <path d="M 37.109375 75.984375 
L 37.109375 68.5 
L 28.515625 68.5 
Q 23.6875 68.5 21.796875 66.546875 
Q 19.921875 64.59375 19.921875 59.515625 
L 19.921875 54.6875 
L 34.71875 54.6875 
L 34.71875 47.703125 
L 19.921875 47.703125 
L 19.921875 0 
L 10.890625 0 
L 10.890625 47.703125 
L 2.296875 47.703125 
L 2.296875 54.6875 
L 10.890625 54.6875 
L 10.890625 58.5 
Q 10.890625 67.625 15.140625 71.796875 
Q 19.390625 75.984375 28.609375 75.984375 
z
" id="DejaVuSans-102"/>
       <path d="M 25.390625 72.90625 
L 33.6875 72.90625 
L 8.296875 -9.28125 
L 0 -9.28125 
z
" id="DejaVuSans-47"/>
      </defs>
      <use xlink:href="#DejaVuSans-100"/>
      <use x="63.476562" xlink:href="#DejaVuSans-105"/>
      <use x="91.259766" xlink:href="#DejaVuSans-102"/>
      <use x="126.464844" xlink:href="#DejaVuSans-102"/>
      <use x="161.669922" xlink:href="#DejaVuSans-101"/>
      <use x="223.193359" xlink:href="#DejaVuSans-114"/>
      <use x="262.056641" xlink:href="#DejaVuSans-101"/>
      <use x="323.580078" xlink:href="#DejaVuSans-110"/>
      <use x="386.958984" xlink:href="#DejaVuSans-99"/>
      <use x="441.939453" xlink:href="#DejaVuSans-101"/>
      <use x="503.462891" xlink:href="#DejaVuSans-32"/>
      <use x="535.25" xlink:href="#DejaVuSans-98"/>
      <use x="598.726562" xlink:href="#DejaVuSans-47"/>
      <use x="632.417969" xlink:href="#DejaVuSans-116"/>
      <use x="671.626953" xlink:href="#DejaVuSans-32"/>
      <use x="703.414062" xlink:href="#DejaVuSans-99"/>
      <use x="758.394531" xlink:href="#DejaVuSans-111"/>
      <use x="819.576172" xlink:href="#DejaVuSans-118"/>
      <use x="878.755859" xlink:href="#DejaVuSans-101"/>
      <use x="940.279297" xlink:href="#DejaVuSans-114"/>
      <use x="979.142578" xlink:href="#DejaVuSans-101"/>
      <use x="1040.666016" xlink:href="#DejaVuSans-100"/>
      <use x="1104.142578" xlink:href="#DejaVuSans-32"/>
      <use x="1135.929688" xlink:href="#DejaVuSans-98"/>
      <use x="1199.40625" xlink:href="#DejaVuSans-112"/>
      <use x="1262.882812" xlink:href="#DejaVuSans-32"/>
      <use x="1294.669922" xlink:href="#DejaVuSans-97"/>
      <use x="1355.949219" xlink:href="#DejaVuSans-110"/>
      <use x="1419.328125" xlink:href="#DejaVuSans-100"/>
      <use x="1482.804688" xlink:href="#DejaVuSans-32"/>
      <use x="1514.591797" xlink:href="#DejaVuSans-104"/>
      <use x="1577.970703" xlink:href="#DejaVuSans-97"/>
      <use x="1639.25" xlink:href="#DejaVuSans-115"/>
      <use x="1691.349609" xlink:href="#DejaVuSans-104"/>
      <use x="1754.728516" xlink:href="#DejaVuSans-101"/>
      <use x="1816.251953" xlink:href="#DejaVuSans-115"/>
     </g>
    </g>
   </g>
  </g>
 </g>
 <defs>
  <clipPath id="p6961972449">
   <rect height="379.4" width="664.65" x="44.55" y="10.8"/>
  </clipPath>
 </defs>
</svg>
