<?xml version="1.0" encoding="utf-8" standalone="no"?>
<!DOCTYPE svg PUBLIC "-//W3C//DTD SVG 1.1//EN"
  "http://www.w3.org/Graphics/SVG/1.1/DTD/svg11.dtd">
<svg height="1296pt" version="1.1" viewBox="0 0 1296 1296" width="1296pt" xmlns="http://www.w3.org/2000/svg" xmlns:xlink="http://www.w3.org/1999/xlink">
 <metadata>
  <rdf:RDF xmlns:cc="http://creativecommons.org/ns#" xmlns:dc="http://purl.org/dc/elements/1.1/" xmlns:rdf="http://www.w3.org/1999/02/22-rdf-syntax-ns#">
   <cc:Work>
    <dc:type rdf:resource="http://purl.org/dc/dcmitype/StillImage"/>
    <dc:date>2021-10-20T06:27:13.212326</dc:date>
    <dc:format>image/svg+xml</dc:format>
    <dc:creator>
     <cc:Agent>
      <dc:title>Matplotlib v3.4.3, https://matplotlib.org/</dc:title>
     </cc:Agent>
    </dc:creator>
   </cc:Work>
  </rdf:RDF>
 </metadata>
 <defs>
  <style type="text/css">*{stroke-linecap:butt;stroke-linejoin:round;}</style>
 </defs>
 <g id="figure_1">
  <g id="patch_1">
   <path d="M 0 1296 
L 1296 1296 
L 1296 0 
L 0 0 
z
" style="fill:#ffffff;"/>
  </g>
  <g id="axes_1">
   <g id="patch_2">
    <path d="M 64.381875 1249.54 
L 1283.04 1249.54 
L 1283.04 16.561879 
L 64.381875 16.561879 
z
" style="fill:#eaeaf2;"/>
   </g>
   <g id="matplotlib.axis_1">
    <g id="xtick_1">
     <g id="text_1">
      <!-- 21 -->
      <g style="fill:#262626;" transform="translate(261.374531 1266.913594)scale(0.11 -0.11)">
       <defs>
        <path d="M 3222 541 
L 3222 0 
L 194 0 
Q 188 203 259 391 
Q 375 700 629 1000 
Q 884 1300 1366 1694 
Q 2113 2306 2375 2664 
Q 2638 3022 2638 3341 
Q 2638 3675 2398 3904 
Q 2159 4134 1775 4134 
Q 1369 4134 1125 3890 
Q 881 3647 878 3216 
L 300 3275 
Q 359 3922 746 4261 
Q 1134 4600 1788 4600 
Q 2447 4600 2831 4234 
Q 3216 3869 3216 3328 
Q 3216 3053 3103 2787 
Q 2991 2522 2730 2228 
Q 2469 1934 1863 1422 
Q 1356 997 1212 845 
Q 1069 694 975 541 
L 3222 541 
z
" id="ArialMT-32" transform="scale(0.015625)"/>
        <path d="M 2384 0 
L 1822 0 
L 1822 3584 
Q 1619 3391 1289 3197 
Q 959 3003 697 2906 
L 697 3450 
Q 1169 3672 1522 3987 
Q 1875 4303 2022 4600 
L 2384 4600 
L 2384 0 
z
" id="ArialMT-31" transform="scale(0.015625)"/>
       </defs>
       <use xlink:href="#ArialMT-32"/>
       <use x="55.615234" xlink:href="#ArialMT-31"/>
      </g>
     </g>
    </g>
    <g id="xtick_2">
     <g id="text_2">
      <!-- 31 -->
      <g style="fill:#262626;" transform="translate(667.593906 1266.913594)scale(0.11 -0.11)">
       <defs>
        <path d="M 269 1209 
L 831 1284 
Q 928 806 1161 595 
Q 1394 384 1728 384 
Q 2125 384 2398 659 
Q 2672 934 2672 1341 
Q 2672 1728 2419 1979 
Q 2166 2231 1775 2231 
Q 1616 2231 1378 2169 
L 1441 2663 
Q 1497 2656 1531 2656 
Q 1891 2656 2178 2843 
Q 2466 3031 2466 3422 
Q 2466 3731 2256 3934 
Q 2047 4138 1716 4138 
Q 1388 4138 1169 3931 
Q 950 3725 888 3313 
L 325 3413 
Q 428 3978 793 4289 
Q 1159 4600 1703 4600 
Q 2078 4600 2393 4439 
Q 2709 4278 2876 4000 
Q 3044 3722 3044 3409 
Q 3044 3113 2884 2869 
Q 2725 2625 2413 2481 
Q 2819 2388 3044 2092 
Q 3269 1797 3269 1353 
Q 3269 753 2831 336 
Q 2394 -81 1725 -81 
Q 1122 -81 723 278 
Q 325 638 269 1209 
z
" id="ArialMT-33" transform="scale(0.015625)"/>
       </defs>
       <use xlink:href="#ArialMT-33"/>
       <use x="55.615234" xlink:href="#ArialMT-31"/>
      </g>
     </g>
    </g>
    <g id="xtick_3">
     <g id="text_3">
      <!-- 51 -->
      <g style="fill:#262626;" transform="translate(1073.813281 1266.913594)scale(0.11 -0.11)">
       <defs>
        <path d="M 266 1200 
L 856 1250 
Q 922 819 1161 601 
Q 1400 384 1738 384 
Q 2144 384 2425 690 
Q 2706 997 2706 1503 
Q 2706 1984 2436 2262 
Q 2166 2541 1728 2541 
Q 1456 2541 1237 2417 
Q 1019 2294 894 2097 
L 366 2166 
L 809 4519 
L 3088 4519 
L 3088 3981 
L 1259 3981 
L 1013 2750 
Q 1425 3038 1878 3038 
Q 2478 3038 2890 2622 
Q 3303 2206 3303 1553 
Q 3303 931 2941 478 
Q 2500 -78 1738 -78 
Q 1113 -78 717 272 
Q 322 622 266 1200 
z
" id="ArialMT-35" transform="scale(0.015625)"/>
       </defs>
       <use xlink:href="#ArialMT-35"/>
       <use x="55.615234" xlink:href="#ArialMT-31"/>
      </g>
     </g>
    </g>
    <g id="text_4">
     <!-- k -->
     <g style="fill:#262626;" transform="translate(670.710938 1281.689219)scale(0.12 -0.12)">
      <defs>
       <path d="M 425 0 
L 425 4581 
L 988 4581 
L 988 1969 
L 2319 3319 
L 3047 3319 
L 1778 2088 
L 3175 0 
L 2481 0 
L 1384 1697 
L 988 1316 
L 988 0 
L 425 0 
z
" id="ArialMT-6b" transform="scale(0.015625)"/>
      </defs>
      <use xlink:href="#ArialMT-6b"/>
     </g>
    </g>
   </g>
   <g id="matplotlib.axis_2">
    <g id="ytick_1">
     <g id="line2d_1">
      <path clip-path="url(#p5b398dfd96)" d="M 64.381875 1128.72455 
L 1283.04 1128.72455 
" style="fill:none;stroke:#ffffff;stroke-linecap:round;"/>
     </g>
     <g id="text_5">
      <!-- −0.08 -->
      <g style="fill:#262626;" transform="translate(27.050156 1132.661346)scale(0.11 -0.11)">
       <defs>
        <path d="M 3381 1997 
L 356 1997 
L 356 2522 
L 3381 2522 
L 3381 1997 
z
" id="ArialMT-2212" transform="scale(0.015625)"/>
        <path d="M 266 2259 
Q 266 3072 433 3567 
Q 600 4063 929 4331 
Q 1259 4600 1759 4600 
Q 2128 4600 2406 4451 
Q 2684 4303 2865 4023 
Q 3047 3744 3150 3342 
Q 3253 2941 3253 2259 
Q 3253 1453 3087 958 
Q 2922 463 2592 192 
Q 2263 -78 1759 -78 
Q 1097 -78 719 397 
Q 266 969 266 2259 
z
M 844 2259 
Q 844 1131 1108 757 
Q 1372 384 1759 384 
Q 2147 384 2411 759 
Q 2675 1134 2675 2259 
Q 2675 3391 2411 3762 
Q 2147 4134 1753 4134 
Q 1366 4134 1134 3806 
Q 844 3388 844 2259 
z
" id="ArialMT-30" transform="scale(0.015625)"/>
        <path d="M 581 0 
L 581 641 
L 1222 641 
L 1222 0 
L 581 0 
z
" id="ArialMT-2e" transform="scale(0.015625)"/>
        <path d="M 1131 2484 
Q 781 2613 612 2850 
Q 444 3088 444 3419 
Q 444 3919 803 4259 
Q 1163 4600 1759 4600 
Q 2359 4600 2725 4251 
Q 3091 3903 3091 3403 
Q 3091 3084 2923 2848 
Q 2756 2613 2416 2484 
Q 2838 2347 3058 2040 
Q 3278 1734 3278 1309 
Q 3278 722 2862 322 
Q 2447 -78 1769 -78 
Q 1091 -78 675 323 
Q 259 725 259 1325 
Q 259 1772 486 2073 
Q 713 2375 1131 2484 
z
M 1019 3438 
Q 1019 3113 1228 2906 
Q 1438 2700 1772 2700 
Q 2097 2700 2305 2904 
Q 2513 3109 2513 3406 
Q 2513 3716 2298 3927 
Q 2084 4138 1766 4138 
Q 1444 4138 1231 3931 
Q 1019 3725 1019 3438 
z
M 838 1322 
Q 838 1081 952 856 
Q 1066 631 1291 507 
Q 1516 384 1775 384 
Q 2178 384 2440 643 
Q 2703 903 2703 1303 
Q 2703 1709 2433 1975 
Q 2163 2241 1756 2241 
Q 1359 2241 1098 1978 
Q 838 1716 838 1322 
z
" id="ArialMT-38" transform="scale(0.015625)"/>
       </defs>
       <use xlink:href="#ArialMT-2212"/>
       <use x="58.398438" xlink:href="#ArialMT-30"/>
       <use x="114.013672" xlink:href="#ArialMT-2e"/>
       <use x="141.796875" xlink:href="#ArialMT-30"/>
       <use x="197.412109" xlink:href="#ArialMT-38"/>
      </g>
     </g>
    </g>
    <g id="ytick_2">
     <g id="line2d_2">
      <path clip-path="url(#p5b398dfd96)" d="M 64.381875 969.915835 
L 1283.04 969.915835 
" style="fill:none;stroke:#ffffff;stroke-linecap:round;"/>
     </g>
     <g id="text_6">
      <!-- −0.06 -->
      <g style="fill:#262626;" transform="translate(27.050156 973.852632)scale(0.11 -0.11)">
       <defs>
        <path d="M 3184 3459 
L 2625 3416 
Q 2550 3747 2413 3897 
Q 2184 4138 1850 4138 
Q 1581 4138 1378 3988 
Q 1113 3794 959 3422 
Q 806 3050 800 2363 
Q 1003 2672 1297 2822 
Q 1591 2972 1913 2972 
Q 2475 2972 2870 2558 
Q 3266 2144 3266 1488 
Q 3266 1056 3080 686 
Q 2894 316 2569 119 
Q 2244 -78 1831 -78 
Q 1128 -78 684 439 
Q 241 956 241 2144 
Q 241 3472 731 4075 
Q 1159 4600 1884 4600 
Q 2425 4600 2770 4297 
Q 3116 3994 3184 3459 
z
M 888 1484 
Q 888 1194 1011 928 
Q 1134 663 1356 523 
Q 1578 384 1822 384 
Q 2178 384 2434 671 
Q 2691 959 2691 1453 
Q 2691 1928 2437 2201 
Q 2184 2475 1800 2475 
Q 1419 2475 1153 2201 
Q 888 1928 888 1484 
z
" id="ArialMT-36" transform="scale(0.015625)"/>
       </defs>
       <use xlink:href="#ArialMT-2212"/>
       <use x="58.398438" xlink:href="#ArialMT-30"/>
       <use x="114.013672" xlink:href="#ArialMT-2e"/>
       <use x="141.796875" xlink:href="#ArialMT-30"/>
       <use x="197.412109" xlink:href="#ArialMT-36"/>
      </g>
     </g>
    </g>
    <g id="ytick_3">
     <g id="line2d_3">
      <path clip-path="url(#p5b398dfd96)" d="M 64.381875 811.107121 
L 1283.04 811.107121 
" style="fill:none;stroke:#ffffff;stroke-linecap:round;"/>
     </g>
     <g id="text_7">
      <!-- −0.04 -->
      <g style="fill:#262626;" transform="translate(27.050156 815.043918)scale(0.11 -0.11)">
       <defs>
        <path d="M 2069 0 
L 2069 1097 
L 81 1097 
L 81 1613 
L 2172 4581 
L 2631 4581 
L 2631 1613 
L 3250 1613 
L 3250 1097 
L 2631 1097 
L 2631 0 
L 2069 0 
z
M 2069 1613 
L 2069 3678 
L 634 1613 
L 2069 1613 
z
" id="ArialMT-34" transform="scale(0.015625)"/>
       </defs>
       <use xlink:href="#ArialMT-2212"/>
       <use x="58.398438" xlink:href="#ArialMT-30"/>
       <use x="114.013672" xlink:href="#ArialMT-2e"/>
       <use x="141.796875" xlink:href="#ArialMT-30"/>
       <use x="197.412109" xlink:href="#ArialMT-34"/>
      </g>
     </g>
    </g>
    <g id="ytick_4">
     <g id="line2d_4">
      <path clip-path="url(#p5b398dfd96)" d="M 64.381875 652.298407 
L 1283.04 652.298407 
" style="fill:none;stroke:#ffffff;stroke-linecap:round;"/>
     </g>
     <g id="text_8">
      <!-- −0.02 -->
      <g style="fill:#262626;" transform="translate(27.050156 656.235203)scale(0.11 -0.11)">
       <use xlink:href="#ArialMT-2212"/>
       <use x="58.398438" xlink:href="#ArialMT-30"/>
       <use x="114.013672" xlink:href="#ArialMT-2e"/>
       <use x="141.796875" xlink:href="#ArialMT-30"/>
       <use x="197.412109" xlink:href="#ArialMT-32"/>
      </g>
     </g>
    </g>
    <g id="ytick_5">
     <g id="line2d_5">
      <path clip-path="url(#p5b398dfd96)" d="M 64.381875 493.489692 
L 1283.04 493.489692 
" style="fill:none;stroke:#ffffff;stroke-linecap:round;"/>
     </g>
     <g id="text_9">
      <!-- 0.00 -->
      <g style="fill:#262626;" transform="translate(33.474844 497.426489)scale(0.11 -0.11)">
       <use xlink:href="#ArialMT-30"/>
       <use x="55.615234" xlink:href="#ArialMT-2e"/>
       <use x="83.398438" xlink:href="#ArialMT-30"/>
       <use x="139.013672" xlink:href="#ArialMT-30"/>
      </g>
     </g>
    </g>
    <g id="ytick_6">
     <g id="line2d_6">
      <path clip-path="url(#p5b398dfd96)" d="M 64.381875 334.680978 
L 1283.04 334.680978 
" style="fill:none;stroke:#ffffff;stroke-linecap:round;"/>
     </g>
     <g id="text_10">
      <!-- 0.02 -->
      <g style="fill:#262626;" transform="translate(33.474844 338.617775)scale(0.11 -0.11)">
       <use xlink:href="#ArialMT-30"/>
       <use x="55.615234" xlink:href="#ArialMT-2e"/>
       <use x="83.398438" xlink:href="#ArialMT-30"/>
       <use x="139.013672" xlink:href="#ArialMT-32"/>
      </g>
     </g>
    </g>
    <g id="ytick_7">
     <g id="line2d_7">
      <path clip-path="url(#p5b398dfd96)" d="M 64.381875 175.872264 
L 1283.04 175.872264 
" style="fill:none;stroke:#ffffff;stroke-linecap:round;"/>
     </g>
     <g id="text_11">
      <!-- 0.04 -->
      <g style="fill:#262626;" transform="translate(33.474844 179.809061)scale(0.11 -0.11)">
       <use xlink:href="#ArialMT-30"/>
       <use x="55.615234" xlink:href="#ArialMT-2e"/>
       <use x="83.398438" xlink:href="#ArialMT-30"/>
       <use x="139.013672" xlink:href="#ArialMT-34"/>
      </g>
     </g>
    </g>
    <g id="ytick_8">
     <g id="line2d_8">
      <path clip-path="url(#p5b398dfd96)" d="M 64.381875 17.063549 
L 1283.04 17.063549 
" style="fill:none;stroke:#ffffff;stroke-linecap:round;"/>
     </g>
     <g id="text_12">
      <!-- 0.06 -->
      <g style="fill:#262626;" transform="translate(33.474844 21.000346)scale(0.11 -0.11)">
       <use xlink:href="#ArialMT-30"/>
       <use x="55.615234" xlink:href="#ArialMT-2e"/>
       <use x="83.398438" xlink:href="#ArialMT-30"/>
       <use x="139.013672" xlink:href="#ArialMT-36"/>
      </g>
     </g>
    </g>
    <g id="text_13">
     <!-- Difference to ground truth -->
     <g style="fill:#262626;" transform="translate(20.524531 700.979377)rotate(-90)scale(0.12 -0.12)">
      <defs>
       <path d="M 494 0 
L 494 4581 
L 2072 4581 
Q 2606 4581 2888 4516 
Q 3281 4425 3559 4188 
Q 3922 3881 4101 3404 
Q 4281 2928 4281 2316 
Q 4281 1794 4159 1391 
Q 4038 988 3847 723 
Q 3656 459 3429 307 
Q 3203 156 2883 78 
Q 2563 0 2147 0 
L 494 0 
z
M 1100 541 
L 2078 541 
Q 2531 541 2789 625 
Q 3047 709 3200 863 
Q 3416 1078 3536 1442 
Q 3656 1806 3656 2325 
Q 3656 3044 3420 3430 
Q 3184 3816 2847 3947 
Q 2603 4041 2063 4041 
L 1100 4041 
L 1100 541 
z
" id="ArialMT-44" transform="scale(0.015625)"/>
       <path d="M 425 3934 
L 425 4581 
L 988 4581 
L 988 3934 
L 425 3934 
z
M 425 0 
L 425 3319 
L 988 3319 
L 988 0 
L 425 0 
z
" id="ArialMT-69" transform="scale(0.015625)"/>
       <path d="M 556 0 
L 556 2881 
L 59 2881 
L 59 3319 
L 556 3319 
L 556 3672 
Q 556 4006 616 4169 
Q 697 4388 901 4523 
Q 1106 4659 1475 4659 
Q 1713 4659 2000 4603 
L 1916 4113 
Q 1741 4144 1584 4144 
Q 1328 4144 1222 4034 
Q 1116 3925 1116 3625 
L 1116 3319 
L 1763 3319 
L 1763 2881 
L 1116 2881 
L 1116 0 
L 556 0 
z
" id="ArialMT-66" transform="scale(0.015625)"/>
       <path d="M 2694 1069 
L 3275 997 
Q 3138 488 2766 206 
Q 2394 -75 1816 -75 
Q 1088 -75 661 373 
Q 234 822 234 1631 
Q 234 2469 665 2931 
Q 1097 3394 1784 3394 
Q 2450 3394 2872 2941 
Q 3294 2488 3294 1666 
Q 3294 1616 3291 1516 
L 816 1516 
Q 847 969 1125 678 
Q 1403 388 1819 388 
Q 2128 388 2347 550 
Q 2566 713 2694 1069 
z
M 847 1978 
L 2700 1978 
Q 2663 2397 2488 2606 
Q 2219 2931 1791 2931 
Q 1403 2931 1139 2672 
Q 875 2413 847 1978 
z
" id="ArialMT-65" transform="scale(0.015625)"/>
       <path d="M 416 0 
L 416 3319 
L 922 3319 
L 922 2816 
Q 1116 3169 1280 3281 
Q 1444 3394 1641 3394 
Q 1925 3394 2219 3213 
L 2025 2691 
Q 1819 2813 1613 2813 
Q 1428 2813 1281 2702 
Q 1134 2591 1072 2394 
Q 978 2094 978 1738 
L 978 0 
L 416 0 
z
" id="ArialMT-72" transform="scale(0.015625)"/>
       <path d="M 422 0 
L 422 3319 
L 928 3319 
L 928 2847 
Q 1294 3394 1984 3394 
Q 2284 3394 2536 3286 
Q 2788 3178 2913 3003 
Q 3038 2828 3088 2588 
Q 3119 2431 3119 2041 
L 3119 0 
L 2556 0 
L 2556 2019 
Q 2556 2363 2490 2533 
Q 2425 2703 2258 2804 
Q 2091 2906 1866 2906 
Q 1506 2906 1245 2678 
Q 984 2450 984 1813 
L 984 0 
L 422 0 
z
" id="ArialMT-6e" transform="scale(0.015625)"/>
       <path d="M 2588 1216 
L 3141 1144 
Q 3050 572 2676 248 
Q 2303 -75 1759 -75 
Q 1078 -75 664 370 
Q 250 816 250 1647 
Q 250 2184 428 2587 
Q 606 2991 970 3192 
Q 1334 3394 1763 3394 
Q 2303 3394 2647 3120 
Q 2991 2847 3088 2344 
L 2541 2259 
Q 2463 2594 2264 2762 
Q 2066 2931 1784 2931 
Q 1359 2931 1093 2626 
Q 828 2322 828 1663 
Q 828 994 1084 691 
Q 1341 388 1753 388 
Q 2084 388 2306 591 
Q 2528 794 2588 1216 
z
" id="ArialMT-63" transform="scale(0.015625)"/>
       <path id="ArialMT-20" transform="scale(0.015625)"/>
       <path d="M 1650 503 
L 1731 6 
Q 1494 -44 1306 -44 
Q 1000 -44 831 53 
Q 663 150 594 308 
Q 525 466 525 972 
L 525 2881 
L 113 2881 
L 113 3319 
L 525 3319 
L 525 4141 
L 1084 4478 
L 1084 3319 
L 1650 3319 
L 1650 2881 
L 1084 2881 
L 1084 941 
Q 1084 700 1114 631 
Q 1144 563 1211 522 
Q 1278 481 1403 481 
Q 1497 481 1650 503 
z
" id="ArialMT-74" transform="scale(0.015625)"/>
       <path d="M 213 1659 
Q 213 2581 725 3025 
Q 1153 3394 1769 3394 
Q 2453 3394 2887 2945 
Q 3322 2497 3322 1706 
Q 3322 1066 3130 698 
Q 2938 331 2570 128 
Q 2203 -75 1769 -75 
Q 1072 -75 642 372 
Q 213 819 213 1659 
z
M 791 1659 
Q 791 1022 1069 705 
Q 1347 388 1769 388 
Q 2188 388 2466 706 
Q 2744 1025 2744 1678 
Q 2744 2294 2464 2611 
Q 2184 2928 1769 2928 
Q 1347 2928 1069 2612 
Q 791 2297 791 1659 
z
" id="ArialMT-6f" transform="scale(0.015625)"/>
       <path d="M 319 -275 
L 866 -356 
Q 900 -609 1056 -725 
Q 1266 -881 1628 -881 
Q 2019 -881 2231 -725 
Q 2444 -569 2519 -288 
Q 2563 -116 2559 434 
Q 2191 0 1641 0 
Q 956 0 581 494 
Q 206 988 206 1678 
Q 206 2153 378 2554 
Q 550 2956 876 3175 
Q 1203 3394 1644 3394 
Q 2231 3394 2613 2919 
L 2613 3319 
L 3131 3319 
L 3131 450 
Q 3131 -325 2973 -648 
Q 2816 -972 2473 -1159 
Q 2131 -1347 1631 -1347 
Q 1038 -1347 672 -1080 
Q 306 -813 319 -275 
z
M 784 1719 
Q 784 1066 1043 766 
Q 1303 466 1694 466 
Q 2081 466 2343 764 
Q 2606 1063 2606 1700 
Q 2606 2309 2336 2618 
Q 2066 2928 1684 2928 
Q 1309 2928 1046 2623 
Q 784 2319 784 1719 
z
" id="ArialMT-67" transform="scale(0.015625)"/>
       <path d="M 2597 0 
L 2597 488 
Q 2209 -75 1544 -75 
Q 1250 -75 995 37 
Q 741 150 617 320 
Q 494 491 444 738 
Q 409 903 409 1263 
L 409 3319 
L 972 3319 
L 972 1478 
Q 972 1038 1006 884 
Q 1059 663 1231 536 
Q 1403 409 1656 409 
Q 1909 409 2131 539 
Q 2353 669 2445 892 
Q 2538 1116 2538 1541 
L 2538 3319 
L 3100 3319 
L 3100 0 
L 2597 0 
z
" id="ArialMT-75" transform="scale(0.015625)"/>
       <path d="M 2575 0 
L 2575 419 
Q 2259 -75 1647 -75 
Q 1250 -75 917 144 
Q 584 363 401 755 
Q 219 1147 219 1656 
Q 219 2153 384 2558 
Q 550 2963 881 3178 
Q 1213 3394 1622 3394 
Q 1922 3394 2156 3267 
Q 2391 3141 2538 2938 
L 2538 4581 
L 3097 4581 
L 3097 0 
L 2575 0 
z
M 797 1656 
Q 797 1019 1065 703 
Q 1334 388 1700 388 
Q 2069 388 2326 689 
Q 2584 991 2584 1609 
Q 2584 2291 2321 2609 
Q 2059 2928 1675 2928 
Q 1300 2928 1048 2622 
Q 797 2316 797 1656 
z
" id="ArialMT-64" transform="scale(0.015625)"/>
       <path d="M 422 0 
L 422 4581 
L 984 4581 
L 984 2938 
Q 1378 3394 1978 3394 
Q 2347 3394 2619 3248 
Q 2891 3103 3008 2847 
Q 3125 2591 3125 2103 
L 3125 0 
L 2563 0 
L 2563 2103 
Q 2563 2525 2380 2717 
Q 2197 2909 1863 2909 
Q 1613 2909 1392 2779 
Q 1172 2650 1078 2428 
Q 984 2206 984 1816 
L 984 0 
L 422 0 
z
" id="ArialMT-68" transform="scale(0.015625)"/>
      </defs>
      <use xlink:href="#ArialMT-44"/>
      <use x="72.216797" xlink:href="#ArialMT-69"/>
      <use x="94.433594" xlink:href="#ArialMT-66"/>
      <use x="120.466797" xlink:href="#ArialMT-66"/>
      <use x="148.25" xlink:href="#ArialMT-65"/>
      <use x="203.865234" xlink:href="#ArialMT-72"/>
      <use x="237.166016" xlink:href="#ArialMT-65"/>
      <use x="292.78125" xlink:href="#ArialMT-6e"/>
      <use x="348.396484" xlink:href="#ArialMT-63"/>
      <use x="398.396484" xlink:href="#ArialMT-65"/>
      <use x="454.011719" xlink:href="#ArialMT-20"/>
      <use x="481.794922" xlink:href="#ArialMT-74"/>
      <use x="509.578125" xlink:href="#ArialMT-6f"/>
      <use x="565.193359" xlink:href="#ArialMT-20"/>
      <use x="592.976562" xlink:href="#ArialMT-67"/>
      <use x="648.591797" xlink:href="#ArialMT-72"/>
      <use x="681.892578" xlink:href="#ArialMT-6f"/>
      <use x="737.507812" xlink:href="#ArialMT-75"/>
      <use x="793.123047" xlink:href="#ArialMT-6e"/>
      <use x="848.738281" xlink:href="#ArialMT-64"/>
      <use x="904.353516" xlink:href="#ArialMT-20"/>
      <use x="932.136719" xlink:href="#ArialMT-74"/>
      <use x="959.919922" xlink:href="#ArialMT-72"/>
      <use x="993.220703" xlink:href="#ArialMT-75"/>
      <use x="1048.835938" xlink:href="#ArialMT-74"/>
      <use x="1076.619141" xlink:href="#ArialMT-68"/>
     </g>
    </g>
   </g>
   <g id="PathCollection_1">
    <defs>
     <path d="M -0 4.242641 
L 2.545584 0 
L 0 -4.242641 
L -2.545584 -0 
z
" id="m094f28525a" style="stroke:#3d3d3d;"/>
    </defs>
    <g clip-path="url(#p5b398dfd96)">
     <use style="fill:#3d3d3d;stroke:#3d3d3d;" x="137.501362" xlink:href="#m094f28525a" y="501.228359"/>
     <use style="fill:#3d3d3d;stroke:#3d3d3d;" x="137.501362" xlink:href="#m094f28525a" y="500.73594"/>
     <use style="fill:#3d3d3d;stroke:#3d3d3d;" x="137.501362" xlink:href="#m094f28525a" y="502.176377"/>
     <use style="fill:#3d3d3d;stroke:#3d3d3d;" x="137.501362" xlink:href="#m094f28525a" y="499.698487"/>
     <use style="fill:#3d3d3d;stroke:#3d3d3d;" x="137.501362" xlink:href="#m094f28525a" y="507.347483"/>
     <use style="fill:#3d3d3d;stroke:#3d3d3d;" x="137.501362" xlink:href="#m094f28525a" y="508.68379"/>
     <use style="fill:#3d3d3d;stroke:#3d3d3d;" x="137.501362" xlink:href="#m094f28525a" y="569.149065"/>
     <use style="fill:#3d3d3d;stroke:#3d3d3d;" x="137.501362" xlink:href="#m094f28525a" y="481.731348"/>
     <use style="fill:#3d3d3d;stroke:#3d3d3d;" x="137.501362" xlink:href="#m094f28525a" y="487.023485"/>
     <use style="fill:#3d3d3d;stroke:#3d3d3d;" x="137.501362" xlink:href="#m094f28525a" y="487.315968"/>
     <use style="fill:#3d3d3d;stroke:#3d3d3d;" x="137.501362" xlink:href="#m094f28525a" y="489.541203"/>
     <use style="fill:#3d3d3d;stroke:#3d3d3d;" x="137.501362" xlink:href="#m094f28525a" y="475.787115"/>
     <use style="fill:#3d3d3d;stroke:#3d3d3d;" x="137.501362" xlink:href="#m094f28525a" y="483.397635"/>
     <use style="fill:#3d3d3d;stroke:#3d3d3d;" x="137.501362" xlink:href="#m094f28525a" y="485.658231"/>
    </g>
   </g>
   <g id="PatchCollection_1">
    <path clip-path="url(#p5b398dfd96)" d="M 121.577563 499.541058 
L 153.425162 499.541058 
L 153.425162 490.140361 
L 121.577563 490.140361 
z
" style="fill:#e0eaf1;stroke:#3d3d3d;stroke-width:1.5;"/>
    <path clip-path="url(#p5b398dfd96)" d="M 105.653764 496.20868 
L 169.348962 496.20868 
L 169.348962 492.27665 
L 105.653764 492.27665 
z
" style="fill:#3274a1;stroke:#3d3d3d;stroke-width:1.5;"/>
   </g>
   <g id="PathCollection_2">
    <g clip-path="url(#p5b398dfd96)">
     <use style="fill:#3d3d3d;stroke:#3d3d3d;" x="202.496463" xlink:href="#m094f28525a" y="584.125385"/>
     <use style="fill:#3d3d3d;stroke:#3d3d3d;" x="202.496463" xlink:href="#m094f28525a" y="586.537957"/>
     <use style="fill:#3d3d3d;stroke:#3d3d3d;" x="202.496463" xlink:href="#m094f28525a" y="590.249149"/>
     <use style="fill:#3d3d3d;stroke:#3d3d3d;" x="202.496463" xlink:href="#m094f28525a" y="594.106261"/>
     <use style="fill:#3d3d3d;stroke:#3d3d3d;" x="202.496463" xlink:href="#m094f28525a" y="606.611712"/>
     <use style="fill:#3d3d3d;stroke:#3d3d3d;" x="202.496463" xlink:href="#m094f28525a" y="670.513188"/>
     <use style="fill:#3d3d3d;stroke:#3d3d3d;" x="202.496463" xlink:href="#m094f28525a" y="1193.49554"/>
     <use style="fill:#3d3d3d;stroke:#3d3d3d;" x="202.496463" xlink:href="#m094f28525a" y="568.248405"/>
     <use style="fill:#3d3d3d;stroke:#3d3d3d;" x="202.496463" xlink:href="#m094f28525a" y="562.118175"/>
     <use style="fill:#3d3d3d;stroke:#3d3d3d;" x="202.496463" xlink:href="#m094f28525a" y="568.367855"/>
     <use style="fill:#3d3d3d;stroke:#3d3d3d;" x="202.496463" xlink:href="#m094f28525a" y="567.948945"/>
     <use style="fill:#3d3d3d;stroke:#3d3d3d;" x="202.496463" xlink:href="#m094f28525a" y="564.224729"/>
     <use style="fill:#3d3d3d;stroke:#3d3d3d;" x="202.496463" xlink:href="#m094f28525a" y="502.184184"/>
     <use style="fill:#3d3d3d;stroke:#3d3d3d;" x="202.496463" xlink:href="#m094f28525a" y="504.903168"/>
    </g>
   </g>
   <g id="PatchCollection_2">
    <path clip-path="url(#p5b398dfd96)" d="M 186.572663 583.890531 
L 218.420262 583.890531 
L 218.420262 569.328079 
L 186.572663 569.328079 
z
" style="fill:#fbece0;stroke:#3d3d3d;stroke-width:1.5;"/>
    <path clip-path="url(#p5b398dfd96)" d="M 170.648864 579.457899 
L 234.344061 579.457899 
L 234.344061 570.990106 
L 170.648864 570.990106 
z
" style="fill:#e1812c;stroke:#3d3d3d;stroke-width:1.5;"/>
   </g>
   <g id="PathCollection_3">
    <g clip-path="url(#p5b398dfd96)">
     <use style="fill:#3d3d3d;stroke:#3d3d3d;" x="267.491562" xlink:href="#m094f28525a" y="582.893638"/>
     <use style="fill:#3d3d3d;stroke:#3d3d3d;" x="267.491562" xlink:href="#m094f28525a" y="582.955575"/>
     <use style="fill:#3d3d3d;stroke:#3d3d3d;" x="267.491562" xlink:href="#m094f28525a" y="596.218856"/>
     <use style="fill:#3d3d3d;stroke:#3d3d3d;" x="267.491562" xlink:href="#m094f28525a" y="598.870522"/>
     <use style="fill:#3d3d3d;stroke:#3d3d3d;" x="267.491562" xlink:href="#m094f28525a" y="624.08067"/>
     <use style="fill:#3d3d3d;stroke:#3d3d3d;" x="267.491562" xlink:href="#m094f28525a" y="657.80849"/>
     <use style="fill:#3d3d3d;stroke:#3d3d3d;" x="267.491562" xlink:href="#m094f28525a" y="1038.657044"/>
     <use style="fill:#3d3d3d;stroke:#3d3d3d;" x="267.491562" xlink:href="#m094f28525a" y="569.174066"/>
     <use style="fill:#3d3d3d;stroke:#3d3d3d;" x="267.491562" xlink:href="#m094f28525a" y="569.501858"/>
     <use style="fill:#3d3d3d;stroke:#3d3d3d;" x="267.491562" xlink:href="#m094f28525a" y="568.447069"/>
     <use style="fill:#3d3d3d;stroke:#3d3d3d;" x="267.491562" xlink:href="#m094f28525a" y="569.065471"/>
     <use style="fill:#3d3d3d;stroke:#3d3d3d;" x="267.491562" xlink:href="#m094f28525a" y="567.400904"/>
     <use style="fill:#3d3d3d;stroke:#3d3d3d;" x="267.491562" xlink:href="#m094f28525a" y="549.826799"/>
     <use style="fill:#3d3d3d;stroke:#3d3d3d;" x="267.491562" xlink:href="#m094f28525a" y="515.225735"/>
    </g>
   </g>
   <g id="PatchCollection_3">
    <path clip-path="url(#p5b398dfd96)" d="M 251.567763 581.951784 
L 283.415362 581.951784 
L 283.415362 569.622958 
L 251.567763 569.622958 
z
" style="fill:#e2efe2;stroke:#3d3d3d;stroke-width:1.5;"/>
    <path clip-path="url(#p5b398dfd96)" d="M 235.643963 574.388403 
L 299.339161 574.388403 
L 299.339161 569.839812 
L 235.643963 569.839812 
z
" style="fill:#3a923a;stroke:#3d3d3d;stroke-width:1.5;"/>
   </g>
   <g id="PathCollection_4">
    <g clip-path="url(#p5b398dfd96)">
     <use style="fill:#3d3d3d;stroke:#3d3d3d;" x="332.486662" xlink:href="#m094f28525a" y="508.253542"/>
     <use style="fill:#3d3d3d;stroke:#3d3d3d;" x="332.486662" xlink:href="#m094f28525a" y="512.661464"/>
     <use style="fill:#3d3d3d;stroke:#3d3d3d;" x="332.486662" xlink:href="#m094f28525a" y="508.030048"/>
     <use style="fill:#3d3d3d;stroke:#3d3d3d;" x="332.486662" xlink:href="#m094f28525a" y="504.109802"/>
     <use style="fill:#3d3d3d;stroke:#3d3d3d;" x="332.486662" xlink:href="#m094f28525a" y="543.088226"/>
     <use style="fill:#3d3d3d;stroke:#3d3d3d;" x="332.486662" xlink:href="#m094f28525a" y="512.843604"/>
     <use style="fill:#3d3d3d;stroke:#3d3d3d;" x="332.486662" xlink:href="#m094f28525a" y="558.260683"/>
     <use style="fill:#3d3d3d;stroke:#3d3d3d;" x="332.486662" xlink:href="#m094f28525a" y="485.842436"/>
     <use style="fill:#3d3d3d;stroke:#3d3d3d;" x="332.486662" xlink:href="#m094f28525a" y="478.161008"/>
     <use style="fill:#3d3d3d;stroke:#3d3d3d;" x="332.486662" xlink:href="#m094f28525a" y="487.023485"/>
     <use style="fill:#3d3d3d;stroke:#3d3d3d;" x="332.486662" xlink:href="#m094f28525a" y="487.315968"/>
     <use style="fill:#3d3d3d;stroke:#3d3d3d;" x="332.486662" xlink:href="#m094f28525a" y="484.820372"/>
     <use style="fill:#3d3d3d;stroke:#3d3d3d;" x="332.486662" xlink:href="#m094f28525a" y="488.46439"/>
     <use style="fill:#3d3d3d;stroke:#3d3d3d;" x="332.486662" xlink:href="#m094f28525a" y="470.422442"/>
    </g>
   </g>
   <g id="PatchCollection_4">
    <path clip-path="url(#p5b398dfd96)" d="M 316.562863 503.354582 
L 348.410462 503.354582 
L 348.410462 488.514514 
L 316.562863 488.514514 
z
" style="fill:#f6e2e2;stroke:#3d3d3d;stroke-width:1.5;"/>
    <path clip-path="url(#p5b398dfd96)" d="M 300.639063 495.157589 
L 364.334261 495.157589 
L 364.334261 490.810843 
L 300.639063 490.810843 
z
" style="fill:#c03d3e;stroke:#3d3d3d;stroke-width:1.5;"/>
   </g>
   <g id="PathCollection_5">
    <g clip-path="url(#p5b398dfd96)">
     <use style="fill:#3d3d3d;stroke:#3d3d3d;" x="397.481762" xlink:href="#m094f28525a" y="498.551497"/>
     <use style="fill:#3d3d3d;stroke:#3d3d3d;" x="397.481762" xlink:href="#m094f28525a" y="499.189637"/>
     <use style="fill:#3d3d3d;stroke:#3d3d3d;" x="397.481762" xlink:href="#m094f28525a" y="503.083374"/>
     <use style="fill:#3d3d3d;stroke:#3d3d3d;" x="397.481762" xlink:href="#m094f28525a" y="496.195704"/>
     <use style="fill:#3d3d3d;stroke:#3d3d3d;" x="397.481762" xlink:href="#m094f28525a" y="510.12462"/>
     <use style="fill:#3d3d3d;stroke:#3d3d3d;" x="397.481762" xlink:href="#m094f28525a" y="496.962733"/>
     <use style="fill:#3d3d3d;stroke:#3d3d3d;" x="397.481762" xlink:href="#m094f28525a" y="543.173855"/>
     <use style="fill:#3d3d3d;stroke:#3d3d3d;" x="397.481762" xlink:href="#m094f28525a" y="483.719313"/>
     <use style="fill:#3d3d3d;stroke:#3d3d3d;" x="397.481762" xlink:href="#m094f28525a" y="491.787746"/>
     <use style="fill:#3d3d3d;stroke:#3d3d3d;" x="397.481762" xlink:href="#m094f28525a" y="490.654254"/>
     <use style="fill:#3d3d3d;stroke:#3d3d3d;" x="397.481762" xlink:href="#m094f28525a" y="492.087943"/>
     <use style="fill:#3d3d3d;stroke:#3d3d3d;" x="397.481762" xlink:href="#m094f28525a" y="491.424843"/>
     <use style="fill:#3d3d3d;stroke:#3d3d3d;" x="397.481762" xlink:href="#m094f28525a" y="479.56474"/>
     <use style="fill:#3d3d3d;stroke:#3d3d3d;" x="397.481762" xlink:href="#m094f28525a" y="488.498466"/>
    </g>
   </g>
   <g id="PatchCollection_5">
    <path clip-path="url(#p5b398dfd96)" d="M 381.557963 496.064982 
L 413.405562 496.064982 
L 413.405562 492.187867 
L 381.557963 492.187867 
z
" style="fill:#efeaf4;stroke:#3d3d3d;stroke-width:1.5;"/>
    <path clip-path="url(#p5b398dfd96)" d="M 365.634163 494.707573 
L 429.329361 494.707573 
L 429.329361 492.936757 
L 365.634163 492.936757 
z
" style="fill:#9372b2;stroke:#3d3d3d;stroke-width:1.5;"/>
   </g>
   <g id="PathCollection_6">
    <g clip-path="url(#p5b398dfd96)">
     <use style="fill:#3d3d3d;stroke:#3d3d3d;" x="543.720737" xlink:href="#m094f28525a" y="501.26472"/>
     <use style="fill:#3d3d3d;stroke:#3d3d3d;" x="543.720737" xlink:href="#m094f28525a" y="499.317748"/>
     <use style="fill:#3d3d3d;stroke:#3d3d3d;" x="543.720737" xlink:href="#m094f28525a" y="500.829843"/>
     <use style="fill:#3d3d3d;stroke:#3d3d3d;" x="543.720737" xlink:href="#m094f28525a" y="500.839411"/>
     <use style="fill:#3d3d3d;stroke:#3d3d3d;" x="543.720737" xlink:href="#m094f28525a" y="502.037288"/>
     <use style="fill:#3d3d3d;stroke:#3d3d3d;" x="543.720737" xlink:href="#m094f28525a" y="504.294619"/>
     <use style="fill:#3d3d3d;stroke:#3d3d3d;" x="543.720737" xlink:href="#m094f28525a" y="525.724329"/>
     <use style="fill:#3d3d3d;stroke:#3d3d3d;" x="543.720737" xlink:href="#m094f28525a" y="486.897233"/>
     <use style="fill:#3d3d3d;stroke:#3d3d3d;" x="543.720737" xlink:href="#m094f28525a" y="489.593131"/>
     <use style="fill:#3d3d3d;stroke:#3d3d3d;" x="543.720737" xlink:href="#m094f28525a" y="486.092713"/>
     <use style="fill:#3d3d3d;stroke:#3d3d3d;" x="543.720737" xlink:href="#m094f28525a" y="477.507256"/>
     <use style="fill:#3d3d3d;stroke:#3d3d3d;" x="543.720737" xlink:href="#m094f28525a" y="464.637459"/>
     <use style="fill:#3d3d3d;stroke:#3d3d3d;" x="543.720737" xlink:href="#m094f28525a" y="479.606823"/>
     <use style="fill:#3d3d3d;stroke:#3d3d3d;" x="543.720737" xlink:href="#m094f28525a" y="467.010008"/>
    </g>
   </g>
   <g id="PatchCollection_6">
    <path clip-path="url(#p5b398dfd96)" d="M 527.796938 499.164506 
L 559.644537 499.164506 
L 559.644537 489.756222 
L 527.796938 489.756222 
z
" style="fill:#e0eaf1;stroke:#3d3d3d;stroke-width:1.5;"/>
    <path clip-path="url(#p5b398dfd96)" d="M 511.873138 496.221905 
L 575.568336 496.221905 
L 575.568336 491.131803 
L 511.873138 491.131803 
z
" style="fill:#3274a1;stroke:#3d3d3d;stroke-width:1.5;"/>
   </g>
   <g id="PathCollection_7">
    <g clip-path="url(#p5b398dfd96)">
     <use style="fill:#3d3d3d;stroke:#3d3d3d;" x="608.715837" xlink:href="#m094f28525a" y="578.492603"/>
     <use style="fill:#3d3d3d;stroke:#3d3d3d;" x="608.715837" xlink:href="#m094f28525a" y="577.551834"/>
     <use style="fill:#3d3d3d;stroke:#3d3d3d;" x="608.715837" xlink:href="#m094f28525a" y="578.838112"/>
     <use style="fill:#3d3d3d;stroke:#3d3d3d;" x="608.715837" xlink:href="#m094f28525a" y="582.182462"/>
     <use style="fill:#3d3d3d;stroke:#3d3d3d;" x="608.715837" xlink:href="#m094f28525a" y="583.826"/>
     <use style="fill:#3d3d3d;stroke:#3d3d3d;" x="608.715837" xlink:href="#m094f28525a" y="588.241973"/>
     <use style="fill:#3d3d3d;stroke:#3d3d3d;" x="608.715837" xlink:href="#m094f28525a" y="675.404243"/>
     <use style="fill:#3d3d3d;stroke:#3d3d3d;" x="608.715837" xlink:href="#m094f28525a" y="556.911613"/>
     <use style="fill:#3d3d3d;stroke:#3d3d3d;" x="608.715837" xlink:href="#m094f28525a" y="557.680394"/>
     <use style="fill:#3d3d3d;stroke:#3d3d3d;" x="608.715837" xlink:href="#m094f28525a" y="559.414214"/>
     <use style="fill:#3d3d3d;stroke:#3d3d3d;" x="608.715837" xlink:href="#m094f28525a" y="552.081733"/>
     <use style="fill:#3d3d3d;stroke:#3d3d3d;" x="608.715837" xlink:href="#m094f28525a" y="546.747723"/>
     <use style="fill:#3d3d3d;stroke:#3d3d3d;" x="608.715837" xlink:href="#m094f28525a" y="452.858645"/>
     <use style="fill:#3d3d3d;stroke:#3d3d3d;" x="608.715837" xlink:href="#m094f28525a" y="468.292962"/>
    </g>
   </g>
   <g id="PatchCollection_7">
    <path clip-path="url(#p5b398dfd96)" d="M 592.792038 577.546598 
L 624.639637 577.546598 
L 624.639637 561.713054 
L 592.792038 561.713054 
z
" style="fill:#fbece0;stroke:#3d3d3d;stroke-width:1.5;"/>
    <path clip-path="url(#p5b398dfd96)" d="M 576.868238 574.74839 
L 640.563436 574.74839 
L 640.563436 568.415674 
L 576.868238 568.415674 
z
" style="fill:#e1812c;stroke:#3d3d3d;stroke-width:1.5;"/>
   </g>
   <g id="PathCollection_8">
    <g clip-path="url(#p5b398dfd96)">
     <use style="fill:#3d3d3d;stroke:#3d3d3d;" x="673.710938" xlink:href="#m094f28525a" y="573.783574"/>
     <use style="fill:#3d3d3d;stroke:#3d3d3d;" x="673.710938" xlink:href="#m094f28525a" y="573.143117"/>
     <use style="fill:#3d3d3d;stroke:#3d3d3d;" x="673.710938" xlink:href="#m094f28525a" y="573.949189"/>
     <use style="fill:#3d3d3d;stroke:#3d3d3d;" x="673.710938" xlink:href="#m094f28525a" y="573.175831"/>
     <use style="fill:#3d3d3d;stroke:#3d3d3d;" x="673.710938" xlink:href="#m094f28525a" y="575.014543"/>
     <use style="fill:#3d3d3d;stroke:#3d3d3d;" x="673.710938" xlink:href="#m094f28525a" y="572.726866"/>
     <use style="fill:#3d3d3d;stroke:#3d3d3d;" x="673.710938" xlink:href="#m094f28525a" y="575.785544"/>
     <use style="fill:#3d3d3d;stroke:#3d3d3d;" x="673.710938" xlink:href="#m094f28525a" y="563.098862"/>
     <use style="fill:#3d3d3d;stroke:#3d3d3d;" x="673.710938" xlink:href="#m094f28525a" y="562.590388"/>
     <use style="fill:#3d3d3d;stroke:#3d3d3d;" x="673.710938" xlink:href="#m094f28525a" y="564.216682"/>
     <use style="fill:#3d3d3d;stroke:#3d3d3d;" x="673.710938" xlink:href="#m094f28525a" y="560.707456"/>
     <use style="fill:#3d3d3d;stroke:#3d3d3d;" x="673.710938" xlink:href="#m094f28525a" y="520.565747"/>
     <use style="fill:#3d3d3d;stroke:#3d3d3d;" x="673.710938" xlink:href="#m094f28525a" y="500.501259"/>
     <use style="fill:#3d3d3d;stroke:#3d3d3d;" x="673.710938" xlink:href="#m094f28525a" y="478.615529"/>
    </g>
   </g>
   <g id="PatchCollection_8">
    <path clip-path="url(#p5b398dfd96)" d="M 657.787138 571.802494 
L 689.634737 571.802494 
L 689.634737 565.094274 
L 657.787138 565.094274 
z
" style="fill:#e2efe2;stroke:#3d3d3d;stroke-width:1.5;"/>
    <path clip-path="url(#p5b398dfd96)" d="M 641.863338 570.410989 
L 705.558536 570.410989 
L 705.558536 568.119081 
L 641.863338 568.119081 
z
" style="fill:#3a923a;stroke:#3d3d3d;stroke-width:1.5;"/>
   </g>
   <g id="PathCollection_9">
    <g clip-path="url(#p5b398dfd96)">
     <use style="fill:#3d3d3d;stroke:#3d3d3d;" x="738.706037" xlink:href="#m094f28525a" y="498.460317"/>
     <use style="fill:#3d3d3d;stroke:#3d3d3d;" x="738.706037" xlink:href="#m094f28525a" y="502.092393"/>
     <use style="fill:#3d3d3d;stroke:#3d3d3d;" x="738.706037" xlink:href="#m094f28525a" y="507.509307"/>
     <use style="fill:#3d3d3d;stroke:#3d3d3d;" x="738.706037" xlink:href="#m094f28525a" y="515.438233"/>
     <use style="fill:#3d3d3d;stroke:#3d3d3d;" x="738.706037" xlink:href="#m094f28525a" y="497.933157"/>
     <use style="fill:#3d3d3d;stroke:#3d3d3d;" x="738.706037" xlink:href="#m094f28525a" y="523.876012"/>
     <use style="fill:#3d3d3d;stroke:#3d3d3d;" x="738.706037" xlink:href="#m094f28525a" y="643.642501"/>
     <use style="fill:#3d3d3d;stroke:#3d3d3d;" x="738.706037" xlink:href="#m094f28525a" y="480.009857"/>
     <use style="fill:#3d3d3d;stroke:#3d3d3d;" x="738.706037" xlink:href="#m094f28525a" y="482.20474"/>
     <use style="fill:#3d3d3d;stroke:#3d3d3d;" x="738.706037" xlink:href="#m094f28525a" y="486.897233"/>
     <use style="fill:#3d3d3d;stroke:#3d3d3d;" x="738.706037" xlink:href="#m094f28525a" y="477.507256"/>
     <use style="fill:#3d3d3d;stroke:#3d3d3d;" x="738.706037" xlink:href="#m094f28525a" y="464.73694"/>
     <use style="fill:#3d3d3d;stroke:#3d3d3d;" x="738.706037" xlink:href="#m094f28525a" y="480.485955"/>
     <use style="fill:#3d3d3d;stroke:#3d3d3d;" x="738.706037" xlink:href="#m094f28525a" y="454.305617"/>
    </g>
   </g>
   <g id="PatchCollection_9">
    <path clip-path="url(#p5b398dfd96)" d="M 722.782238 497.545537 
L 754.629837 497.545537 
L 754.629837 487.492093 
L 722.782238 487.492093 
z
" style="fill:#f6e2e2;stroke:#3d3d3d;stroke-width:1.5;"/>
    <path clip-path="url(#p5b398dfd96)" d="M 706.858438 494.189731 
L 770.553636 494.189731 
L 770.553636 490.045192 
L 706.858438 490.045192 
z
" style="fill:#c03d3e;stroke:#3d3d3d;stroke-width:1.5;"/>
   </g>
   <g id="PathCollection_10">
    <g clip-path="url(#p5b398dfd96)">
     <use style="fill:#3d3d3d;stroke:#3d3d3d;" x="803.701137" xlink:href="#m094f28525a" y="496.078186"/>
     <use style="fill:#3d3d3d;stroke:#3d3d3d;" x="803.701137" xlink:href="#m094f28525a" y="497.328132"/>
     <use style="fill:#3d3d3d;stroke:#3d3d3d;" x="803.701137" xlink:href="#m094f28525a" y="498.171576"/>
     <use style="fill:#3d3d3d;stroke:#3d3d3d;" x="803.701137" xlink:href="#m094f28525a" y="497.992316"/>
     <use style="fill:#3d3d3d;stroke:#3d3d3d;" x="803.701137" xlink:href="#m094f28525a" y="504.663414"/>
     <use style="fill:#3d3d3d;stroke:#3d3d3d;" x="803.701137" xlink:href="#m094f28525a" y="501.939492"/>
     <use style="fill:#3d3d3d;stroke:#3d3d3d;" x="803.701137" xlink:href="#m094f28525a" y="503.230879"/>
     <use style="fill:#3d3d3d;stroke:#3d3d3d;" x="803.701137" xlink:href="#m094f28525a" y="489.53838"/>
     <use style="fill:#3d3d3d;stroke:#3d3d3d;" x="803.701137" xlink:href="#m094f28525a" y="490.073407"/>
     <use style="fill:#3d3d3d;stroke:#3d3d3d;" x="803.701137" xlink:href="#m094f28525a" y="490.574614"/>
     <use style="fill:#3d3d3d;stroke:#3d3d3d;" x="803.701137" xlink:href="#m094f28525a" y="488.426391"/>
     <use style="fill:#3d3d3d;stroke:#3d3d3d;" x="803.701137" xlink:href="#m094f28525a" y="474.95075"/>
     <use style="fill:#3d3d3d;stroke:#3d3d3d;" x="803.701137" xlink:href="#m094f28525a" y="490.434629"/>
     <use style="fill:#3d3d3d;stroke:#3d3d3d;" x="803.701137" xlink:href="#m094f28525a" y="458.630348"/>
    </g>
   </g>
   <g id="PatchCollection_10">
    <path clip-path="url(#p5b398dfd96)" d="M 787.777338 495.869942 
L 819.624937 495.869942 
L 819.624937 490.741041 
L 787.777338 490.741041 
z
" style="fill:#efeaf4;stroke:#3d3d3d;stroke-width:1.5;"/>
    <path clip-path="url(#p5b398dfd96)" d="M 771.853539 494.161793 
L 835.548737 494.161793 
L 835.548737 492.154227 
L 771.853539 492.154227 
z
" style="fill:#9372b2;stroke:#3d3d3d;stroke-width:1.5;"/>
   </g>
   <g id="PathCollection_11">
    <g clip-path="url(#p5b398dfd96)">
     <use style="fill:#3d3d3d;stroke:#3d3d3d;" x="949.940112" xlink:href="#m094f28525a" y="500.453943"/>
     <use style="fill:#3d3d3d;stroke:#3d3d3d;" x="949.940112" xlink:href="#m094f28525a" y="526.261598"/>
     <use style="fill:#3d3d3d;stroke:#3d3d3d;" x="949.940112" xlink:href="#m094f28525a" y="508.038001"/>
     <use style="fill:#3d3d3d;stroke:#3d3d3d;" x="949.940112" xlink:href="#m094f28525a" y="505.613559"/>
     <use style="fill:#3d3d3d;stroke:#3d3d3d;" x="949.940112" xlink:href="#m094f28525a" y="512.261008"/>
     <use style="fill:#3d3d3d;stroke:#3d3d3d;" x="949.940112" xlink:href="#m094f28525a" y="503.68396"/>
     <use style="fill:#3d3d3d;stroke:#3d3d3d;" x="949.940112" xlink:href="#m094f28525a" y="511.428573"/>
     <use style="fill:#3d3d3d;stroke:#3d3d3d;" x="949.940112" xlink:href="#m094f28525a" y="481.221898"/>
     <use style="fill:#3d3d3d;stroke:#3d3d3d;" x="949.940112" xlink:href="#m094f28525a" y="458.831198"/>
     <use style="fill:#3d3d3d;stroke:#3d3d3d;" x="949.940112" xlink:href="#m094f28525a" y="479.697853"/>
     <use style="fill:#3d3d3d;stroke:#3d3d3d;" x="949.940112" xlink:href="#m094f28525a" y="478.791797"/>
     <use style="fill:#3d3d3d;stroke:#3d3d3d;" x="949.940112" xlink:href="#m094f28525a" y="466.648803"/>
     <use style="fill:#3d3d3d;stroke:#3d3d3d;" x="949.940112" xlink:href="#m094f28525a" y="459.805899"/>
     <use style="fill:#3d3d3d;stroke:#3d3d3d;" x="949.940112" xlink:href="#m094f28525a" y="461.655093"/>
    </g>
   </g>
   <g id="PatchCollection_11">
    <path clip-path="url(#p5b398dfd96)" d="M 934.016313 500.199726 
L 965.863912 500.199726 
L 965.863912 481.403433 
L 934.016313 481.403433 
z
" style="fill:#e0eaf1;stroke:#3d3d3d;stroke-width:1.5;"/>
    <path clip-path="url(#p5b398dfd96)" d="M 918.092513 497.335037 
L 981.787711 497.335037 
L 981.787711 486.073638 
L 918.092513 486.073638 
z
" style="fill:#3274a1;stroke:#3d3d3d;stroke-width:1.5;"/>
   </g>
   <g id="PathCollection_12">
    <g clip-path="url(#p5b398dfd96)">
     <use style="fill:#3d3d3d;stroke:#3d3d3d;" x="1014.935212" xlink:href="#m094f28525a" y="572.869276"/>
     <use style="fill:#3d3d3d;stroke:#3d3d3d;" x="1014.935212" xlink:href="#m094f28525a" y="576.717627"/>
     <use style="fill:#3d3d3d;stroke:#3d3d3d;" x="1014.935212" xlink:href="#m094f28525a" y="575.147198"/>
     <use style="fill:#3d3d3d;stroke:#3d3d3d;" x="1014.935212" xlink:href="#m094f28525a" y="574.268069"/>
     <use style="fill:#3d3d3d;stroke:#3d3d3d;" x="1014.935212" xlink:href="#m094f28525a" y="574.300919"/>
     <use style="fill:#3d3d3d;stroke:#3d3d3d;" x="1014.935212" xlink:href="#m094f28525a" y="576.962506"/>
     <use style="fill:#3d3d3d;stroke:#3d3d3d;" x="1014.935212" xlink:href="#m094f28525a" y="584.738018"/>
     <use style="fill:#3d3d3d;stroke:#3d3d3d;" x="1014.935212" xlink:href="#m094f28525a" y="421.597902"/>
     <use style="fill:#3d3d3d;stroke:#3d3d3d;" x="1014.935212" xlink:href="#m094f28525a" y="396.876867"/>
     <use style="fill:#3d3d3d;stroke:#3d3d3d;" x="1014.935212" xlink:href="#m094f28525a" y="428.179023"/>
     <use style="fill:#3d3d3d;stroke:#3d3d3d;" x="1014.935212" xlink:href="#m094f28525a" y="317.813542"/>
     <use style="fill:#3d3d3d;stroke:#3d3d3d;" x="1014.935212" xlink:href="#m094f28525a" y="149.629919"/>
     <use style="fill:#3d3d3d;stroke:#3d3d3d;" x="1014.935212" xlink:href="#m094f28525a" y="227.444836"/>
     <use style="fill:#3d3d3d;stroke:#3d3d3d;" x="1014.935212" xlink:href="#m094f28525a" y="399.1468"/>
    </g>
   </g>
   <g id="PatchCollection_12">
    <path clip-path="url(#p5b398dfd96)" d="M 999.011413 572.669084 
L 1030.859012 572.669084 
L 1030.859012 432.819249 
L 999.011413 432.819249 
z
" style="fill:#fbece0;stroke:#3d3d3d;stroke-width:1.5;"/>
    <path clip-path="url(#p5b398dfd96)" d="M 983.087613 570.814322 
L 1046.782811 570.814322 
L 1046.782811 549.399976 
L 983.087613 549.399976 
z
" style="fill:#e1812c;stroke:#3d3d3d;stroke-width:1.5;"/>
   </g>
   <g id="PathCollection_13">
    <g clip-path="url(#p5b398dfd96)">
     <use style="fill:#3d3d3d;stroke:#3d3d3d;" x="1079.930312" xlink:href="#m094f28525a" y="569.372795"/>
     <use style="fill:#3d3d3d;stroke:#3d3d3d;" x="1079.930312" xlink:href="#m094f28525a" y="569.693101"/>
     <use style="fill:#3d3d3d;stroke:#3d3d3d;" x="1079.930312" xlink:href="#m094f28525a" y="569.405755"/>
     <use style="fill:#3d3d3d;stroke:#3d3d3d;" x="1079.930312" xlink:href="#m094f28525a" y="570.726091"/>
     <use style="fill:#3d3d3d;stroke:#3d3d3d;" x="1079.930312" xlink:href="#m094f28525a" y="570.36506"/>
     <use style="fill:#3d3d3d;stroke:#3d3d3d;" x="1079.930312" xlink:href="#m094f28525a" y="571.091894"/>
     <use style="fill:#3d3d3d;stroke:#3d3d3d;" x="1079.930312" xlink:href="#m094f28525a" y="570.445234"/>
     <use style="fill:#3d3d3d;stroke:#3d3d3d;" x="1079.930312" xlink:href="#m094f28525a" y="424.774076"/>
     <use style="fill:#3d3d3d;stroke:#3d3d3d;" x="1079.930312" xlink:href="#m094f28525a" y="417.522"/>
     <use style="fill:#3d3d3d;stroke:#3d3d3d;" x="1079.930312" xlink:href="#m094f28525a" y="432.943285"/>
     <use style="fill:#3d3d3d;stroke:#3d3d3d;" x="1079.930312" xlink:href="#m094f28525a" y="335.282501"/>
     <use style="fill:#3d3d3d;stroke:#3d3d3d;" x="1079.930312" xlink:href="#m094f28525a" y="136.925222"/>
     <use style="fill:#3d3d3d;stroke:#3d3d3d;" x="1079.930312" xlink:href="#m094f28525a" y="72.606339"/>
     <use style="fill:#3d3d3d;stroke:#3d3d3d;" x="1079.930312" xlink:href="#m094f28525a" y="445.925951"/>
    </g>
   </g>
   <g id="PatchCollection_13">
    <path clip-path="url(#p5b398dfd96)" d="M 1064.006513 569.371684 
L 1095.854112 569.371684 
L 1095.854112 446.465616 
L 1064.006513 446.465616 
z
" style="fill:#e2efe2;stroke:#3d3d3d;stroke-width:1.5;"/>
    <path clip-path="url(#p5b398dfd96)" d="M 1048.082713 568.343453 
L 1111.777911 568.343453 
L 1111.777911 552.34043 
L 1048.082713 552.34043 
z
" style="fill:#3a923a;stroke:#3d3d3d;stroke-width:1.5;"/>
   </g>
   <g id="patch_3">
    <path clip-path="url(#p5b398dfd96)" d="M 267.491562 493.489692 
L 267.491562 493.489692 
L 267.491562 493.489692 
L 267.491562 493.489692 
z
" style="fill:#3274a1;stroke:#3d3d3d;stroke-linejoin:miter;stroke-width:0.75;"/>
   </g>
   <g id="patch_4">
    <path clip-path="url(#p5b398dfd96)" d="M 267.491562 493.489692 
L 267.491562 493.489692 
L 267.491562 493.489692 
L 267.491562 493.489692 
z
" style="fill:#e1812c;stroke:#3d3d3d;stroke-linejoin:miter;stroke-width:0.75;"/>
   </g>
   <g id="patch_5">
    <path clip-path="url(#p5b398dfd96)" d="M 267.491562 493.489692 
L 267.491562 493.489692 
L 267.491562 493.489692 
L 267.491562 493.489692 
z
" style="fill:#3a923a;stroke:#3d3d3d;stroke-linejoin:miter;stroke-width:0.75;"/>
   </g>
   <g id="patch_6">
    <path clip-path="url(#p5b398dfd96)" d="M 267.491562 493.489692 
L 267.491562 493.489692 
L 267.491562 493.489692 
L 267.491562 493.489692 
z
" style="fill:#c03d3e;stroke:#3d3d3d;stroke-linejoin:miter;stroke-width:0.75;"/>
   </g>
   <g id="patch_7">
    <path clip-path="url(#p5b398dfd96)" d="M 267.491562 493.489692 
L 267.491562 493.489692 
L 267.491562 493.489692 
L 267.491562 493.489692 
z
" style="fill:#9372b2;stroke:#3d3d3d;stroke-linejoin:miter;stroke-width:0.75;"/>
   </g>
   <g id="line2d_9">
    <path clip-path="url(#p5b398dfd96)" d="M 105.653764 493.489692 
L 169.348961 493.489692 
" style="fill:none;stroke:#262626;stroke-opacity:0.45;stroke-width:1.5;"/>
   </g>
   <g id="line2d_10">
    <path clip-path="url(#p5b398dfd96)" d="M 170.648864 572.745723 
L 234.344061 572.745723 
" style="fill:none;stroke:#262626;stroke-opacity:0.45;stroke-width:1.5;"/>
   </g>
   <g id="line2d_11">
    <path clip-path="url(#p5b398dfd96)" d="M 235.643963 571.279749 
L 299.339161 571.279749 
" style="fill:none;stroke:#262626;stroke-opacity:0.45;stroke-width:1.5;"/>
   </g>
   <g id="line2d_12">
    <path clip-path="url(#p5b398dfd96)" d="M 300.639063 492.841682 
L 364.334261 492.841682 
" style="fill:none;stroke:#262626;stroke-opacity:0.45;stroke-width:1.5;"/>
   </g>
   <g id="line2d_13">
    <path clip-path="url(#p5b398dfd96)" d="M 365.634163 493.511911 
L 429.329361 493.511911 
" style="fill:none;stroke:#262626;stroke-opacity:0.45;stroke-width:1.5;"/>
   </g>
   <g id="line2d_14">
    <path clip-path="url(#p5b398dfd96)" d="M 511.873138 493.489692 
L 575.568336 493.489692 
" style="fill:none;stroke:#262626;stroke-opacity:0.45;stroke-width:1.5;"/>
   </g>
   <g id="line2d_15">
    <path clip-path="url(#p5b398dfd96)" d="M 576.868238 571.570383 
L 640.563436 571.570383 
" style="fill:none;stroke:#262626;stroke-opacity:0.45;stroke-width:1.5;"/>
   </g>
   <g id="line2d_16">
    <path clip-path="url(#p5b398dfd96)" d="M 641.863338 569.560232 
L 705.558536 569.560232 
" style="fill:none;stroke:#262626;stroke-opacity:0.45;stroke-width:1.5;"/>
   </g>
   <g id="line2d_17">
    <path clip-path="url(#p5b398dfd96)" d="M 706.858438 492.41312 
L 770.553636 492.41312 
" style="fill:none;stroke:#262626;stroke-opacity:0.45;stroke-width:1.5;"/>
   </g>
   <g id="line2d_18">
    <path clip-path="url(#p5b398dfd96)" d="M 771.853539 493.272529 
L 835.548737 493.272529 
" style="fill:none;stroke:#262626;stroke-opacity:0.45;stroke-width:1.5;"/>
   </g>
   <g id="line2d_19">
    <path clip-path="url(#p5b398dfd96)" d="M 918.092513 493.303877 
L 981.787711 493.303877 
" style="fill:none;stroke:#262626;stroke-opacity:0.45;stroke-width:1.5;"/>
   </g>
   <g id="line2d_20">
    <path clip-path="url(#p5b398dfd96)" d="M 983.087613 561.845017 
L 1046.782811 561.845017 
" style="fill:none;stroke:#262626;stroke-opacity:0.45;stroke-width:1.5;"/>
   </g>
   <g id="line2d_21">
    <path clip-path="url(#p5b398dfd96)" d="M 1048.082713 561.627219 
L 1111.777911 561.627219 
" style="fill:none;stroke:#262626;stroke-opacity:0.45;stroke-width:1.5;"/>
   </g>
   <g id="patch_8">
    <path d="M 64.381875 1249.54 
L 64.381875 16.561879 
" style="fill:none;stroke:#ffffff;stroke-linecap:square;stroke-linejoin:miter;stroke-width:1.25;"/>
   </g>
   <g id="patch_9">
    <path d="M 1283.04 1249.54 
L 1283.04 16.561879 
" style="fill:none;stroke:#ffffff;stroke-linecap:square;stroke-linejoin:miter;stroke-width:1.25;"/>
   </g>
   <g id="patch_10">
    <path d="M 64.381875 1249.54 
L 1283.04 1249.54 
" style="fill:none;stroke:#ffffff;stroke-linecap:square;stroke-linejoin:miter;stroke-width:1.25;"/>
   </g>
   <g id="patch_11">
    <path d="M 64.381875 16.561879 
L 1283.04 16.561879 
" style="fill:none;stroke:#ffffff;stroke-linecap:square;stroke-linejoin:miter;stroke-width:1.25;"/>
   </g>
   <g id="legend_1">
    <g id="patch_12">
     <path d="M 1126.0975 119.635473 
L 1275.34 119.635473 
Q 1277.54 119.635473 1277.54 117.435473 
L 1277.54 24.261879 
Q 1277.54 22.061879 1275.34 22.061879 
L 1126.0975 22.061879 
Q 1123.8975 22.061879 1123.8975 24.261879 
L 1123.8975 117.435473 
Q 1123.8975 119.635473 1126.0975 119.635473 
z
" style="fill:#eaeaf2;opacity:0.8;stroke:#cccccc;stroke-linejoin:miter;"/>
    </g>
    <g id="text_14">
     <!-- method -->
     <g style="fill:#262626;" transform="translate(1180.707813 35.051254)scale(0.12 -0.12)">
      <defs>
       <path d="M 422 0 
L 422 3319 
L 925 3319 
L 925 2853 
Q 1081 3097 1340 3245 
Q 1600 3394 1931 3394 
Q 2300 3394 2536 3241 
Q 2772 3088 2869 2813 
Q 3263 3394 3894 3394 
Q 4388 3394 4653 3120 
Q 4919 2847 4919 2278 
L 4919 0 
L 4359 0 
L 4359 2091 
Q 4359 2428 4304 2576 
Q 4250 2725 4106 2815 
Q 3963 2906 3769 2906 
Q 3419 2906 3187 2673 
Q 2956 2441 2956 1928 
L 2956 0 
L 2394 0 
L 2394 2156 
Q 2394 2531 2256 2718 
Q 2119 2906 1806 2906 
Q 1569 2906 1367 2781 
Q 1166 2656 1075 2415 
Q 984 2175 984 1722 
L 984 0 
L 422 0 
z
" id="ArialMT-6d" transform="scale(0.015625)"/>
      </defs>
      <use xlink:href="#ArialMT-6d"/>
      <use x="83.300781" xlink:href="#ArialMT-65"/>
      <use x="138.916016" xlink:href="#ArialMT-74"/>
      <use x="166.699219" xlink:href="#ArialMT-68"/>
      <use x="222.314453" xlink:href="#ArialMT-6f"/>
      <use x="277.929688" xlink:href="#ArialMT-64"/>
     </g>
    </g>
    <g id="patch_13">
     <path d="M 1128.2975 50.809848 
L 1150.2975 50.809848 
L 1150.2975 43.109848 
L 1128.2975 43.109848 
z
" style="fill:#3274a1;stroke:#3d3d3d;stroke-linejoin:miter;stroke-width:0.75;"/>
    </g>
    <g id="text_15">
     <!-- smol, scaled=1000 -->
     <g style="fill:#262626;" transform="translate(1159.0975 50.809848)scale(0.11 -0.11)">
      <defs>
       <path d="M 197 991 
L 753 1078 
Q 800 744 1014 566 
Q 1228 388 1613 388 
Q 2000 388 2187 545 
Q 2375 703 2375 916 
Q 2375 1106 2209 1216 
Q 2094 1291 1634 1406 
Q 1016 1563 777 1677 
Q 538 1791 414 1992 
Q 291 2194 291 2438 
Q 291 2659 392 2848 
Q 494 3038 669 3163 
Q 800 3259 1026 3326 
Q 1253 3394 1513 3394 
Q 1903 3394 2198 3281 
Q 2494 3169 2634 2976 
Q 2775 2784 2828 2463 
L 2278 2388 
Q 2241 2644 2061 2787 
Q 1881 2931 1553 2931 
Q 1166 2931 1000 2803 
Q 834 2675 834 2503 
Q 834 2394 903 2306 
Q 972 2216 1119 2156 
Q 1203 2125 1616 2013 
Q 2213 1853 2448 1751 
Q 2684 1650 2818 1456 
Q 2953 1263 2953 975 
Q 2953 694 2789 445 
Q 2625 197 2315 61 
Q 2006 -75 1616 -75 
Q 969 -75 630 194 
Q 291 463 197 991 
z
" id="ArialMT-73" transform="scale(0.015625)"/>
       <path d="M 409 0 
L 409 4581 
L 972 4581 
L 972 0 
L 409 0 
z
" id="ArialMT-6c" transform="scale(0.015625)"/>
       <path d="M 569 0 
L 569 641 
L 1209 641 
L 1209 0 
Q 1209 -353 1084 -570 
Q 959 -788 688 -906 
L 531 -666 
Q 709 -588 793 -436 
Q 878 -284 888 0 
L 569 0 
z
" id="ArialMT-2c" transform="scale(0.015625)"/>
       <path d="M 2588 409 
Q 2275 144 1986 34 
Q 1697 -75 1366 -75 
Q 819 -75 525 192 
Q 231 459 231 875 
Q 231 1119 342 1320 
Q 453 1522 633 1644 
Q 813 1766 1038 1828 
Q 1203 1872 1538 1913 
Q 2219 1994 2541 2106 
Q 2544 2222 2544 2253 
Q 2544 2597 2384 2738 
Q 2169 2928 1744 2928 
Q 1347 2928 1158 2789 
Q 969 2650 878 2297 
L 328 2372 
Q 403 2725 575 2942 
Q 747 3159 1072 3276 
Q 1397 3394 1825 3394 
Q 2250 3394 2515 3294 
Q 2781 3194 2906 3042 
Q 3031 2891 3081 2659 
Q 3109 2516 3109 2141 
L 3109 1391 
Q 3109 606 3145 398 
Q 3181 191 3288 0 
L 2700 0 
Q 2613 175 2588 409 
z
M 2541 1666 
Q 2234 1541 1622 1453 
Q 1275 1403 1131 1340 
Q 988 1278 909 1158 
Q 831 1038 831 891 
Q 831 666 1001 516 
Q 1172 366 1500 366 
Q 1825 366 2078 508 
Q 2331 650 2450 897 
Q 2541 1088 2541 1459 
L 2541 1666 
z
" id="ArialMT-61" transform="scale(0.015625)"/>
       <path d="M 3381 2694 
L 356 2694 
L 356 3219 
L 3381 3219 
L 3381 2694 
z
M 3381 1303 
L 356 1303 
L 356 1828 
L 3381 1828 
L 3381 1303 
z
" id="ArialMT-3d" transform="scale(0.015625)"/>
      </defs>
      <use xlink:href="#ArialMT-73"/>
      <use x="50" xlink:href="#ArialMT-6d"/>
      <use x="133.300781" xlink:href="#ArialMT-6f"/>
      <use x="188.916016" xlink:href="#ArialMT-6c"/>
      <use x="211.132812" xlink:href="#ArialMT-2c"/>
      <use x="238.916016" xlink:href="#ArialMT-20"/>
      <use x="266.699219" xlink:href="#ArialMT-73"/>
      <use x="316.699219" xlink:href="#ArialMT-63"/>
      <use x="366.699219" xlink:href="#ArialMT-61"/>
      <use x="422.314453" xlink:href="#ArialMT-6c"/>
      <use x="444.53125" xlink:href="#ArialMT-65"/>
      <use x="500.146484" xlink:href="#ArialMT-64"/>
      <use x="555.761719" xlink:href="#ArialMT-3d"/>
      <use x="614.160156" xlink:href="#ArialMT-31"/>
      <use x="669.775391" xlink:href="#ArialMT-30"/>
      <use x="725.390625" xlink:href="#ArialMT-30"/>
      <use x="781.005859" xlink:href="#ArialMT-30"/>
     </g>
    </g>
    <g id="patch_14">
     <path d="M 1128.2975 66.369692 
L 1150.2975 66.369692 
L 1150.2975 58.669692 
L 1128.2975 58.669692 
z
" style="fill:#e1812c;stroke:#3d3d3d;stroke-linejoin:miter;stroke-width:0.75;"/>
    </g>
    <g id="text_16">
     <!-- CMash, n=1000 -->
     <g style="fill:#262626;" transform="translate(1159.0975 66.369692)scale(0.11 -0.11)">
      <defs>
       <path d="M 3763 1606 
L 4369 1453 
Q 4178 706 3683 314 
Q 3188 -78 2472 -78 
Q 1731 -78 1267 223 
Q 803 525 561 1097 
Q 319 1669 319 2325 
Q 319 3041 592 3573 
Q 866 4106 1370 4382 
Q 1875 4659 2481 4659 
Q 3169 4659 3637 4309 
Q 4106 3959 4291 3325 
L 3694 3184 
Q 3534 3684 3231 3912 
Q 2928 4141 2469 4141 
Q 1941 4141 1586 3887 
Q 1231 3634 1087 3207 
Q 944 2781 944 2328 
Q 944 1744 1114 1308 
Q 1284 872 1643 656 
Q 2003 441 2422 441 
Q 2931 441 3284 734 
Q 3638 1028 3763 1606 
z
" id="ArialMT-43" transform="scale(0.015625)"/>
       <path d="M 475 0 
L 475 4581 
L 1388 4581 
L 2472 1338 
Q 2622 884 2691 659 
Q 2769 909 2934 1394 
L 4031 4581 
L 4847 4581 
L 4847 0 
L 4263 0 
L 4263 3834 
L 2931 0 
L 2384 0 
L 1059 3900 
L 1059 0 
L 475 0 
z
" id="ArialMT-4d" transform="scale(0.015625)"/>
      </defs>
      <use xlink:href="#ArialMT-43"/>
      <use x="72.216797" xlink:href="#ArialMT-4d"/>
      <use x="155.517578" xlink:href="#ArialMT-61"/>
      <use x="211.132812" xlink:href="#ArialMT-73"/>
      <use x="261.132812" xlink:href="#ArialMT-68"/>
      <use x="316.748047" xlink:href="#ArialMT-2c"/>
      <use x="344.53125" xlink:href="#ArialMT-20"/>
      <use x="372.314453" xlink:href="#ArialMT-6e"/>
      <use x="427.929688" xlink:href="#ArialMT-3d"/>
      <use x="486.328125" xlink:href="#ArialMT-31"/>
      <use x="541.943359" xlink:href="#ArialMT-30"/>
      <use x="597.558594" xlink:href="#ArialMT-30"/>
      <use x="653.173828" xlink:href="#ArialMT-30"/>
     </g>
    </g>
    <g id="patch_15">
     <path d="M 1128.2975 81.929536 
L 1150.2975 81.929536 
L 1150.2975 74.229536 
L 1128.2975 74.229536 
z
" style="fill:#3a923a;stroke:#3d3d3d;stroke-linejoin:miter;stroke-width:0.75;"/>
    </g>
    <g id="text_17">
     <!-- CMash, n=10000 -->
     <g style="fill:#262626;" transform="translate(1159.0975 81.929536)scale(0.11 -0.11)">
      <use xlink:href="#ArialMT-43"/>
      <use x="72.216797" xlink:href="#ArialMT-4d"/>
      <use x="155.517578" xlink:href="#ArialMT-61"/>
      <use x="211.132812" xlink:href="#ArialMT-73"/>
      <use x="261.132812" xlink:href="#ArialMT-68"/>
      <use x="316.748047" xlink:href="#ArialMT-2c"/>
      <use x="344.53125" xlink:href="#ArialMT-20"/>
      <use x="372.314453" xlink:href="#ArialMT-6e"/>
      <use x="427.929688" xlink:href="#ArialMT-3d"/>
      <use x="486.328125" xlink:href="#ArialMT-31"/>
      <use x="541.943359" xlink:href="#ArialMT-30"/>
      <use x="597.558594" xlink:href="#ArialMT-30"/>
      <use x="653.173828" xlink:href="#ArialMT-30"/>
      <use x="708.789062" xlink:href="#ArialMT-30"/>
     </g>
    </g>
    <g id="patch_16">
     <path d="M 1128.2975 97.489379 
L 1150.2975 97.489379 
L 1150.2975 89.789379 
L 1128.2975 89.789379 
z
" style="fill:#c03d3e;stroke:#3d3d3d;stroke-linejoin:miter;stroke-width:0.75;"/>
    </g>
    <g id="text_18">
     <!-- Mash Screen, n=1000 -->
     <g style="fill:#262626;" transform="translate(1159.0975 97.489379)scale(0.11 -0.11)">
      <defs>
       <path d="M 288 1472 
L 859 1522 
Q 900 1178 1048 958 
Q 1197 738 1509 602 
Q 1822 466 2213 466 
Q 2559 466 2825 569 
Q 3091 672 3220 851 
Q 3350 1031 3350 1244 
Q 3350 1459 3225 1620 
Q 3100 1781 2813 1891 
Q 2628 1963 1997 2114 
Q 1366 2266 1113 2400 
Q 784 2572 623 2826 
Q 463 3081 463 3397 
Q 463 3744 659 4045 
Q 856 4347 1234 4503 
Q 1613 4659 2075 4659 
Q 2584 4659 2973 4495 
Q 3363 4331 3572 4012 
Q 3781 3694 3797 3291 
L 3216 3247 
Q 3169 3681 2898 3903 
Q 2628 4125 2100 4125 
Q 1550 4125 1298 3923 
Q 1047 3722 1047 3438 
Q 1047 3191 1225 3031 
Q 1400 2872 2139 2705 
Q 2878 2538 3153 2413 
Q 3553 2228 3743 1945 
Q 3934 1663 3934 1294 
Q 3934 928 3725 604 
Q 3516 281 3123 101 
Q 2731 -78 2241 -78 
Q 1619 -78 1198 103 
Q 778 284 539 648 
Q 300 1013 288 1472 
z
" id="ArialMT-53" transform="scale(0.015625)"/>
      </defs>
      <use xlink:href="#ArialMT-4d"/>
      <use x="83.300781" xlink:href="#ArialMT-61"/>
      <use x="138.916016" xlink:href="#ArialMT-73"/>
      <use x="188.916016" xlink:href="#ArialMT-68"/>
      <use x="244.53125" xlink:href="#ArialMT-20"/>
      <use x="272.314453" xlink:href="#ArialMT-53"/>
      <use x="339.013672" xlink:href="#ArialMT-63"/>
      <use x="389.013672" xlink:href="#ArialMT-72"/>
      <use x="422.314453" xlink:href="#ArialMT-65"/>
      <use x="477.929688" xlink:href="#ArialMT-65"/>
      <use x="533.544922" xlink:href="#ArialMT-6e"/>
      <use x="589.160156" xlink:href="#ArialMT-2c"/>
      <use x="616.943359" xlink:href="#ArialMT-20"/>
      <use x="644.726562" xlink:href="#ArialMT-6e"/>
      <use x="700.341797" xlink:href="#ArialMT-3d"/>
      <use x="758.740234" xlink:href="#ArialMT-31"/>
      <use x="814.355469" xlink:href="#ArialMT-30"/>
      <use x="869.970703" xlink:href="#ArialMT-30"/>
      <use x="925.585938" xlink:href="#ArialMT-30"/>
     </g>
    </g>
    <g id="patch_17">
     <path d="M 1128.2975 113.049223 
L 1150.2975 113.049223 
L 1150.2975 105.349223 
L 1128.2975 105.349223 
z
" style="fill:#9372b2;stroke:#3d3d3d;stroke-linejoin:miter;stroke-width:0.75;"/>
    </g>
    <g id="text_19">
     <!-- Mash Screen, n=10000 -->
     <g style="fill:#262626;" transform="translate(1159.0975 113.049223)scale(0.11 -0.11)">
      <use xlink:href="#ArialMT-4d"/>
      <use x="83.300781" xlink:href="#ArialMT-61"/>
      <use x="138.916016" xlink:href="#ArialMT-73"/>
      <use x="188.916016" xlink:href="#ArialMT-68"/>
      <use x="244.53125" xlink:href="#ArialMT-20"/>
      <use x="272.314453" xlink:href="#ArialMT-53"/>
      <use x="339.013672" xlink:href="#ArialMT-63"/>
      <use x="389.013672" xlink:href="#ArialMT-72"/>
      <use x="422.314453" xlink:href="#ArialMT-65"/>
      <use x="477.929688" xlink:href="#ArialMT-65"/>
      <use x="533.544922" xlink:href="#ArialMT-6e"/>
      <use x="589.160156" xlink:href="#ArialMT-2c"/>
      <use x="616.943359" xlink:href="#ArialMT-20"/>
      <use x="644.726562" xlink:href="#ArialMT-6e"/>
      <use x="700.341797" xlink:href="#ArialMT-3d"/>
      <use x="758.740234" xlink:href="#ArialMT-31"/>
      <use x="814.355469" xlink:href="#ArialMT-30"/>
      <use x="869.970703" xlink:href="#ArialMT-30"/>
      <use x="925.585938" xlink:href="#ArialMT-30"/>
      <use x="981.201172" xlink:href="#ArialMT-30"/>
     </g>
    </g>
   </g>
  </g>
 </g>
 <defs>
  <clipPath id="p5b398dfd96">
   <rect height="1232.978121" width="1218.658125" x="64.381875" y="16.561879"/>
  </clipPath>
 </defs>
</svg>
