<?xml version="1.0" encoding="utf-8" standalone="no"?>
<!DOCTYPE svg PUBLIC "-//W3C//DTD SVG 1.1//EN"
  "http://www.w3.org/Graphics/SVG/1.1/DTD/svg11.dtd">
<!-- Created with matplotlib (https://matplotlib.org/) -->
<svg height="864pt" version="1.1" viewBox="0 0 1296 864" width="1296pt" xmlns="http://www.w3.org/2000/svg" xmlns:xlink="http://www.w3.org/1999/xlink">
 <metadata>
  <rdf:RDF xmlns:cc="http://creativecommons.org/ns#" xmlns:dc="http://purl.org/dc/elements/1.1/" xmlns:rdf="http://www.w3.org/1999/02/22-rdf-syntax-ns#">
   <cc:Work>
    <dc:type rdf:resource="http://purl.org/dc/dcmitype/StillImage"/>
    <dc:date>2021-12-27T08:11:00.085890</dc:date>
    <dc:format>image/svg+xml</dc:format>
    <dc:creator>
     <cc:Agent>
      <dc:title>Matplotlib v3.3.2, https://matplotlib.org/</dc:title>
     </cc:Agent>
    </dc:creator>
   </cc:Work>
  </rdf:RDF>
 </metadata>
 <defs>
  <style type="text/css">*{stroke-linecap:butt;stroke-linejoin:round;}</style>
 </defs>
 <g id="figure_1">
  <g id="patch_1">
   <path d="M 0 864 
L 1296 864 
L 1296 0 
L 0 0 
z
" style="fill:#ffffff;"/>
  </g>
  <g id="axes_1">
   <g id="patch_2">
    <path d="M 64.381875 817.54 
L 1283.04 817.54 
L 1283.04 16.694586 
L 64.381875 16.694586 
z
" style="fill:#eaeaf2;"/>
   </g>
   <g id="matplotlib.axis_1">
    <g id="xtick_1">
     <g id="text_1">
      <!-- 21 -->
      <g style="fill:#262626;" transform="translate(261.374531 834.913594)scale(0.11 -0.11)">
       <defs>
        <path d="M 50.34375 8.453125 
L 50.34375 0 
L 3.03125 0 
Q 2.9375 3.171875 4.046875 6.109375 
Q 5.859375 10.9375 9.828125 15.625 
Q 13.8125 20.3125 21.34375 26.46875 
Q 33.015625 36.03125 37.109375 41.625 
Q 41.21875 47.21875 41.21875 52.203125 
Q 41.21875 57.421875 37.46875 61 
Q 33.734375 64.59375 27.734375 64.59375 
Q 21.390625 64.59375 17.578125 60.78125 
Q 13.765625 56.984375 13.71875 50.25 
L 4.6875 51.171875 
Q 5.609375 61.28125 11.65625 66.578125 
Q 17.71875 71.875 27.9375 71.875 
Q 38.234375 71.875 44.234375 66.15625 
Q 50.25 60.453125 50.25 52 
Q 50.25 47.703125 48.484375 43.546875 
Q 46.734375 39.40625 42.65625 34.8125 
Q 38.578125 30.21875 29.109375 22.21875 
Q 21.1875 15.578125 18.9375 13.203125 
Q 16.703125 10.84375 15.234375 8.453125 
z
" id="ArialMT-50"/>
        <path d="M 37.25 0 
L 28.46875 0 
L 28.46875 56 
Q 25.296875 52.984375 20.140625 49.953125 
Q 14.984375 46.921875 10.890625 45.40625 
L 10.890625 53.90625 
Q 18.265625 57.375 23.78125 62.296875 
Q 29.296875 67.234375 31.59375 71.875 
L 37.25 71.875 
z
" id="ArialMT-49"/>
       </defs>
       <use xlink:href="#ArialMT-50"/>
       <use x="55.615234" xlink:href="#ArialMT-49"/>
      </g>
     </g>
    </g>
    <g id="xtick_2">
     <g id="text_2">
      <!-- 31 -->
      <g style="fill:#262626;" transform="translate(667.593906 834.913594)scale(0.11 -0.11)">
       <defs>
        <path d="M 4.203125 18.890625 
L 12.984375 20.0625 
Q 14.5 12.59375 18.140625 9.296875 
Q 21.78125 6 27 6 
Q 33.203125 6 37.46875 10.296875 
Q 41.75 14.59375 41.75 20.953125 
Q 41.75 27 37.796875 30.921875 
Q 33.84375 34.859375 27.734375 34.859375 
Q 25.25 34.859375 21.53125 33.890625 
L 22.515625 41.609375 
Q 23.390625 41.5 23.921875 41.5 
Q 29.546875 41.5 34.03125 44.421875 
Q 38.53125 47.359375 38.53125 53.46875 
Q 38.53125 58.296875 35.25 61.46875 
Q 31.984375 64.65625 26.8125 64.65625 
Q 21.6875 64.65625 18.265625 61.421875 
Q 14.84375 58.203125 13.875 51.765625 
L 5.078125 53.328125 
Q 6.6875 62.15625 12.390625 67.015625 
Q 18.109375 71.875 26.609375 71.875 
Q 32.46875 71.875 37.390625 69.359375 
Q 42.328125 66.84375 44.9375 62.5 
Q 47.5625 58.15625 47.5625 53.265625 
Q 47.5625 48.640625 45.0625 44.828125 
Q 42.578125 41.015625 37.703125 38.765625 
Q 44.046875 37.3125 47.5625 32.6875 
Q 51.078125 28.078125 51.078125 21.140625 
Q 51.078125 11.765625 44.234375 5.25 
Q 37.40625 -1.265625 26.953125 -1.265625 
Q 17.53125 -1.265625 11.296875 4.34375 
Q 5.078125 9.96875 4.203125 18.890625 
z
" id="ArialMT-51"/>
       </defs>
       <use xlink:href="#ArialMT-51"/>
       <use x="55.615234" xlink:href="#ArialMT-49"/>
      </g>
     </g>
    </g>
    <g id="xtick_3">
     <g id="text_3">
      <!-- 51 -->
      <g style="fill:#262626;" transform="translate(1073.813281 834.913594)scale(0.11 -0.11)">
       <defs>
        <path d="M 4.15625 18.75 
L 13.375 19.53125 
Q 14.40625 12.796875 18.140625 9.390625 
Q 21.875 6 27.15625 6 
Q 33.5 6 37.890625 10.78125 
Q 42.28125 15.578125 42.28125 23.484375 
Q 42.28125 31 38.0625 35.34375 
Q 33.84375 39.703125 27 39.703125 
Q 22.75 39.703125 19.328125 37.765625 
Q 15.921875 35.84375 13.96875 32.765625 
L 5.71875 33.84375 
L 12.640625 70.609375 
L 48.25 70.609375 
L 48.25 62.203125 
L 19.671875 62.203125 
L 15.828125 42.96875 
Q 22.265625 47.46875 29.34375 47.46875 
Q 38.71875 47.46875 45.15625 40.96875 
Q 51.609375 34.46875 51.609375 24.265625 
Q 51.609375 14.546875 45.953125 7.46875 
Q 39.0625 -1.21875 27.15625 -1.21875 
Q 17.390625 -1.21875 11.203125 4.25 
Q 5.03125 9.71875 4.15625 18.75 
z
" id="ArialMT-53"/>
       </defs>
       <use xlink:href="#ArialMT-53"/>
       <use x="55.615234" xlink:href="#ArialMT-49"/>
      </g>
     </g>
    </g>
    <g id="text_4">
     <!-- k-mer size -->
     <g style="fill:#262626;" transform="translate(646.044375 849.689219)scale(0.12 -0.12)">
      <defs>
       <path d="M 6.640625 0 
L 6.640625 71.578125 
L 15.4375 71.578125 
L 15.4375 30.765625 
L 36.234375 51.859375 
L 47.609375 51.859375 
L 27.78125 32.625 
L 49.609375 0 
L 38.765625 0 
L 21.625 26.515625 
L 15.4375 20.5625 
L 15.4375 0 
z
" id="ArialMT-107"/>
       <path d="M 3.171875 21.484375 
L 3.171875 30.328125 
L 30.171875 30.328125 
L 30.171875 21.484375 
z
" id="ArialMT-45"/>
       <path d="M 6.59375 0 
L 6.59375 51.859375 
L 14.453125 51.859375 
L 14.453125 44.578125 
Q 16.890625 48.390625 20.9375 50.703125 
Q 25 53.03125 30.171875 53.03125 
Q 35.9375 53.03125 39.625 50.640625 
Q 43.3125 48.25 44.828125 43.953125 
Q 50.984375 53.03125 60.84375 53.03125 
Q 68.5625 53.03125 72.703125 48.75 
Q 76.859375 44.484375 76.859375 35.59375 
L 76.859375 0 
L 68.109375 0 
L 68.109375 32.671875 
Q 68.109375 37.9375 67.25 40.25 
Q 66.40625 42.578125 64.15625 43.984375 
Q 61.921875 45.40625 58.890625 45.40625 
Q 53.421875 45.40625 49.796875 41.765625 
Q 46.1875 38.140625 46.1875 30.125 
L 46.1875 0 
L 37.40625 0 
L 37.40625 33.6875 
Q 37.40625 39.546875 35.25 42.46875 
Q 33.109375 45.40625 28.21875 45.40625 
Q 24.515625 45.40625 21.359375 43.453125 
Q 18.21875 41.5 16.796875 37.734375 
Q 15.375 33.984375 15.375 26.90625 
L 15.375 0 
z
" id="ArialMT-109"/>
       <path d="M 42.09375 16.703125 
L 51.171875 15.578125 
Q 49.03125 7.625 43.21875 3.21875 
Q 37.40625 -1.171875 28.375 -1.171875 
Q 17 -1.171875 10.328125 5.828125 
Q 3.65625 12.84375 3.65625 25.484375 
Q 3.65625 38.578125 10.390625 45.796875 
Q 17.140625 53.03125 27.875 53.03125 
Q 38.28125 53.03125 44.875 45.953125 
Q 51.46875 38.875 51.46875 26.03125 
Q 51.46875 25.25 51.421875 23.6875 
L 12.75 23.6875 
Q 13.234375 15.140625 17.578125 10.59375 
Q 21.921875 6.0625 28.421875 6.0625 
Q 33.25 6.0625 36.671875 8.59375 
Q 40.09375 11.140625 42.09375 16.703125 
z
M 13.234375 30.90625 
L 42.1875 30.90625 
Q 41.609375 37.453125 38.875 40.71875 
Q 34.671875 45.796875 27.984375 45.796875 
Q 21.921875 45.796875 17.796875 41.75 
Q 13.671875 37.703125 13.234375 30.90625 
z
" id="ArialMT-101"/>
       <path d="M 6.5 0 
L 6.5 51.859375 
L 14.40625 51.859375 
L 14.40625 44 
Q 17.4375 49.515625 20 51.265625 
Q 22.5625 53.03125 25.640625 53.03125 
Q 30.078125 53.03125 34.671875 50.203125 
L 31.640625 42.046875 
Q 28.421875 43.953125 25.203125 43.953125 
Q 22.3125 43.953125 20.015625 42.21875 
Q 17.71875 40.484375 16.75 37.40625 
Q 15.28125 32.71875 15.28125 27.15625 
L 15.28125 0 
z
" id="ArialMT-114"/>
       <path id="ArialMT-32"/>
       <path d="M 3.078125 15.484375 
L 11.765625 16.84375 
Q 12.5 11.625 15.84375 8.84375 
Q 19.1875 6.0625 25.203125 6.0625 
Q 31.25 6.0625 34.171875 8.515625 
Q 37.109375 10.984375 37.109375 14.3125 
Q 37.109375 17.28125 34.515625 19 
Q 32.71875 20.171875 25.53125 21.96875 
Q 15.875 24.421875 12.140625 26.203125 
Q 8.40625 27.984375 6.46875 31.125 
Q 4.546875 34.28125 4.546875 38.09375 
Q 4.546875 41.546875 6.125 44.5 
Q 7.71875 47.46875 10.453125 49.421875 
Q 12.5 50.921875 16.03125 51.96875 
Q 19.578125 53.03125 23.640625 53.03125 
Q 29.734375 53.03125 34.34375 51.265625 
Q 38.96875 49.515625 41.15625 46.5 
Q 43.359375 43.5 44.1875 38.484375 
L 35.59375 37.3125 
Q 35.015625 41.3125 32.203125 43.546875 
Q 29.390625 45.796875 24.265625 45.796875 
Q 18.21875 45.796875 15.625 43.796875 
Q 13.03125 41.796875 13.03125 39.109375 
Q 13.03125 37.40625 14.109375 36.03125 
Q 15.1875 34.625 17.484375 33.6875 
Q 18.796875 33.203125 25.25 31.453125 
Q 34.578125 28.953125 38.25 27.359375 
Q 41.9375 25.78125 44.03125 22.75 
Q 46.140625 19.734375 46.140625 15.234375 
Q 46.140625 10.84375 43.578125 6.953125 
Q 41.015625 3.078125 36.171875 0.953125 
Q 31.34375 -1.171875 25.25 -1.171875 
Q 15.140625 -1.171875 9.84375 3.03125 
Q 4.546875 7.234375 3.078125 15.484375 
z
" id="ArialMT-115"/>
       <path d="M 6.640625 61.46875 
L 6.640625 71.578125 
L 15.4375 71.578125 
L 15.4375 61.46875 
z
M 6.640625 0 
L 6.640625 51.859375 
L 15.4375 51.859375 
L 15.4375 0 
z
" id="ArialMT-105"/>
       <path d="M 1.953125 0 
L 1.953125 7.125 
L 34.96875 45.015625 
Q 29.34375 44.734375 25.046875 44.734375 
L 3.90625 44.734375 
L 3.90625 51.859375 
L 46.296875 51.859375 
L 46.296875 46.046875 
L 18.21875 13.140625 
L 12.796875 7.125 
Q 18.703125 7.5625 23.875 7.5625 
L 47.859375 7.5625 
L 47.859375 0 
z
" id="ArialMT-122"/>
      </defs>
      <use xlink:href="#ArialMT-107"/>
      <use x="50" xlink:href="#ArialMT-45"/>
      <use x="83.300781" xlink:href="#ArialMT-109"/>
      <use x="166.601562" xlink:href="#ArialMT-101"/>
      <use x="222.216797" xlink:href="#ArialMT-114"/>
      <use x="255.517578" xlink:href="#ArialMT-32"/>
      <use x="283.300781" xlink:href="#ArialMT-115"/>
      <use x="333.300781" xlink:href="#ArialMT-105"/>
      <use x="355.517578" xlink:href="#ArialMT-122"/>
      <use x="405.517578" xlink:href="#ArialMT-101"/>
     </g>
    </g>
   </g>
   <g id="matplotlib.axis_2">
    <g id="ytick_1">
     <g id="line2d_1">
      <path clip-path="url(#p5d10de79cc)" d="M 64.381875 739.067805 
L 1283.04 739.067805 
" style="fill:none;stroke:#ffffff;stroke-linecap:round;"/>
     </g>
     <g id="text_5">
      <!-- −0.08 -->
      <g style="fill:#262626;" transform="translate(27.050156 743.004602)scale(0.11 -0.11)">
       <defs>
        <path d="M 52.828125 31.203125 
L 5.5625 31.203125 
L 5.5625 39.40625 
L 52.828125 39.40625 
z
" id="ArialMT-8722"/>
        <path d="M 4.15625 35.296875 
Q 4.15625 48 6.765625 55.734375 
Q 9.375 63.484375 14.515625 67.671875 
Q 19.671875 71.875 27.484375 71.875 
Q 33.25 71.875 37.59375 69.546875 
Q 41.9375 67.234375 44.765625 62.859375 
Q 47.609375 58.5 49.21875 52.21875 
Q 50.828125 45.953125 50.828125 35.296875 
Q 50.828125 22.703125 48.234375 14.96875 
Q 45.65625 7.234375 40.5 3 
Q 35.359375 -1.21875 27.484375 -1.21875 
Q 17.140625 -1.21875 11.234375 6.203125 
Q 4.15625 15.140625 4.15625 35.296875 
z
M 13.1875 35.296875 
Q 13.1875 17.671875 17.3125 11.828125 
Q 21.4375 6 27.484375 6 
Q 33.546875 6 37.671875 11.859375 
Q 41.796875 17.71875 41.796875 35.296875 
Q 41.796875 52.984375 37.671875 58.78125 
Q 33.546875 64.59375 27.390625 64.59375 
Q 21.34375 64.59375 17.71875 59.46875 
Q 13.1875 52.9375 13.1875 35.296875 
z
" id="ArialMT-48"/>
        <path d="M 9.078125 0 
L 9.078125 10.015625 
L 19.09375 10.015625 
L 19.09375 0 
z
" id="ArialMT-46"/>
        <path d="M 17.671875 38.8125 
Q 12.203125 40.828125 9.5625 44.53125 
Q 6.9375 48.25 6.9375 53.421875 
Q 6.9375 61.234375 12.546875 66.546875 
Q 18.171875 71.875 27.484375 71.875 
Q 36.859375 71.875 42.578125 66.421875 
Q 48.296875 60.984375 48.296875 53.171875 
Q 48.296875 48.1875 45.671875 44.5 
Q 43.0625 40.828125 37.75 38.8125 
Q 44.34375 36.671875 47.78125 31.875 
Q 51.21875 27.09375 51.21875 20.453125 
Q 51.21875 11.28125 44.71875 5.03125 
Q 38.234375 -1.21875 27.640625 -1.21875 
Q 17.046875 -1.21875 10.546875 5.046875 
Q 4.046875 11.328125 4.046875 20.703125 
Q 4.046875 27.6875 7.59375 32.390625 
Q 11.140625 37.109375 17.671875 38.8125 
z
M 15.921875 53.71875 
Q 15.921875 48.640625 19.1875 45.40625 
Q 22.46875 42.1875 27.6875 42.1875 
Q 32.765625 42.1875 36.015625 45.375 
Q 39.265625 48.578125 39.265625 53.21875 
Q 39.265625 58.0625 35.90625 61.359375 
Q 32.5625 64.65625 27.59375 64.65625 
Q 22.5625 64.65625 19.234375 61.421875 
Q 15.921875 58.203125 15.921875 53.71875 
z
M 13.09375 20.65625 
Q 13.09375 16.890625 14.875 13.375 
Q 16.65625 9.859375 20.171875 7.921875 
Q 23.6875 6 27.734375 6 
Q 34.03125 6 38.125 10.046875 
Q 42.234375 14.109375 42.234375 20.359375 
Q 42.234375 26.703125 38.015625 30.859375 
Q 33.796875 35.015625 27.4375 35.015625 
Q 21.234375 35.015625 17.15625 30.90625 
Q 13.09375 26.8125 13.09375 20.65625 
z
" id="ArialMT-56"/>
       </defs>
       <use xlink:href="#ArialMT-8722"/>
       <use x="58.398438" xlink:href="#ArialMT-48"/>
       <use x="114.013672" xlink:href="#ArialMT-46"/>
       <use x="141.796875" xlink:href="#ArialMT-48"/>
       <use x="197.412109" xlink:href="#ArialMT-56"/>
      </g>
     </g>
    </g>
    <g id="ytick_2">
     <g id="line2d_2">
      <path clip-path="url(#p5d10de79cc)" d="M 64.381875 635.91818 
L 1283.04 635.91818 
" style="fill:none;stroke:#ffffff;stroke-linecap:round;"/>
     </g>
     <g id="text_6">
      <!-- −0.06 -->
      <g style="fill:#262626;" transform="translate(27.050156 639.854977)scale(0.11 -0.11)">
       <defs>
        <path d="M 49.75 54.046875 
L 41.015625 53.375 
Q 39.84375 58.546875 37.703125 60.890625 
Q 34.125 64.65625 28.90625 64.65625 
Q 24.703125 64.65625 21.53125 62.3125 
Q 17.390625 59.28125 14.984375 53.46875 
Q 12.59375 47.65625 12.5 36.921875 
Q 15.671875 41.75 20.265625 44.09375 
Q 24.859375 46.4375 29.890625 46.4375 
Q 38.671875 46.4375 44.84375 39.96875 
Q 51.03125 33.5 51.03125 23.25 
Q 51.03125 16.5 48.125 10.71875 
Q 45.21875 4.9375 40.140625 1.859375 
Q 35.0625 -1.21875 28.609375 -1.21875 
Q 17.625 -1.21875 10.6875 6.859375 
Q 3.765625 14.9375 3.765625 33.5 
Q 3.765625 54.25 11.421875 63.671875 
Q 18.109375 71.875 29.4375 71.875 
Q 37.890625 71.875 43.28125 67.140625 
Q 48.6875 62.40625 49.75 54.046875 
z
M 13.875 23.1875 
Q 13.875 18.65625 15.796875 14.5 
Q 17.71875 10.359375 21.1875 8.171875 
Q 24.65625 6 28.46875 6 
Q 34.03125 6 38.03125 10.484375 
Q 42.046875 14.984375 42.046875 22.703125 
Q 42.046875 30.125 38.078125 34.390625 
Q 34.125 38.671875 28.125 38.671875 
Q 22.171875 38.671875 18.015625 34.390625 
Q 13.875 30.125 13.875 23.1875 
z
" id="ArialMT-54"/>
       </defs>
       <use xlink:href="#ArialMT-8722"/>
       <use x="58.398438" xlink:href="#ArialMT-48"/>
       <use x="114.013672" xlink:href="#ArialMT-46"/>
       <use x="141.796875" xlink:href="#ArialMT-48"/>
       <use x="197.412109" xlink:href="#ArialMT-54"/>
      </g>
     </g>
    </g>
    <g id="ytick_3">
     <g id="line2d_3">
      <path clip-path="url(#p5d10de79cc)" d="M 64.381875 532.768555 
L 1283.04 532.768555 
" style="fill:none;stroke:#ffffff;stroke-linecap:round;"/>
     </g>
     <g id="text_7">
      <!-- −0.04 -->
      <g style="fill:#262626;" transform="translate(27.050156 536.705352)scale(0.11 -0.11)">
       <defs>
        <path d="M 32.328125 0 
L 32.328125 17.140625 
L 1.265625 17.140625 
L 1.265625 25.203125 
L 33.9375 71.578125 
L 41.109375 71.578125 
L 41.109375 25.203125 
L 50.78125 25.203125 
L 50.78125 17.140625 
L 41.109375 17.140625 
L 41.109375 0 
z
M 32.328125 25.203125 
L 32.328125 57.46875 
L 9.90625 25.203125 
z
" id="ArialMT-52"/>
       </defs>
       <use xlink:href="#ArialMT-8722"/>
       <use x="58.398438" xlink:href="#ArialMT-48"/>
       <use x="114.013672" xlink:href="#ArialMT-46"/>
       <use x="141.796875" xlink:href="#ArialMT-48"/>
       <use x="197.412109" xlink:href="#ArialMT-52"/>
      </g>
     </g>
    </g>
    <g id="ytick_4">
     <g id="line2d_4">
      <path clip-path="url(#p5d10de79cc)" d="M 64.381875 429.618931 
L 1283.04 429.618931 
" style="fill:none;stroke:#ffffff;stroke-linecap:round;"/>
     </g>
     <g id="text_8">
      <!-- −0.02 -->
      <g style="fill:#262626;" transform="translate(27.050156 433.555728)scale(0.11 -0.11)">
       <use xlink:href="#ArialMT-8722"/>
       <use x="58.398438" xlink:href="#ArialMT-48"/>
       <use x="114.013672" xlink:href="#ArialMT-46"/>
       <use x="141.796875" xlink:href="#ArialMT-48"/>
       <use x="197.412109" xlink:href="#ArialMT-50"/>
      </g>
     </g>
    </g>
    <g id="ytick_5">
     <g id="line2d_5">
      <path clip-path="url(#p5d10de79cc)" d="M 64.381875 326.469306 
L 1283.04 326.469306 
" style="fill:none;stroke:#ffffff;stroke-linecap:round;"/>
     </g>
     <g id="text_9">
      <!-- 0.00 -->
      <g style="fill:#262626;" transform="translate(33.474844 330.406103)scale(0.11 -0.11)">
       <use xlink:href="#ArialMT-48"/>
       <use x="55.615234" xlink:href="#ArialMT-46"/>
       <use x="83.398438" xlink:href="#ArialMT-48"/>
       <use x="139.013672" xlink:href="#ArialMT-48"/>
      </g>
     </g>
    </g>
    <g id="ytick_6">
     <g id="line2d_6">
      <path clip-path="url(#p5d10de79cc)" d="M 64.381875 223.319681 
L 1283.04 223.319681 
" style="fill:none;stroke:#ffffff;stroke-linecap:round;"/>
     </g>
     <g id="text_10">
      <!-- 0.02 -->
      <g style="fill:#262626;" transform="translate(33.474844 227.256478)scale(0.11 -0.11)">
       <use xlink:href="#ArialMT-48"/>
       <use x="55.615234" xlink:href="#ArialMT-46"/>
       <use x="83.398438" xlink:href="#ArialMT-48"/>
       <use x="139.013672" xlink:href="#ArialMT-50"/>
      </g>
     </g>
    </g>
    <g id="ytick_7">
     <g id="line2d_7">
      <path clip-path="url(#p5d10de79cc)" d="M 64.381875 120.170056 
L 1283.04 120.170056 
" style="fill:none;stroke:#ffffff;stroke-linecap:round;"/>
     </g>
     <g id="text_11">
      <!-- 0.04 -->
      <g style="fill:#262626;" transform="translate(33.474844 124.106853)scale(0.11 -0.11)">
       <use xlink:href="#ArialMT-48"/>
       <use x="55.615234" xlink:href="#ArialMT-46"/>
       <use x="83.398438" xlink:href="#ArialMT-48"/>
       <use x="139.013672" xlink:href="#ArialMT-52"/>
      </g>
     </g>
    </g>
    <g id="ytick_8">
     <g id="line2d_8">
      <path clip-path="url(#p5d10de79cc)" d="M 64.381875 17.020432 
L 1283.04 17.020432 
" style="fill:none;stroke:#ffffff;stroke-linecap:round;"/>
     </g>
     <g id="text_12">
      <!-- 0.06 -->
      <g style="fill:#262626;" transform="translate(33.474844 20.957228)scale(0.11 -0.11)">
       <use xlink:href="#ArialMT-48"/>
       <use x="55.615234" xlink:href="#ArialMT-46"/>
       <use x="83.398438" xlink:href="#ArialMT-48"/>
       <use x="139.013672" xlink:href="#ArialMT-54"/>
      </g>
     </g>
    </g>
    <g id="text_13">
     <!-- Difference to ground truth -->
     <g style="fill:#262626;" transform="translate(20.524531 485.045731)rotate(-90)scale(0.12 -0.12)">
      <defs>
       <path d="M 7.71875 0 
L 7.71875 71.578125 
L 32.375 71.578125 
Q 40.71875 71.578125 45.125 70.5625 
Q 51.265625 69.140625 55.609375 65.4375 
Q 61.28125 60.640625 64.078125 53.1875 
Q 66.890625 45.75 66.890625 36.1875 
Q 66.890625 28.03125 64.984375 21.734375 
Q 63.09375 15.4375 60.109375 11.296875 
Q 57.125 7.171875 53.578125 4.796875 
Q 50.046875 2.4375 45.046875 1.21875 
Q 40.046875 0 33.546875 0 
z
M 17.1875 8.453125 
L 32.46875 8.453125 
Q 39.546875 8.453125 43.578125 9.765625 
Q 47.609375 11.078125 50 13.484375 
Q 53.375 16.84375 55.25 22.53125 
Q 57.125 28.21875 57.125 36.328125 
Q 57.125 47.5625 53.4375 53.59375 
Q 49.75 59.625 44.484375 61.671875 
Q 40.671875 63.140625 32.234375 63.140625 
L 17.1875 63.140625 
z
" id="ArialMT-68"/>
       <path d="M 8.6875 0 
L 8.6875 45.015625 
L 0.921875 45.015625 
L 0.921875 51.859375 
L 8.6875 51.859375 
L 8.6875 57.375 
Q 8.6875 62.59375 9.625 65.140625 
Q 10.890625 68.5625 14.078125 70.671875 
Q 17.28125 72.796875 23.046875 72.796875 
Q 26.765625 72.796875 31.25 71.921875 
L 29.9375 64.265625 
Q 27.203125 64.75 24.75 64.75 
Q 20.75 64.75 19.09375 63.03125 
Q 17.4375 61.328125 17.4375 56.640625 
L 17.4375 51.859375 
L 27.546875 51.859375 
L 27.546875 45.015625 
L 17.4375 45.015625 
L 17.4375 0 
z
" id="ArialMT-102"/>
       <path d="M 6.59375 0 
L 6.59375 51.859375 
L 14.5 51.859375 
L 14.5 44.484375 
Q 20.21875 53.03125 31 53.03125 
Q 35.6875 53.03125 39.625 51.34375 
Q 43.5625 49.65625 45.515625 46.921875 
Q 47.46875 44.1875 48.25 40.4375 
Q 48.734375 37.984375 48.734375 31.890625 
L 48.734375 0 
L 39.9375 0 
L 39.9375 31.546875 
Q 39.9375 36.921875 38.90625 39.578125 
Q 37.890625 42.234375 35.28125 43.8125 
Q 32.671875 45.40625 29.15625 45.40625 
Q 23.53125 45.40625 19.453125 41.84375 
Q 15.375 38.28125 15.375 28.328125 
L 15.375 0 
z
" id="ArialMT-110"/>
       <path d="M 40.4375 19 
L 49.078125 17.875 
Q 47.65625 8.9375 41.8125 3.875 
Q 35.984375 -1.171875 27.484375 -1.171875 
Q 16.84375 -1.171875 10.375 5.78125 
Q 3.90625 12.75 3.90625 25.734375 
Q 3.90625 34.125 6.6875 40.421875 
Q 9.46875 46.734375 15.15625 49.875 
Q 20.84375 53.03125 27.546875 53.03125 
Q 35.984375 53.03125 41.359375 48.75 
Q 46.734375 44.484375 48.25 36.625 
L 39.703125 35.296875 
Q 38.484375 40.53125 35.375 43.15625 
Q 32.28125 45.796875 27.875 45.796875 
Q 21.234375 45.796875 17.078125 41.03125 
Q 12.9375 36.28125 12.9375 25.984375 
Q 12.9375 15.53125 16.9375 10.796875 
Q 20.953125 6.0625 27.390625 6.0625 
Q 32.5625 6.0625 36.03125 9.234375 
Q 39.5 12.40625 40.4375 19 
z
" id="ArialMT-99"/>
       <path d="M 25.78125 7.859375 
L 27.046875 0.09375 
Q 23.34375 -0.6875 20.40625 -0.6875 
Q 15.625 -0.6875 12.984375 0.828125 
Q 10.359375 2.34375 9.28125 4.8125 
Q 8.203125 7.28125 8.203125 15.1875 
L 8.203125 45.015625 
L 1.765625 45.015625 
L 1.765625 51.859375 
L 8.203125 51.859375 
L 8.203125 64.703125 
L 16.9375 69.96875 
L 16.9375 51.859375 
L 25.78125 51.859375 
L 25.78125 45.015625 
L 16.9375 45.015625 
L 16.9375 14.703125 
Q 16.9375 10.9375 17.40625 9.859375 
Q 17.875 8.796875 18.921875 8.15625 
Q 19.96875 7.515625 21.921875 7.515625 
Q 23.390625 7.515625 25.78125 7.859375 
z
" id="ArialMT-116"/>
       <path d="M 3.328125 25.921875 
Q 3.328125 40.328125 11.328125 47.265625 
Q 18.015625 53.03125 27.640625 53.03125 
Q 38.328125 53.03125 45.109375 46.015625 
Q 51.90625 39.015625 51.90625 26.65625 
Q 51.90625 16.65625 48.90625 10.90625 
Q 45.90625 5.171875 40.15625 2 
Q 34.421875 -1.171875 27.640625 -1.171875 
Q 16.75 -1.171875 10.03125 5.8125 
Q 3.328125 12.796875 3.328125 25.921875 
z
M 12.359375 25.921875 
Q 12.359375 15.96875 16.703125 11.015625 
Q 21.046875 6.0625 27.640625 6.0625 
Q 34.1875 6.0625 38.53125 11.03125 
Q 42.875 16.015625 42.875 26.21875 
Q 42.875 35.84375 38.5 40.796875 
Q 34.125 45.75 27.640625 45.75 
Q 21.046875 45.75 16.703125 40.8125 
Q 12.359375 35.890625 12.359375 25.921875 
z
" id="ArialMT-111"/>
       <path d="M 4.984375 -4.296875 
L 13.53125 -5.5625 
Q 14.0625 -9.515625 16.5 -11.328125 
Q 19.78125 -13.765625 25.4375 -13.765625 
Q 31.546875 -13.765625 34.859375 -11.328125 
Q 38.1875 -8.890625 39.359375 -4.5 
Q 40.046875 -1.8125 39.984375 6.78125 
Q 34.234375 0 25.640625 0 
Q 14.9375 0 9.078125 7.71875 
Q 3.21875 15.4375 3.21875 26.21875 
Q 3.21875 33.640625 5.90625 39.90625 
Q 8.59375 46.1875 13.6875 49.609375 
Q 18.796875 53.03125 25.6875 53.03125 
Q 34.859375 53.03125 40.828125 45.609375 
L 40.828125 51.859375 
L 48.921875 51.859375 
L 48.921875 7.03125 
Q 48.921875 -5.078125 46.453125 -10.125 
Q 44 -15.1875 38.640625 -18.109375 
Q 33.296875 -21.046875 25.484375 -21.046875 
Q 16.21875 -21.046875 10.5 -16.875 
Q 4.78125 -12.703125 4.984375 -4.296875 
z
M 12.25 26.859375 
Q 12.25 16.65625 16.296875 11.96875 
Q 20.359375 7.28125 26.46875 7.28125 
Q 32.515625 7.28125 36.609375 11.9375 
Q 40.71875 16.609375 40.71875 26.5625 
Q 40.71875 36.078125 36.5 40.90625 
Q 32.28125 45.75 26.3125 45.75 
Q 20.453125 45.75 16.34375 40.984375 
Q 12.25 36.234375 12.25 26.859375 
z
" id="ArialMT-103"/>
       <path d="M 40.578125 0 
L 40.578125 7.625 
Q 34.515625 -1.171875 24.125 -1.171875 
Q 19.53125 -1.171875 15.546875 0.578125 
Q 11.578125 2.34375 9.640625 5 
Q 7.71875 7.671875 6.9375 11.53125 
Q 6.390625 14.109375 6.390625 19.734375 
L 6.390625 51.859375 
L 15.1875 51.859375 
L 15.1875 23.09375 
Q 15.1875 16.21875 15.71875 13.8125 
Q 16.546875 10.359375 19.234375 8.375 
Q 21.921875 6.390625 25.875 6.390625 
Q 29.828125 6.390625 33.296875 8.421875 
Q 36.765625 10.453125 38.203125 13.9375 
Q 39.65625 17.4375 39.65625 24.078125 
L 39.65625 51.859375 
L 48.4375 51.859375 
L 48.4375 0 
z
" id="ArialMT-117"/>
       <path d="M 40.234375 0 
L 40.234375 6.546875 
Q 35.296875 -1.171875 25.734375 -1.171875 
Q 19.53125 -1.171875 14.328125 2.25 
Q 9.125 5.671875 6.265625 11.796875 
Q 3.421875 17.921875 3.421875 25.875 
Q 3.421875 33.640625 6 39.96875 
Q 8.59375 46.296875 13.765625 49.65625 
Q 18.953125 53.03125 25.34375 53.03125 
Q 30.03125 53.03125 33.6875 51.046875 
Q 37.359375 49.078125 39.65625 45.90625 
L 39.65625 71.578125 
L 48.390625 71.578125 
L 48.390625 0 
z
M 12.453125 25.875 
Q 12.453125 15.921875 16.640625 10.984375 
Q 20.84375 6.0625 26.5625 6.0625 
Q 32.328125 6.0625 36.34375 10.765625 
Q 40.375 15.484375 40.375 25.140625 
Q 40.375 35.796875 36.265625 40.765625 
Q 32.171875 45.75 26.171875 45.75 
Q 20.3125 45.75 16.375 40.96875 
Q 12.453125 36.1875 12.453125 25.875 
z
" id="ArialMT-100"/>
       <path d="M 6.59375 0 
L 6.59375 71.578125 
L 15.375 71.578125 
L 15.375 45.90625 
Q 21.53125 53.03125 30.90625 53.03125 
Q 36.671875 53.03125 40.921875 50.75 
Q 45.171875 48.484375 47 44.484375 
Q 48.828125 40.484375 48.828125 32.859375 
L 48.828125 0 
L 40.046875 0 
L 40.046875 32.859375 
Q 40.046875 39.453125 37.1875 42.453125 
Q 34.328125 45.453125 29.109375 45.453125 
Q 25.203125 45.453125 21.75 43.421875 
Q 18.3125 41.40625 16.84375 37.9375 
Q 15.375 34.46875 15.375 28.375 
L 15.375 0 
z
" id="ArialMT-104"/>
      </defs>
      <use xlink:href="#ArialMT-68"/>
      <use x="72.216797" xlink:href="#ArialMT-105"/>
      <use x="94.433594" xlink:href="#ArialMT-102"/>
      <use x="120.466797" xlink:href="#ArialMT-102"/>
      <use x="148.25" xlink:href="#ArialMT-101"/>
      <use x="203.865234" xlink:href="#ArialMT-114"/>
      <use x="237.166016" xlink:href="#ArialMT-101"/>
      <use x="292.78125" xlink:href="#ArialMT-110"/>
      <use x="348.396484" xlink:href="#ArialMT-99"/>
      <use x="398.396484" xlink:href="#ArialMT-101"/>
      <use x="454.011719" xlink:href="#ArialMT-32"/>
      <use x="481.794922" xlink:href="#ArialMT-116"/>
      <use x="509.578125" xlink:href="#ArialMT-111"/>
      <use x="565.193359" xlink:href="#ArialMT-32"/>
      <use x="592.976562" xlink:href="#ArialMT-103"/>
      <use x="648.591797" xlink:href="#ArialMT-114"/>
      <use x="681.892578" xlink:href="#ArialMT-111"/>
      <use x="737.507812" xlink:href="#ArialMT-117"/>
      <use x="793.123047" xlink:href="#ArialMT-110"/>
      <use x="848.738281" xlink:href="#ArialMT-100"/>
      <use x="904.353516" xlink:href="#ArialMT-32"/>
      <use x="932.136719" xlink:href="#ArialMT-116"/>
      <use x="959.919922" xlink:href="#ArialMT-114"/>
      <use x="993.220703" xlink:href="#ArialMT-117"/>
      <use x="1048.835938" xlink:href="#ArialMT-116"/>
      <use x="1076.619141" xlink:href="#ArialMT-104"/>
     </g>
    </g>
   </g>
   <g id="PathCollection_1">
    <defs>
     <path d="M -0 4.242641 
L 2.545584 0 
L 0 -4.242641 
L -2.545584 -0 
z
" id="m675dee9cd7" style="stroke:#3d3d3d;"/>
    </defs>
    <g clip-path="url(#p5d10de79cc)">
     <use style="fill:#3d3d3d;stroke:#3d3d3d;" x="137.501362" xlink:href="#m675dee9cd7" y="331.495734"/>
     <use style="fill:#3d3d3d;stroke:#3d3d3d;" x="137.501362" xlink:href="#m675dee9cd7" y="331.175898"/>
     <use style="fill:#3d3d3d;stroke:#3d3d3d;" x="137.501362" xlink:href="#m675dee9cd7" y="332.111492"/>
     <use style="fill:#3d3d3d;stroke:#3d3d3d;" x="137.501362" xlink:href="#m675dee9cd7" y="330.502049"/>
     <use style="fill:#3d3d3d;stroke:#3d3d3d;" x="137.501362" xlink:href="#m675dee9cd7" y="335.470234"/>
     <use style="fill:#3d3d3d;stroke:#3d3d3d;" x="137.501362" xlink:href="#m675dee9cd7" y="336.338194"/>
     <use style="fill:#3d3d3d;stroke:#3d3d3d;" x="137.501362" xlink:href="#m675dee9cd7" y="375.611671"/>
     <use style="fill:#3d3d3d;stroke:#3d3d3d;" x="137.501362" xlink:href="#m675dee9cd7" y="318.832012"/>
     <use style="fill:#3d3d3d;stroke:#3d3d3d;" x="137.501362" xlink:href="#m675dee9cd7" y="322.269367"/>
     <use style="fill:#3d3d3d;stroke:#3d3d3d;" x="137.501362" xlink:href="#m675dee9cd7" y="322.459341"/>
     <use style="fill:#3d3d3d;stroke:#3d3d3d;" x="137.501362" xlink:href="#m675dee9cd7" y="323.904679"/>
     <use style="fill:#3d3d3d;stroke:#3d3d3d;" x="137.501362" xlink:href="#m675dee9cd7" y="314.971107"/>
     <use style="fill:#3d3d3d;stroke:#3d3d3d;" x="137.501362" xlink:href="#m675dee9cd7" y="319.914301"/>
     <use style="fill:#3d3d3d;stroke:#3d3d3d;" x="137.501362" xlink:href="#m675dee9cd7" y="321.382606"/>
    </g>
   </g>
   <g id="PatchCollection_1">
    <path clip-path="url(#p5d10de79cc)" d="M 121.577563 330.399796 
L 153.425162 330.399796 
L 153.425162 324.293844 
L 121.577563 324.293844 
z
" style="fill:#e0eaf1;stroke:#3d3d3d;stroke-width:1.5;"/>
    <path clip-path="url(#p5d10de79cc)" d="M 105.653764 328.235346 
L 169.348962 328.235346 
L 169.348962 325.681409 
L 105.653764 325.681409 
z
" style="fill:#3274a1;stroke:#3d3d3d;stroke-width:1.5;"/>
   </g>
   <g id="PathCollection_2">
    <g clip-path="url(#p5d10de79cc)">
     <use style="fill:#3d3d3d;stroke:#3d3d3d;" x="202.496463" xlink:href="#m675dee9cd7" y="385.339109"/>
     <use style="fill:#3d3d3d;stroke:#3d3d3d;" x="202.496463" xlink:href="#m675dee9cd7" y="386.906126"/>
     <use style="fill:#3d3d3d;stroke:#3d3d3d;" x="202.496463" xlink:href="#m675dee9cd7" y="389.316623"/>
     <use style="fill:#3d3d3d;stroke:#3d3d3d;" x="202.496463" xlink:href="#m675dee9cd7" y="391.821899"/>
     <use style="fill:#3d3d3d;stroke:#3d3d3d;" x="202.496463" xlink:href="#m675dee9cd7" y="399.944454"/>
     <use style="fill:#3d3d3d;stroke:#3d3d3d;" x="202.496463" xlink:href="#m675dee9cd7" y="441.449817"/>
     <use style="fill:#3d3d3d;stroke:#3d3d3d;" x="202.496463" xlink:href="#m675dee9cd7" y="781.137936"/>
     <use style="fill:#3d3d3d;stroke:#3d3d3d;" x="202.496463" xlink:href="#m675dee9cd7" y="375.026674"/>
     <use style="fill:#3d3d3d;stroke:#3d3d3d;" x="202.496463" xlink:href="#m675dee9cd7" y="371.04496"/>
     <use style="fill:#3d3d3d;stroke:#3d3d3d;" x="202.496463" xlink:href="#m675dee9cd7" y="375.104259"/>
     <use style="fill:#3d3d3d;stroke:#3d3d3d;" x="202.496463" xlink:href="#m675dee9cd7" y="374.832168"/>
     <use style="fill:#3d3d3d;stroke:#3d3d3d;" x="202.496463" xlink:href="#m675dee9cd7" y="372.413211"/>
     <use style="fill:#3d3d3d;stroke:#3d3d3d;" x="202.496463" xlink:href="#m675dee9cd7" y="332.116563"/>
     <use style="fill:#3d3d3d;stroke:#3d3d3d;" x="202.496463" xlink:href="#m675dee9cd7" y="333.882601"/>
    </g>
   </g>
   <g id="PatchCollection_2">
    <path clip-path="url(#p5d10de79cc)" d="M 186.572663 385.186566 
L 218.420262 385.186566 
L 218.420262 375.727945 
L 186.572663 375.727945 
z
" style="fill:#fbece0;stroke:#3d3d3d;stroke-width:1.5;"/>
    <path clip-path="url(#p5d10de79cc)" d="M 170.648864 382.307478 
L 234.344061 382.307478 
L 234.344061 376.807467 
L 170.648864 376.807467 
z
" style="fill:#e1812c;stroke:#3d3d3d;stroke-width:1.5;"/>
   </g>
   <g id="PathCollection_3">
    <g clip-path="url(#p5d10de79cc)">
     <use style="fill:#3d3d3d;stroke:#3d3d3d;" x="267.491562" xlink:href="#m675dee9cd7" y="384.539063"/>
     <use style="fill:#3d3d3d;stroke:#3d3d3d;" x="267.491562" xlink:href="#m675dee9cd7" y="384.579293"/>
     <use style="fill:#3d3d3d;stroke:#3d3d3d;" x="267.491562" xlink:href="#m675dee9cd7" y="393.194074"/>
     <use style="fill:#3d3d3d;stroke:#3d3d3d;" x="267.491562" xlink:href="#m675dee9cd7" y="394.916388"/>
     <use style="fill:#3d3d3d;stroke:#3d3d3d;" x="267.491562" xlink:href="#m675dee9cd7" y="411.290913"/>
     <use style="fill:#3d3d3d;stroke:#3d3d3d;" x="267.491562" xlink:href="#m675dee9cd7" y="433.197847"/>
     <use style="fill:#3d3d3d;stroke:#3d3d3d;" x="267.491562" xlink:href="#m675dee9cd7" y="680.567052"/>
     <use style="fill:#3d3d3d;stroke:#3d3d3d;" x="267.491562" xlink:href="#m675dee9cd7" y="375.62791"/>
     <use style="fill:#3d3d3d;stroke:#3d3d3d;" x="267.491562" xlink:href="#m675dee9cd7" y="375.840818"/>
     <use style="fill:#3d3d3d;stroke:#3d3d3d;" x="267.491562" xlink:href="#m675dee9cd7" y="375.155711"/>
     <use style="fill:#3d3d3d;stroke:#3d3d3d;" x="267.491562" xlink:href="#m675dee9cd7" y="375.557376"/>
     <use style="fill:#3d3d3d;stroke:#3d3d3d;" x="267.491562" xlink:href="#m675dee9cd7" y="374.476204"/>
     <use style="fill:#3d3d3d;stroke:#3d3d3d;" x="267.491562" xlink:href="#m675dee9cd7" y="363.06145"/>
     <use style="fill:#3d3d3d;stroke:#3d3d3d;" x="267.491562" xlink:href="#m675dee9cd7" y="340.587326"/>
    </g>
   </g>
   <g id="PatchCollection_3">
    <path clip-path="url(#p5d10de79cc)" d="M 251.567763 383.927309 
L 283.415362 383.927309 
L 283.415362 375.919475 
L 251.567763 375.919475 
z
" style="fill:#e2efe2;stroke:#3d3d3d;stroke-width:1.5;"/>
    <path clip-path="url(#p5d10de79cc)" d="M 235.643963 379.014733 
L 299.339161 379.014733 
L 299.339161 376.060326 
L 235.643963 376.060326 
z
" style="fill:#3a923a;stroke:#3d3d3d;stroke-width:1.5;"/>
   </g>
   <g id="PathCollection_4">
    <g clip-path="url(#p5d10de79cc)">
     <use style="fill:#3d3d3d;stroke:#3d3d3d;" x="332.486662" xlink:href="#m675dee9cd7" y="336.058739"/>
     <use style="fill:#3d3d3d;stroke:#3d3d3d;" x="332.486662" xlink:href="#m675dee9cd7" y="338.921778"/>
     <use style="fill:#3d3d3d;stroke:#3d3d3d;" x="332.486662" xlink:href="#m675dee9cd7" y="335.913575"/>
     <use style="fill:#3d3d3d;stroke:#3d3d3d;" x="332.486662" xlink:href="#m675dee9cd7" y="333.367292"/>
     <use style="fill:#3d3d3d;stroke:#3d3d3d;" x="332.486662" xlink:href="#m675dee9cd7" y="358.684604"/>
     <use style="fill:#3d3d3d;stroke:#3d3d3d;" x="332.486662" xlink:href="#m675dee9cd7" y="339.040082"/>
     <use style="fill:#3d3d3d;stroke:#3d3d3d;" x="332.486662" xlink:href="#m675dee9cd7" y="368.539437"/>
     <use style="fill:#3d3d3d;stroke:#3d3d3d;" x="332.486662" xlink:href="#m675dee9cd7" y="321.502251"/>
     <use style="fill:#3d3d3d;stroke:#3d3d3d;" x="332.486662" xlink:href="#m675dee9cd7" y="316.513001"/>
     <use style="fill:#3d3d3d;stroke:#3d3d3d;" x="332.486662" xlink:href="#m675dee9cd7" y="322.269367"/>
     <use style="fill:#3d3d3d;stroke:#3d3d3d;" x="332.486662" xlink:href="#m675dee9cd7" y="322.459341"/>
     <use style="fill:#3d3d3d;stroke:#3d3d3d;" x="332.486662" xlink:href="#m675dee9cd7" y="320.838399"/>
     <use style="fill:#3d3d3d;stroke:#3d3d3d;" x="332.486662" xlink:href="#m675dee9cd7" y="323.205266"/>
     <use style="fill:#3d3d3d;stroke:#3d3d3d;" x="332.486662" xlink:href="#m675dee9cd7" y="311.486638"/>
    </g>
   </g>
   <g id="PatchCollection_4">
    <path clip-path="url(#p5d10de79cc)" d="M 316.562863 332.876761 
L 348.410462 332.876761 
L 348.410462 323.237822 
L 316.562863 323.237822 
z
" style="fill:#f6e2e2;stroke:#3d3d3d;stroke-width:1.5;"/>
    <path clip-path="url(#p5d10de79cc)" d="M 300.639063 327.55264 
L 364.334261 327.55264 
L 364.334261 324.729337 
L 300.639063 324.729337 
z
" style="fill:#c03d3e;stroke:#3d3d3d;stroke-width:1.5;"/>
   </g>
   <g id="PathCollection_5">
    <g clip-path="url(#p5d10de79cc)">
     <use style="fill:#3d3d3d;stroke:#3d3d3d;" x="397.481762" xlink:href="#m675dee9cd7" y="329.757055"/>
     <use style="fill:#3d3d3d;stroke:#3d3d3d;" x="397.481762" xlink:href="#m675dee9cd7" y="330.171541"/>
     <use style="fill:#3d3d3d;stroke:#3d3d3d;" x="397.481762" xlink:href="#m675dee9cd7" y="332.700606"/>
     <use style="fill:#3d3d3d;stroke:#3d3d3d;" x="397.481762" xlink:href="#m675dee9cd7" y="328.226918"/>
     <use style="fill:#3d3d3d;stroke:#3d3d3d;" x="397.481762" xlink:href="#m675dee9cd7" y="337.274044"/>
     <use style="fill:#3d3d3d;stroke:#3d3d3d;" x="397.481762" xlink:href="#m675dee9cd7" y="328.725119"/>
     <use style="fill:#3d3d3d;stroke:#3d3d3d;" x="397.481762" xlink:href="#m675dee9cd7" y="358.740222"/>
     <use style="fill:#3d3d3d;stroke:#3d3d3d;" x="397.481762" xlink:href="#m675dee9cd7" y="320.123237"/>
     <use style="fill:#3d3d3d;stroke:#3d3d3d;" x="397.481762" xlink:href="#m675dee9cd7" y="325.363856"/>
     <use style="fill:#3d3d3d;stroke:#3d3d3d;" x="397.481762" xlink:href="#m675dee9cd7" y="324.627629"/>
     <use style="fill:#3d3d3d;stroke:#3d3d3d;" x="397.481762" xlink:href="#m675dee9cd7" y="325.55884"/>
     <use style="fill:#3d3d3d;stroke:#3d3d3d;" x="397.481762" xlink:href="#m675dee9cd7" y="325.128143"/>
     <use style="fill:#3d3d3d;stroke:#3d3d3d;" x="397.481762" xlink:href="#m675dee9cd7" y="317.424755"/>
     <use style="fill:#3d3d3d;stroke:#3d3d3d;" x="397.481762" xlink:href="#m675dee9cd7" y="323.227399"/>
    </g>
   </g>
   <g id="PatchCollection_5">
    <path clip-path="url(#p5d10de79cc)" d="M 381.557963 328.142011 
L 413.405562 328.142011 
L 413.405562 325.623743 
L 381.557963 325.623743 
z
" style="fill:#efeaf4;stroke:#3d3d3d;stroke-width:1.5;"/>
    <path clip-path="url(#p5d10de79cc)" d="M 365.634163 327.260345 
L 429.329361 327.260345 
L 429.329361 326.110163 
L 365.634163 326.110163 
z
" style="fill:#9372b2;stroke:#3d3d3d;stroke-width:1.5;"/>
   </g>
   <g id="PathCollection_6">
    <g clip-path="url(#p5d10de79cc)">
     <use style="fill:#3d3d3d;stroke:#3d3d3d;" x="543.720737" xlink:href="#m675dee9cd7" y="331.519351"/>
     <use style="fill:#3d3d3d;stroke:#3d3d3d;" x="543.720737" xlink:href="#m675dee9cd7" y="330.254752"/>
     <use style="fill:#3d3d3d;stroke:#3d3d3d;" x="543.720737" xlink:href="#m675dee9cd7" y="331.236889"/>
     <use style="fill:#3d3d3d;stroke:#3d3d3d;" x="543.720737" xlink:href="#m675dee9cd7" y="331.243104"/>
     <use style="fill:#3d3d3d;stroke:#3d3d3d;" x="543.720737" xlink:href="#m675dee9cd7" y="332.021151"/>
     <use style="fill:#3d3d3d;stroke:#3d3d3d;" x="543.720737" xlink:href="#m675dee9cd7" y="333.487335"/>
     <use style="fill:#3d3d3d;stroke:#3d3d3d;" x="543.720737" xlink:href="#m675dee9cd7" y="347.406386"/>
     <use style="fill:#3d3d3d;stroke:#3d3d3d;" x="543.720737" xlink:href="#m675dee9cd7" y="322.187364"/>
     <use style="fill:#3d3d3d;stroke:#3d3d3d;" x="543.720737" xlink:href="#m675dee9cd7" y="323.938407"/>
     <use style="fill:#3d3d3d;stroke:#3d3d3d;" x="543.720737" xlink:href="#m675dee9cd7" y="321.664811"/>
     <use style="fill:#3d3d3d;stroke:#3d3d3d;" x="543.720737" xlink:href="#m675dee9cd7" y="316.088375"/>
     <use style="fill:#3d3d3d;stroke:#3d3d3d;" x="543.720737" xlink:href="#m675dee9cd7" y="307.729169"/>
     <use style="fill:#3d3d3d;stroke:#3d3d3d;" x="543.720737" xlink:href="#m675dee9cd7" y="317.452088"/>
     <use style="fill:#3d3d3d;stroke:#3d3d3d;" x="543.720737" xlink:href="#m675dee9cd7" y="309.27019"/>
    </g>
   </g>
   <g id="PatchCollection_6">
    <path clip-path="url(#p5d10de79cc)" d="M 527.796938 330.155217 
L 559.644537 330.155217 
L 559.644537 324.044338 
L 527.796938 324.044338 
z
" style="fill:#e0eaf1;stroke:#3d3d3d;stroke-width:1.5;"/>
    <path clip-path="url(#p5d10de79cc)" d="M 511.873138 328.243936 
L 575.568336 328.243936 
L 575.568336 324.937807 
L 511.873138 324.937807 
z
" style="fill:#3274a1;stroke:#3d3d3d;stroke-width:1.5;"/>
   </g>
   <g id="PathCollection_7">
    <g clip-path="url(#p5d10de79cc)">
     <use style="fill:#3d3d3d;stroke:#3d3d3d;" x="608.715837" xlink:href="#m675dee9cd7" y="381.680497"/>
     <use style="fill:#3d3d3d;stroke:#3d3d3d;" x="608.715837" xlink:href="#m675dee9cd7" y="381.069448"/>
     <use style="fill:#3d3d3d;stroke:#3d3d3d;" x="608.715837" xlink:href="#m675dee9cd7" y="381.904913"/>
     <use style="fill:#3d3d3d;stroke:#3d3d3d;" x="608.715837" xlink:href="#m675dee9cd7" y="384.077139"/>
     <use style="fill:#3d3d3d;stroke:#3d3d3d;" x="608.715837" xlink:href="#m675dee9cd7" y="385.144652"/>
     <use style="fill:#3d3d3d;stroke:#3d3d3d;" x="608.715837" xlink:href="#m675dee9cd7" y="388.01292"/>
     <use style="fill:#3d3d3d;stroke:#3d3d3d;" x="608.715837" xlink:href="#m675dee9cd7" y="444.626661"/>
     <use style="fill:#3d3d3d;stroke:#3d3d3d;" x="608.715837" xlink:href="#m675dee9cd7" y="367.663187"/>
     <use style="fill:#3d3d3d;stroke:#3d3d3d;" x="608.715837" xlink:href="#m675dee9cd7" y="368.162527"/>
     <use style="fill:#3d3d3d;stroke:#3d3d3d;" x="608.715837" xlink:href="#m675dee9cd7" y="369.28868"/>
     <use style="fill:#3d3d3d;stroke:#3d3d3d;" x="608.715837" xlink:href="#m675dee9cd7" y="364.526078"/>
     <use style="fill:#3d3d3d;stroke:#3d3d3d;" x="608.715837" xlink:href="#m675dee9cd7" y="361.061526"/>
     <use style="fill:#3d3d3d;stroke:#3d3d3d;" x="608.715837" xlink:href="#m675dee9cd7" y="300.07858"/>
     <use style="fill:#3d3d3d;stroke:#3d3d3d;" x="608.715837" xlink:href="#m675dee9cd7" y="310.103496"/>
    </g>
   </g>
   <g id="PatchCollection_7">
    <path clip-path="url(#p5d10de79cc)" d="M 592.792038 381.066047 
L 624.639637 381.066047 
L 624.639637 370.781825 
L 592.792038 370.781825 
z
" style="fill:#fbece0;stroke:#3d3d3d;stroke-width:1.5;"/>
    <path clip-path="url(#p5d10de79cc)" d="M 576.868238 379.248552 
L 640.563436 379.248552 
L 640.563436 375.135318 
L 576.868238 375.135318 
z
" style="fill:#e1812c;stroke:#3d3d3d;stroke-width:1.5;"/>
   </g>
   <g id="PathCollection_8">
    <g clip-path="url(#p5d10de79cc)">
     <use style="fill:#3d3d3d;stroke:#3d3d3d;" x="673.710938" xlink:href="#m675dee9cd7" y="378.621883"/>
     <use style="fill:#3d3d3d;stroke:#3d3d3d;" x="673.710938" xlink:href="#m675dee9cd7" y="378.205893"/>
     <use style="fill:#3d3d3d;stroke:#3d3d3d;" x="673.710938" xlink:href="#m675dee9cd7" y="378.729454"/>
     <use style="fill:#3d3d3d;stroke:#3d3d3d;" x="673.710938" xlink:href="#m675dee9cd7" y="378.227141"/>
     <use style="fill:#3d3d3d;stroke:#3d3d3d;" x="673.710938" xlink:href="#m675dee9cd7" y="379.421424"/>
     <use style="fill:#3d3d3d;stroke:#3d3d3d;" x="673.710938" xlink:href="#m675dee9cd7" y="377.935529"/>
     <use style="fill:#3d3d3d;stroke:#3d3d3d;" x="673.710938" xlink:href="#m675dee9cd7" y="379.922205"/>
     <use style="fill:#3d3d3d;stroke:#3d3d3d;" x="673.710938" xlink:href="#m675dee9cd7" y="371.681937"/>
     <use style="fill:#3d3d3d;stroke:#3d3d3d;" x="673.710938" xlink:href="#m675dee9cd7" y="371.351672"/>
     <use style="fill:#3d3d3d;stroke:#3d3d3d;" x="673.710938" xlink:href="#m675dee9cd7" y="372.407984"/>
     <use style="fill:#3d3d3d;stroke:#3d3d3d;" x="673.710938" xlink:href="#m675dee9cd7" y="370.128668"/>
     <use style="fill:#3d3d3d;stroke:#3d3d3d;" x="673.710938" xlink:href="#m675dee9cd7" y="344.055777"/>
     <use style="fill:#3d3d3d;stroke:#3d3d3d;" x="673.710938" xlink:href="#m675dee9cd7" y="331.023467"/>
     <use style="fill:#3d3d3d;stroke:#3d3d3d;" x="673.710938" xlink:href="#m675dee9cd7" y="316.808221"/>
    </g>
   </g>
   <g id="PatchCollection_8">
    <path clip-path="url(#p5d10de79cc)" d="M 657.787138 377.33513 
L 689.634737 377.33513 
L 689.634737 372.977999 
L 657.787138 372.977999 
z
" style="fill:#e2efe2;stroke:#3d3d3d;stroke-width:1.5;"/>
    <path clip-path="url(#p5d10de79cc)" d="M 641.863338 376.431318 
L 705.558536 376.431318 
L 705.558536 374.942675 
L 641.863338 374.942675 
z
" style="fill:#3a923a;stroke:#3d3d3d;stroke-width:1.5;"/>
   </g>
   <g id="PathCollection_9">
    <g clip-path="url(#p5d10de79cc)">
     <use style="fill:#3d3d3d;stroke:#3d3d3d;" x="738.706037" xlink:href="#m675dee9cd7" y="329.697832"/>
     <use style="fill:#3d3d3d;stroke:#3d3d3d;" x="738.706037" xlink:href="#m675dee9cd7" y="332.056942"/>
     <use style="fill:#3d3d3d;stroke:#3d3d3d;" x="738.706037" xlink:href="#m675dee9cd7" y="335.575343"/>
     <use style="fill:#3d3d3d;stroke:#3d3d3d;" x="738.706037" xlink:href="#m675dee9cd7" y="340.725348"/>
     <use style="fill:#3d3d3d;stroke:#3d3d3d;" x="738.706037" xlink:href="#m675dee9cd7" y="329.35543"/>
     <use style="fill:#3d3d3d;stroke:#3d3d3d;" x="738.706037" xlink:href="#m675dee9cd7" y="346.205865"/>
     <use style="fill:#3d3d3d;stroke:#3d3d3d;" x="738.706037" xlink:href="#m675dee9cd7" y="423.996736"/>
     <use style="fill:#3d3d3d;stroke:#3d3d3d;" x="738.706037" xlink:href="#m675dee9cd7" y="317.713867"/>
     <use style="fill:#3d3d3d;stroke:#3d3d3d;" x="738.706037" xlink:href="#m675dee9cd7" y="319.139491"/>
     <use style="fill:#3d3d3d;stroke:#3d3d3d;" x="738.706037" xlink:href="#m675dee9cd7" y="322.187364"/>
     <use style="fill:#3d3d3d;stroke:#3d3d3d;" x="738.706037" xlink:href="#m675dee9cd7" y="316.088375"/>
     <use style="fill:#3d3d3d;stroke:#3d3d3d;" x="738.706037" xlink:href="#m675dee9cd7" y="307.793784"/>
     <use style="fill:#3d3d3d;stroke:#3d3d3d;" x="738.706037" xlink:href="#m675dee9cd7" y="318.023103"/>
     <use style="fill:#3d3d3d;stroke:#3d3d3d;" x="738.706037" xlink:href="#m675dee9cd7" y="301.018419"/>
    </g>
   </g>
   <g id="PatchCollection_9">
    <path clip-path="url(#p5d10de79cc)" d="M 722.782238 329.103663 
L 754.629837 329.103663 
L 754.629837 322.573738 
L 722.782238 322.573738 
z
" style="fill:#f6e2e2;stroke:#3d3d3d;stroke-width:1.5;"/>
    <path clip-path="url(#p5d10de79cc)" d="M 706.858438 326.923996 
L 770.553636 326.923996 
L 770.553636 324.23203 
L 706.858438 324.23203 
z
" style="fill:#c03d3e;stroke:#3d3d3d;stroke-width:1.5;"/>
   </g>
   <g id="PathCollection_10">
    <g clip-path="url(#p5d10de79cc)">
     <use style="fill:#3d3d3d;stroke:#3d3d3d;" x="803.701137" xlink:href="#m675dee9cd7" y="328.150588"/>
     <use style="fill:#3d3d3d;stroke:#3d3d3d;" x="803.701137" xlink:href="#m675dee9cd7" y="328.962454"/>
     <use style="fill:#3d3d3d;stroke:#3d3d3d;" x="803.701137" xlink:href="#m675dee9cd7" y="329.510288"/>
     <use style="fill:#3d3d3d;stroke:#3d3d3d;" x="803.701137" xlink:href="#m675dee9cd7" y="329.393856"/>
     <use style="fill:#3d3d3d;stroke:#3d3d3d;" x="803.701137" xlink:href="#m675dee9cd7" y="333.726875"/>
     <use style="fill:#3d3d3d;stroke:#3d3d3d;" x="803.701137" xlink:href="#m675dee9cd7" y="331.95763"/>
     <use style="fill:#3d3d3d;stroke:#3d3d3d;" x="803.701137" xlink:href="#m675dee9cd7" y="332.796413"/>
     <use style="fill:#3d3d3d;stroke:#3d3d3d;" x="803.701137" xlink:href="#m675dee9cd7" y="323.902845"/>
     <use style="fill:#3d3d3d;stroke:#3d3d3d;" x="803.701137" xlink:href="#m675dee9cd7" y="324.250356"/>
     <use style="fill:#3d3d3d;stroke:#3d3d3d;" x="803.701137" xlink:href="#m675dee9cd7" y="324.5759"/>
     <use style="fill:#3d3d3d;stroke:#3d3d3d;" x="803.701137" xlink:href="#m675dee9cd7" y="323.180584"/>
     <use style="fill:#3d3d3d;stroke:#3d3d3d;" x="803.701137" xlink:href="#m675dee9cd7" y="314.42787"/>
     <use style="fill:#3d3d3d;stroke:#3d3d3d;" x="803.701137" xlink:href="#m675dee9cd7" y="324.484978"/>
     <use style="fill:#3d3d3d;stroke:#3d3d3d;" x="803.701137" xlink:href="#m675dee9cd7" y="303.827423"/>
    </g>
   </g>
   <g id="PatchCollection_10">
    <path clip-path="url(#p5d10de79cc)" d="M 787.777338 328.015329 
L 819.624937 328.015329 
L 819.624937 324.683998 
L 787.777338 324.683998 
z
" style="fill:#efeaf4;stroke:#3d3d3d;stroke-width:1.5;"/>
    <path clip-path="url(#p5d10de79cc)" d="M 771.853539 326.905849 
L 835.548737 326.905849 
L 835.548737 325.601893 
L 771.853539 325.601893 
z
" style="fill:#9372b2;stroke:#3d3d3d;stroke-width:1.5;"/>
   </g>
   <g id="PathCollection_11">
    <g clip-path="url(#p5d10de79cc)">
     <use style="fill:#3d3d3d;stroke:#3d3d3d;" x="949.940112" xlink:href="#m675dee9cd7" y="330.992734"/>
     <use style="fill:#3d3d3d;stroke:#3d3d3d;" x="949.940112" xlink:href="#m675dee9cd7" y="347.755353"/>
     <use style="fill:#3d3d3d;stroke:#3d3d3d;" x="949.940112" xlink:href="#m675dee9cd7" y="335.918741"/>
     <use style="fill:#3d3d3d;stroke:#3d3d3d;" x="949.940112" xlink:href="#m675dee9cd7" y="334.344014"/>
     <use style="fill:#3d3d3d;stroke:#3d3d3d;" x="949.940112" xlink:href="#m675dee9cd7" y="338.661673"/>
     <use style="fill:#3d3d3d;stroke:#3d3d3d;" x="949.940112" xlink:href="#m675dee9cd7" y="333.090699"/>
     <use style="fill:#3d3d3d;stroke:#3d3d3d;" x="949.940112" xlink:href="#m675dee9cd7" y="338.120989"/>
     <use style="fill:#3d3d3d;stroke:#3d3d3d;" x="949.940112" xlink:href="#m675dee9cd7" y="318.501114"/>
     <use style="fill:#3d3d3d;stroke:#3d3d3d;" x="949.940112" xlink:href="#m675dee9cd7" y="303.95788"/>
     <use style="fill:#3d3d3d;stroke:#3d3d3d;" x="949.940112" xlink:href="#m675dee9cd7" y="317.511214"/>
     <use style="fill:#3d3d3d;stroke:#3d3d3d;" x="949.940112" xlink:href="#m675dee9cd7" y="316.922712"/>
     <use style="fill:#3d3d3d;stroke:#3d3d3d;" x="949.940112" xlink:href="#m675dee9cd7" y="309.035579"/>
     <use style="fill:#3d3d3d;stroke:#3d3d3d;" x="949.940112" xlink:href="#m675dee9cd7" y="304.590968"/>
     <use style="fill:#3d3d3d;stroke:#3d3d3d;" x="949.940112" xlink:href="#m675dee9cd7" y="305.792059"/>
    </g>
   </g>
   <g id="PatchCollection_11">
    <path clip-path="url(#p5d10de79cc)" d="M 934.016313 330.827615 
L 965.863912 330.827615 
L 965.863912 318.619025 
L 934.016313 318.619025 
z
" style="fill:#e0eaf1;stroke:#3d3d3d;stroke-width:1.5;"/>
    <path clip-path="url(#p5d10de79cc)" d="M 918.092513 328.966939 
L 981.787711 328.966939 
L 981.787711 321.652422 
L 918.092513 321.652422 
z
" style="fill:#3274a1;stroke:#3d3d3d;stroke-width:1.5;"/>
   </g>
   <g id="PathCollection_12">
    <g clip-path="url(#p5d10de79cc)">
     <use style="fill:#3d3d3d;stroke:#3d3d3d;" x="1014.935212" xlink:href="#m675dee9cd7" y="378.028027"/>
     <use style="fill:#3d3d3d;stroke:#3d3d3d;" x="1014.935212" xlink:href="#m675dee9cd7" y="380.527613"/>
     <use style="fill:#3d3d3d;stroke:#3d3d3d;" x="1014.935212" xlink:href="#m675dee9cd7" y="379.507586"/>
     <use style="fill:#3d3d3d;stroke:#3d3d3d;" x="1014.935212" xlink:href="#m675dee9cd7" y="378.936573"/>
     <use style="fill:#3d3d3d;stroke:#3d3d3d;" x="1014.935212" xlink:href="#m675dee9cd7" y="378.95791"/>
     <use style="fill:#3d3d3d;stroke:#3d3d3d;" x="1014.935212" xlink:href="#m675dee9cd7" y="380.686667"/>
     <use style="fill:#3d3d3d;stroke:#3d3d3d;" x="1014.935212" xlink:href="#m675dee9cd7" y="385.737027"/>
     <use style="fill:#3d3d3d;stroke:#3d3d3d;" x="1014.935212" xlink:href="#m675dee9cd7" y="279.774065"/>
     <use style="fill:#3d3d3d;stroke:#3d3d3d;" x="1014.935212" xlink:href="#m675dee9cd7" y="263.717229"/>
     <use style="fill:#3d3d3d;stroke:#3d3d3d;" x="1014.935212" xlink:href="#m675dee9cd7" y="284.048642"/>
     <use style="fill:#3d3d3d;stroke:#3d3d3d;" x="1014.935212" xlink:href="#m675dee9cd7" y="212.363924"/>
     <use style="fill:#3d3d3d;stroke:#3d3d3d;" x="1014.935212" xlink:href="#m675dee9cd7" y="103.125097"/>
     <use style="fill:#3d3d3d;stroke:#3d3d3d;" x="1014.935212" xlink:href="#m675dee9cd7" y="153.667535"/>
     <use style="fill:#3d3d3d;stroke:#3d3d3d;" x="1014.935212" xlink:href="#m675dee9cd7" y="265.191599"/>
    </g>
   </g>
   <g id="PatchCollection_12">
    <path clip-path="url(#p5d10de79cc)" d="M 999.011413 377.897998 
L 1030.859012 377.897998 
L 1030.859012 287.062567 
L 999.011413 287.062567 
z
" style="fill:#fbece0;stroke:#3d3d3d;stroke-width:1.5;"/>
    <path clip-path="url(#p5d10de79cc)" d="M 983.087613 376.693291 
L 1046.782811 376.693291 
L 1046.782811 362.78422 
L 983.087613 362.78422 
z
" style="fill:#e1812c;stroke:#3d3d3d;stroke-width:1.5;"/>
   </g>
   <g id="PathCollection_13">
    <g clip-path="url(#p5d10de79cc)">
     <use style="fill:#3d3d3d;stroke:#3d3d3d;" x="1079.930312" xlink:href="#m675dee9cd7" y="375.756989"/>
     <use style="fill:#3d3d3d;stroke:#3d3d3d;" x="1079.930312" xlink:href="#m675dee9cd7" y="375.965035"/>
     <use style="fill:#3d3d3d;stroke:#3d3d3d;" x="1079.930312" xlink:href="#m675dee9cd7" y="375.778397"/>
     <use style="fill:#3d3d3d;stroke:#3d3d3d;" x="1079.930312" xlink:href="#m675dee9cd7" y="376.635983"/>
     <use style="fill:#3d3d3d;stroke:#3d3d3d;" x="1079.930312" xlink:href="#m675dee9cd7" y="376.401486"/>
     <use style="fill:#3d3d3d;stroke:#3d3d3d;" x="1079.930312" xlink:href="#m675dee9cd7" y="376.87358"/>
     <use style="fill:#3d3d3d;stroke:#3d3d3d;" x="1079.930312" xlink:href="#m675dee9cd7" y="376.453561"/>
     <use style="fill:#3d3d3d;stroke:#3d3d3d;" x="1079.930312" xlink:href="#m675dee9cd7" y="281.837057"/>
     <use style="fill:#3d3d3d;stroke:#3d3d3d;" x="1079.930312" xlink:href="#m675dee9cd7" y="277.12668"/>
     <use style="fill:#3d3d3d;stroke:#3d3d3d;" x="1079.930312" xlink:href="#m675dee9cd7" y="287.143131"/>
     <use style="fill:#3d3d3d;stroke:#3d3d3d;" x="1079.930312" xlink:href="#m675dee9cd7" y="223.710383"/>
     <use style="fill:#3d3d3d;stroke:#3d3d3d;" x="1079.930312" xlink:href="#m675dee9cd7" y="94.873127"/>
     <use style="fill:#3d3d3d;stroke:#3d3d3d;" x="1079.930312" xlink:href="#m675dee9cd7" y="53.09665"/>
     <use style="fill:#3d3d3d;stroke:#3d3d3d;" x="1079.930312" xlink:href="#m675dee9cd7" y="295.575648"/>
    </g>
   </g>
   <g id="PatchCollection_13">
    <path clip-path="url(#p5d10de79cc)" d="M 1064.006513 375.756267 
L 1095.854112 375.756267 
L 1095.854112 295.926172 
L 1064.006513 295.926172 
z
" style="fill:#e2efe2;stroke:#3d3d3d;stroke-width:1.5;"/>
    <path clip-path="url(#p5d10de79cc)" d="M 1048.082713 375.088409 
L 1111.777911 375.088409 
L 1111.777911 364.694107 
L 1048.082713 364.694107 
z
" style="fill:#3a923a;stroke:#3d3d3d;stroke-width:1.5;"/>
   </g>
   <g id="patch_3">
    <path clip-path="url(#p5d10de79cc)" d="M 267.491562 326.469306 
L 267.491562 326.469306 
L 267.491562 326.469306 
L 267.491562 326.469306 
z
" style="fill:#3274a1;stroke:#3d3d3d;stroke-linejoin:miter;stroke-width:0.75;"/>
   </g>
   <g id="patch_4">
    <path clip-path="url(#p5d10de79cc)" d="M 267.491562 326.469306 
L 267.491562 326.469306 
L 267.491562 326.469306 
L 267.491562 326.469306 
z
" style="fill:#e1812c;stroke:#3d3d3d;stroke-linejoin:miter;stroke-width:0.75;"/>
   </g>
   <g id="patch_5">
    <path clip-path="url(#p5d10de79cc)" d="M 267.491562 326.469306 
L 267.491562 326.469306 
L 267.491562 326.469306 
L 267.491562 326.469306 
z
" style="fill:#3a923a;stroke:#3d3d3d;stroke-linejoin:miter;stroke-width:0.75;"/>
   </g>
   <g id="patch_6">
    <path clip-path="url(#p5d10de79cc)" d="M 267.491562 326.469306 
L 267.491562 326.469306 
L 267.491562 326.469306 
L 267.491562 326.469306 
z
" style="fill:#c03d3e;stroke:#3d3d3d;stroke-linejoin:miter;stroke-width:0.75;"/>
   </g>
   <g id="patch_7">
    <path clip-path="url(#p5d10de79cc)" d="M 267.491562 326.469306 
L 267.491562 326.469306 
L 267.491562 326.469306 
L 267.491562 326.469306 
z
" style="fill:#9372b2;stroke:#3d3d3d;stroke-linejoin:miter;stroke-width:0.75;"/>
   </g>
   <g id="line2d_9">
    <path clip-path="url(#p5d10de79cc)" d="M 105.653764 326.469306 
L 169.348961 326.469306 
" style="fill:none;stroke:#262626;stroke-opacity:0.45;stroke-width:1.5;"/>
   </g>
   <g id="line2d_10">
    <path clip-path="url(#p5d10de79cc)" d="M 170.648864 377.947777 
L 234.344061 377.947777 
" style="fill:none;stroke:#262626;stroke-opacity:0.45;stroke-width:1.5;"/>
   </g>
   <g id="line2d_11">
    <path clip-path="url(#p5d10de79cc)" d="M 235.643963 376.995596 
L 299.339161 376.995596 
" style="fill:none;stroke:#262626;stroke-opacity:0.45;stroke-width:1.5;"/>
   </g>
   <g id="line2d_12">
    <path clip-path="url(#p5d10de79cc)" d="M 300.639063 326.04841 
L 364.334261 326.04841 
" style="fill:none;stroke:#262626;stroke-opacity:0.45;stroke-width:1.5;"/>
   </g>
   <g id="line2d_13">
    <path clip-path="url(#p5d10de79cc)" d="M 365.634163 326.483738 
L 429.329361 326.483738 
" style="fill:none;stroke:#262626;stroke-opacity:0.45;stroke-width:1.5;"/>
   </g>
   <g id="line2d_14">
    <path clip-path="url(#p5d10de79cc)" d="M 511.873138 326.469306 
L 575.568336 326.469306 
" style="fill:none;stroke:#262626;stroke-opacity:0.45;stroke-width:1.5;"/>
   </g>
   <g id="line2d_15">
    <path clip-path="url(#p5d10de79cc)" d="M 576.868238 377.184369 
L 640.563436 377.184369 
" style="fill:none;stroke:#262626;stroke-opacity:0.45;stroke-width:1.5;"/>
   </g>
   <g id="line2d_16">
    <path clip-path="url(#p5d10de79cc)" d="M 641.863338 375.878733 
L 705.558536 375.878733 
" style="fill:none;stroke:#262626;stroke-opacity:0.45;stroke-width:1.5;"/>
   </g>
   <g id="line2d_17">
    <path clip-path="url(#p5d10de79cc)" d="M 706.858438 325.77005 
L 770.553636 325.77005 
" style="fill:none;stroke:#262626;stroke-opacity:0.45;stroke-width:1.5;"/>
   </g>
   <g id="line2d_18">
    <path clip-path="url(#p5d10de79cc)" d="M 771.853539 326.328253 
L 835.548737 326.328253 
" style="fill:none;stroke:#262626;stroke-opacity:0.45;stroke-width:1.5;"/>
   </g>
   <g id="line2d_19">
    <path clip-path="url(#p5d10de79cc)" d="M 918.092513 326.348615 
L 981.787711 326.348615 
" style="fill:none;stroke:#262626;stroke-opacity:0.45;stroke-width:1.5;"/>
   </g>
   <g id="line2d_20">
    <path clip-path="url(#p5d10de79cc)" d="M 983.087613 370.867538 
L 1046.782811 370.867538 
" style="fill:none;stroke:#262626;stroke-opacity:0.45;stroke-width:1.5;"/>
   </g>
   <g id="line2d_21">
    <path clip-path="url(#p5d10de79cc)" d="M 1048.082713 370.726073 
L 1111.777911 370.726073 
" style="fill:none;stroke:#262626;stroke-opacity:0.45;stroke-width:1.5;"/>
   </g>
   <g id="patch_8">
    <path d="M 64.381875 817.54 
L 64.381875 16.694586 
" style="fill:none;stroke:#ffffff;stroke-linecap:square;stroke-linejoin:miter;stroke-width:1.25;"/>
   </g>
   <g id="patch_9">
    <path d="M 1283.04 817.54 
L 1283.04 16.694586 
" style="fill:none;stroke:#ffffff;stroke-linecap:square;stroke-linejoin:miter;stroke-width:1.25;"/>
   </g>
   <g id="patch_10">
    <path d="M 64.381875 817.54 
L 1283.04 817.54 
" style="fill:none;stroke:#ffffff;stroke-linecap:square;stroke-linejoin:miter;stroke-width:1.25;"/>
   </g>
   <g id="patch_11">
    <path d="M 64.381875 16.694586 
L 1283.04 16.694586 
" style="fill:none;stroke:#ffffff;stroke-linecap:square;stroke-linejoin:miter;stroke-width:1.25;"/>
   </g>
   <g id="legend_1">
    <g id="patch_12">
     <path d="M 1123.046719 119.76818 
L 1275.34 119.76818 
Q 1277.54 119.76818 1277.54 117.56818 
L 1277.54 24.394586 
Q 1277.54 22.194586 1275.34 22.194586 
L 1123.046719 22.194586 
Q 1120.846719 22.194586 1120.846719 24.394586 
L 1120.846719 117.56818 
Q 1120.846719 119.76818 1123.046719 119.76818 
z
" style="fill:#eaeaf2;opacity:0.8;stroke:#cccccc;stroke-linejoin:miter;"/>
    </g>
    <g id="text_14">
     <!-- method -->
     <g style="fill:#262626;" transform="translate(1179.182422 35.183961)scale(0.12 -0.12)">
      <use xlink:href="#ArialMT-109"/>
      <use x="83.300781" xlink:href="#ArialMT-101"/>
      <use x="138.916016" xlink:href="#ArialMT-116"/>
      <use x="166.699219" xlink:href="#ArialMT-104"/>
      <use x="222.314453" xlink:href="#ArialMT-111"/>
      <use x="277.929688" xlink:href="#ArialMT-100"/>
     </g>
    </g>
    <g id="patch_13">
     <path d="M 1125.246719 50.942555 
L 1147.246719 50.942555 
L 1147.246719 43.242555 
L 1125.246719 43.242555 
z
" style="fill:#3274a1;stroke:#3d3d3d;stroke-linejoin:miter;stroke-width:0.75;"/>
    </g>
    <g id="text_15">
     <!-- sourmash, scaled=1000 -->
     <g style="fill:#262626;" transform="translate(1156.046719 50.942555)scale(0.11 -0.11)">
      <defs>
       <path d="M 40.4375 6.390625 
Q 35.546875 2.25 31.03125 0.53125 
Q 26.515625 -1.171875 21.34375 -1.171875 
Q 12.796875 -1.171875 8.203125 3 
Q 3.609375 7.171875 3.609375 13.671875 
Q 3.609375 17.484375 5.34375 20.625 
Q 7.078125 23.78125 9.890625 25.6875 
Q 12.703125 27.59375 16.21875 28.5625 
Q 18.796875 29.25 24.03125 29.890625 
Q 34.671875 31.15625 39.703125 32.90625 
Q 39.75 34.71875 39.75 35.203125 
Q 39.75 40.578125 37.25 42.78125 
Q 33.890625 45.75 27.25 45.75 
Q 21.046875 45.75 18.09375 43.578125 
Q 15.140625 41.40625 13.71875 35.890625 
L 5.125 37.0625 
Q 6.296875 42.578125 8.984375 45.96875 
Q 11.671875 49.359375 16.75 51.1875 
Q 21.828125 53.03125 28.515625 53.03125 
Q 35.15625 53.03125 39.296875 51.46875 
Q 43.453125 49.90625 45.40625 47.53125 
Q 47.359375 45.171875 48.140625 41.546875 
Q 48.578125 39.3125 48.578125 33.453125 
L 48.578125 21.734375 
Q 48.578125 9.46875 49.140625 6.21875 
Q 49.703125 2.984375 51.375 0 
L 42.1875 0 
Q 40.828125 2.734375 40.4375 6.390625 
z
M 39.703125 26.03125 
Q 34.90625 24.078125 25.34375 22.703125 
Q 19.921875 21.921875 17.671875 20.9375 
Q 15.4375 19.96875 14.203125 18.09375 
Q 12.984375 16.21875 12.984375 13.921875 
Q 12.984375 10.40625 15.640625 8.0625 
Q 18.3125 5.71875 23.4375 5.71875 
Q 28.515625 5.71875 32.46875 7.9375 
Q 36.421875 10.15625 38.28125 14.015625 
Q 39.703125 17 39.703125 22.796875 
z
" id="ArialMT-97"/>
       <path d="M 8.890625 0 
L 8.890625 10.015625 
L 18.890625 10.015625 
L 18.890625 0 
Q 18.890625 -5.515625 16.9375 -8.90625 
Q 14.984375 -12.3125 10.75 -14.15625 
L 8.296875 -10.40625 
Q 11.078125 -9.1875 12.390625 -6.8125 
Q 13.71875 -4.4375 13.875 0 
z
" id="ArialMT-44"/>
       <path d="M 6.390625 0 
L 6.390625 71.578125 
L 15.1875 71.578125 
L 15.1875 0 
z
" id="ArialMT-108"/>
       <path d="M 52.828125 42.09375 
L 5.5625 42.09375 
L 5.5625 50.296875 
L 52.828125 50.296875 
z
M 52.828125 20.359375 
L 5.5625 20.359375 
L 5.5625 28.5625 
L 52.828125 28.5625 
z
" id="ArialMT-61"/>
      </defs>
      <use xlink:href="#ArialMT-115"/>
      <use x="50" xlink:href="#ArialMT-111"/>
      <use x="105.615234" xlink:href="#ArialMT-117"/>
      <use x="161.230469" xlink:href="#ArialMT-114"/>
      <use x="194.53125" xlink:href="#ArialMT-109"/>
      <use x="277.832031" xlink:href="#ArialMT-97"/>
      <use x="333.447266" xlink:href="#ArialMT-115"/>
      <use x="383.447266" xlink:href="#ArialMT-104"/>
      <use x="439.0625" xlink:href="#ArialMT-44"/>
      <use x="466.845703" xlink:href="#ArialMT-32"/>
      <use x="494.628906" xlink:href="#ArialMT-115"/>
      <use x="544.628906" xlink:href="#ArialMT-99"/>
      <use x="594.628906" xlink:href="#ArialMT-97"/>
      <use x="650.244141" xlink:href="#ArialMT-108"/>
      <use x="672.460938" xlink:href="#ArialMT-101"/>
      <use x="728.076172" xlink:href="#ArialMT-100"/>
      <use x="783.691406" xlink:href="#ArialMT-61"/>
      <use x="842.089844" xlink:href="#ArialMT-49"/>
      <use x="897.705078" xlink:href="#ArialMT-48"/>
      <use x="953.320312" xlink:href="#ArialMT-48"/>
      <use x="1008.935547" xlink:href="#ArialMT-48"/>
     </g>
    </g>
    <g id="patch_14">
     <path d="M 1125.246719 66.502399 
L 1147.246719 66.502399 
L 1147.246719 58.802399 
L 1125.246719 58.802399 
z
" style="fill:#e1812c;stroke:#3d3d3d;stroke-linejoin:miter;stroke-width:0.75;"/>
    </g>
    <g id="text_16">
     <!-- CMash, n=1000 -->
     <g style="fill:#262626;" transform="translate(1156.046719 66.502399)scale(0.11 -0.11)">
      <defs>
       <path d="M 58.796875 25.09375 
L 68.265625 22.703125 
Q 65.28125 11.03125 57.546875 4.90625 
Q 49.8125 -1.21875 38.625 -1.21875 
Q 27.046875 -1.21875 19.796875 3.484375 
Q 12.546875 8.203125 8.765625 17.140625 
Q 4.984375 26.078125 4.984375 36.328125 
Q 4.984375 47.515625 9.25 55.828125 
Q 13.53125 64.15625 21.40625 68.46875 
Q 29.296875 72.796875 38.765625 72.796875 
Q 49.515625 72.796875 56.828125 67.328125 
Q 64.15625 61.859375 67.046875 51.953125 
L 57.71875 49.75 
Q 55.21875 57.5625 50.484375 61.125 
Q 45.75 64.703125 38.578125 64.703125 
Q 30.328125 64.703125 24.78125 60.734375 
Q 19.234375 56.78125 16.984375 50.109375 
Q 14.75 43.453125 14.75 36.375 
Q 14.75 27.25 17.40625 20.4375 
Q 20.0625 13.625 25.671875 10.25 
Q 31.296875 6.890625 37.84375 6.890625 
Q 45.796875 6.890625 51.3125 11.46875 
Q 56.84375 16.0625 58.796875 25.09375 
z
" id="ArialMT-67"/>
       <path d="M 7.421875 0 
L 7.421875 71.578125 
L 21.6875 71.578125 
L 38.625 20.90625 
Q 40.96875 13.8125 42.046875 10.296875 
Q 43.265625 14.203125 45.84375 21.78125 
L 62.984375 71.578125 
L 75.734375 71.578125 
L 75.734375 0 
L 66.609375 0 
L 66.609375 59.90625 
L 45.796875 0 
L 37.25 0 
L 16.546875 60.9375 
L 16.546875 0 
z
" id="ArialMT-77"/>
      </defs>
      <use xlink:href="#ArialMT-67"/>
      <use x="72.216797" xlink:href="#ArialMT-77"/>
      <use x="155.517578" xlink:href="#ArialMT-97"/>
      <use x="211.132812" xlink:href="#ArialMT-115"/>
      <use x="261.132812" xlink:href="#ArialMT-104"/>
      <use x="316.748047" xlink:href="#ArialMT-44"/>
      <use x="344.53125" xlink:href="#ArialMT-32"/>
      <use x="372.314453" xlink:href="#ArialMT-110"/>
      <use x="427.929688" xlink:href="#ArialMT-61"/>
      <use x="486.328125" xlink:href="#ArialMT-49"/>
      <use x="541.943359" xlink:href="#ArialMT-48"/>
      <use x="597.558594" xlink:href="#ArialMT-48"/>
      <use x="653.173828" xlink:href="#ArialMT-48"/>
     </g>
    </g>
    <g id="patch_15">
     <path d="M 1125.246719 82.062242 
L 1147.246719 82.062242 
L 1147.246719 74.362242 
L 1125.246719 74.362242 
z
" style="fill:#3a923a;stroke:#3d3d3d;stroke-linejoin:miter;stroke-width:0.75;"/>
    </g>
    <g id="text_17">
     <!-- CMash, n=10000 -->
     <g style="fill:#262626;" transform="translate(1156.046719 82.062242)scale(0.11 -0.11)">
      <use xlink:href="#ArialMT-67"/>
      <use x="72.216797" xlink:href="#ArialMT-77"/>
      <use x="155.517578" xlink:href="#ArialMT-97"/>
      <use x="211.132812" xlink:href="#ArialMT-115"/>
      <use x="261.132812" xlink:href="#ArialMT-104"/>
      <use x="316.748047" xlink:href="#ArialMT-44"/>
      <use x="344.53125" xlink:href="#ArialMT-32"/>
      <use x="372.314453" xlink:href="#ArialMT-110"/>
      <use x="427.929688" xlink:href="#ArialMT-61"/>
      <use x="486.328125" xlink:href="#ArialMT-49"/>
      <use x="541.943359" xlink:href="#ArialMT-48"/>
      <use x="597.558594" xlink:href="#ArialMT-48"/>
      <use x="653.173828" xlink:href="#ArialMT-48"/>
      <use x="708.789062" xlink:href="#ArialMT-48"/>
     </g>
    </g>
    <g id="patch_16">
     <path d="M 1125.246719 97.622086 
L 1147.246719 97.622086 
L 1147.246719 89.922086 
L 1125.246719 89.922086 
z
" style="fill:#c03d3e;stroke:#3d3d3d;stroke-linejoin:miter;stroke-width:0.75;"/>
    </g>
    <g id="text_18">
     <!-- Mash Screen, n=1000 -->
     <g style="fill:#262626;" transform="translate(1156.046719 97.622086)scale(0.11 -0.11)">
      <defs>
       <path d="M 4.5 23 
L 13.421875 23.78125 
Q 14.0625 18.40625 16.375 14.96875 
Q 18.703125 11.53125 23.578125 9.40625 
Q 28.46875 7.28125 34.578125 7.28125 
Q 39.984375 7.28125 44.140625 8.890625 
Q 48.296875 10.5 50.3125 13.296875 
Q 52.34375 16.109375 52.34375 19.4375 
Q 52.34375 22.796875 50.390625 25.3125 
Q 48.4375 27.828125 43.953125 29.546875 
Q 41.0625 30.671875 31.203125 33.03125 
Q 21.34375 35.40625 17.390625 37.5 
Q 12.25 40.1875 9.734375 44.15625 
Q 7.234375 48.140625 7.234375 53.078125 
Q 7.234375 58.5 10.296875 63.203125 
Q 13.375 67.921875 19.28125 70.359375 
Q 25.203125 72.796875 32.421875 72.796875 
Q 40.375 72.796875 46.453125 70.234375 
Q 52.546875 67.671875 55.8125 62.6875 
Q 59.078125 57.71875 59.328125 51.421875 
L 50.25 50.734375 
Q 49.515625 57.515625 45.28125 60.984375 
Q 41.0625 64.453125 32.8125 64.453125 
Q 24.21875 64.453125 20.28125 61.296875 
Q 16.359375 58.15625 16.359375 53.71875 
Q 16.359375 49.859375 19.140625 47.359375 
Q 21.875 44.875 33.421875 42.265625 
Q 44.96875 39.65625 49.265625 37.703125 
Q 55.515625 34.8125 58.484375 30.390625 
Q 61.46875 25.984375 61.46875 20.21875 
Q 61.46875 14.5 58.203125 9.4375 
Q 54.9375 4.390625 48.796875 1.578125 
Q 42.671875 -1.21875 35.015625 -1.21875 
Q 25.296875 -1.21875 18.71875 1.609375 
Q 12.15625 4.4375 8.421875 10.125 
Q 4.6875 15.828125 4.5 23 
z
" id="ArialMT-83"/>
      </defs>
      <use xlink:href="#ArialMT-77"/>
      <use x="83.300781" xlink:href="#ArialMT-97"/>
      <use x="138.916016" xlink:href="#ArialMT-115"/>
      <use x="188.916016" xlink:href="#ArialMT-104"/>
      <use x="244.53125" xlink:href="#ArialMT-32"/>
      <use x="272.314453" xlink:href="#ArialMT-83"/>
      <use x="339.013672" xlink:href="#ArialMT-99"/>
      <use x="389.013672" xlink:href="#ArialMT-114"/>
      <use x="422.314453" xlink:href="#ArialMT-101"/>
      <use x="477.929688" xlink:href="#ArialMT-101"/>
      <use x="533.544922" xlink:href="#ArialMT-110"/>
      <use x="589.160156" xlink:href="#ArialMT-44"/>
      <use x="616.943359" xlink:href="#ArialMT-32"/>
      <use x="644.726562" xlink:href="#ArialMT-110"/>
      <use x="700.341797" xlink:href="#ArialMT-61"/>
      <use x="758.740234" xlink:href="#ArialMT-49"/>
      <use x="814.355469" xlink:href="#ArialMT-48"/>
      <use x="869.970703" xlink:href="#ArialMT-48"/>
      <use x="925.585938" xlink:href="#ArialMT-48"/>
     </g>
    </g>
    <g id="patch_17">
     <path d="M 1125.246719 113.18193 
L 1147.246719 113.18193 
L 1147.246719 105.48193 
L 1125.246719 105.48193 
z
" style="fill:#9372b2;stroke:#3d3d3d;stroke-linejoin:miter;stroke-width:0.75;"/>
    </g>
    <g id="text_19">
     <!-- Mash Screen, n=10000 -->
     <g style="fill:#262626;" transform="translate(1156.046719 113.18193)scale(0.11 -0.11)">
      <use xlink:href="#ArialMT-77"/>
      <use x="83.300781" xlink:href="#ArialMT-97"/>
      <use x="138.916016" xlink:href="#ArialMT-115"/>
      <use x="188.916016" xlink:href="#ArialMT-104"/>
      <use x="244.53125" xlink:href="#ArialMT-32"/>
      <use x="272.314453" xlink:href="#ArialMT-83"/>
      <use x="339.013672" xlink:href="#ArialMT-99"/>
      <use x="389.013672" xlink:href="#ArialMT-114"/>
      <use x="422.314453" xlink:href="#ArialMT-101"/>
      <use x="477.929688" xlink:href="#ArialMT-101"/>
      <use x="533.544922" xlink:href="#ArialMT-110"/>
      <use x="589.160156" xlink:href="#ArialMT-44"/>
      <use x="616.943359" xlink:href="#ArialMT-32"/>
      <use x="644.726562" xlink:href="#ArialMT-110"/>
      <use x="700.341797" xlink:href="#ArialMT-61"/>
      <use x="758.740234" xlink:href="#ArialMT-49"/>
      <use x="814.355469" xlink:href="#ArialMT-48"/>
      <use x="869.970703" xlink:href="#ArialMT-48"/>
      <use x="925.585938" xlink:href="#ArialMT-48"/>
      <use x="981.201172" xlink:href="#ArialMT-48"/>
     </g>
    </g>
   </g>
  </g>
 </g>
 <defs>
  <clipPath id="p5d10de79cc">
   <rect height="800.845414" width="1218.658125" x="64.381875" y="16.694586"/>
  </clipPath>
 </defs>
</svg>
